<svg xmlns="http://www.w3.org/2000/svg" viewBox="0 0 434.62 61.84"><defs><style>.cls-1{fill:#f2f2f2;}.cls-2{fill:none;stroke:#fff;stroke-miterlimit:10;stroke-width:3px;}</style></defs><title>Asset 4</title><g id="Layer_2" data-name="Layer 2"><g id="Layer_1-2" data-name="Layer 1"><path class="cls-1" d="M19,56.57A18.73,18.73,0,0,1,11.37,55a17.68,17.68,0,0,1-6-4.31,19.9,19.9,0,0,1-3.93-6.65A24.56,24.56,0,0,1,0,35.52,24.3,24.3,0,0,1,1.42,27,20,20,0,0,1,5.35,20.4a17.81,17.81,0,0,1,6-4.31A18.72,18.72,0,0,1,19,14.55h6.86v4.22H19A15.65,15.65,0,0,0,12.88,20,14.18,14.18,0,0,0,8,23.37a15.66,15.66,0,0,0-3.18,5.29,19.9,19.9,0,0,0-1.13,6.86,20.22,20.22,0,0,0,1.13,6.9A15.66,15.66,0,0,0,8,47.75a14.15,14.15,0,0,0,4.85,3.4A15.47,15.47,0,0,0,19,52.35h6.86v4.22ZM19,50a13.24,13.24,0,0,1-5.2-1,12,12,0,0,1-4.19-2.86,13.19,13.19,0,0,1-2.77-4.54,16.78,16.78,0,0,1-1-6,16.62,16.62,0,0,1,1-6A13.14,13.14,0,0,1,9.64,25a12,12,0,0,1,4.19-2.87,13.42,13.42,0,0,1,5.2-1h6.86v4.22H19a9.37,9.37,0,0,0-6.78,2.52q-2.61,2.52-2.61,7.62t2.61,7.66A9.31,9.31,0,0,0,19,45.73h6.86V50Z"/><path class="cls-1" d="M30,14.55h3.84v42H30Zm9.76,42H36v-42h3.78Z"/><path class="cls-1" d="M44.73,31.49a22.92,22.92,0,0,1,1.1-7.34A15.75,15.75,0,0,1,49,18.64a13.89,13.89,0,0,1,5-3.5,17.85,17.85,0,0,1,13,0,13.89,13.89,0,0,1,4.95,3.5A15.59,15.59,0,0,1,75,24.15a22.92,22.92,0,0,1,1.1,7.34V56.57H72.26V31.49a16.86,16.86,0,0,0-1-5.92,11.67,11.67,0,0,0-2.55-4.16A10.34,10.34,0,0,0,65,19a12.73,12.73,0,0,0-4.6-.82,12.89,12.89,0,0,0-4.63.82A10.25,10.25,0,0,0,52,21.41a11.68,11.68,0,0,0-2.56,4.16,16.87,16.87,0,0,0-.94,5.92V56.57H44.73Zm5.92,0a14.19,14.19,0,0,1,.76-4.91,9.22,9.22,0,0,1,2.08-3.43,8,8,0,0,1,3.11-2,11.47,11.47,0,0,1,3.82-.63,11.19,11.19,0,0,1,3.78.63,8,8,0,0,1,3.08,2,9.22,9.22,0,0,1,2.08,3.43,14.19,14.19,0,0,1,.76,4.91V56.57H66.34V31.49c0-2.43-.55-4.23-1.64-5.38a5.61,5.61,0,0,0-4.28-1.74,5.71,5.71,0,0,0-4.32,1.74c-1.11,1.15-1.67,2.95-1.67,5.38V56.57H50.65Z"/><path class="cls-1" d="M81,56.57v-42h19.27v4.22H84.86V52.35h15.37v4.22Zm5.92-22.49V21.16h13.35v4.22H90.78v4.47H100v4.23Zm0,15.87V36.47h13v4.22h-9.2v5h9.45V50Z"/><path class="cls-1" d="M103.88,31.49A22.64,22.64,0,0,1,105,24.15a15.44,15.44,0,0,1,3.15-5.51,13.86,13.86,0,0,1,4.94-3.5,16.64,16.64,0,0,1,6.49-1.22A14.21,14.21,0,0,1,126,15.3a12.18,12.18,0,0,1,4.31,3.47,11,11,0,0,1,4.29-3.47,14.78,14.78,0,0,1,6.55-1.38,16.64,16.64,0,0,1,6.49,1.22,13.86,13.86,0,0,1,4.94,3.5,15.61,15.61,0,0,1,3.16,5.51,22.92,22.92,0,0,1,1.1,7.34V56.57H153V31.49a16.87,16.87,0,0,0-.94-5.92,11.81,11.81,0,0,0-2.55-4.16A10.3,10.3,0,0,0,145.78,19a12.69,12.69,0,0,0-4.6-.82,10.63,10.63,0,0,0-3.37.56,11.67,11.67,0,0,0-3.09,1.61,12.66,12.66,0,0,0-2.55,2.52,12.13,12.13,0,0,0-1.76,3.24,14.94,14.94,0,0,0-3.94-5.76,10.14,10.14,0,0,0-6.9-2.17,12.93,12.93,0,0,0-4.63.82,10.25,10.25,0,0,0-3.78,2.45,11.81,11.81,0,0,0-2.55,4.16,16.86,16.86,0,0,0-1,5.92V56.57h-3.78Zm21.61,0a9.93,9.93,0,0,0-.47-3.3A6,6,0,0,0,123.73,26a4.83,4.83,0,0,0-1.89-1.23,6.8,6.8,0,0,0-2.27-.38,5.7,5.7,0,0,0-4.31,1.74c-1.12,1.15-1.67,2.95-1.67,5.38V56.57h-3.78V31.49a14.44,14.44,0,0,1,.75-4.91,9.49,9.49,0,0,1,2.08-3.43,7.91,7.91,0,0,1,3.12-2,11.45,11.45,0,0,1,3.81-.63,11.61,11.61,0,0,1,3.78.6A8.07,8.07,0,0,1,126.44,23a8.9,8.9,0,0,1,2.08,3.37,15.16,15.16,0,0,1,.75,5.1V56.57h-3.78Zm5.93,0a14.44,14.44,0,0,1,.75-4.91,9.49,9.49,0,0,1,2.08-3.43,7.91,7.91,0,0,1,3.12-2,11.45,11.45,0,0,1,3.81-.63,11.19,11.19,0,0,1,3.78.63,8,8,0,0,1,3.09,2,9.49,9.49,0,0,1,2.08,3.43,14.44,14.44,0,0,1,.75,4.91V56.57H147.1V31.49c0-2.43-.54-4.23-1.64-5.38a5.61,5.61,0,0,0-4.28-1.74,5.1,5.1,0,0,0-4.47,2.05,8.55,8.55,0,0,0-1.45,5.07V56.57h-3.84Z"/><path class="cls-1" d="M164.74,56.57H161V31.49a22.92,22.92,0,0,1,1.1-7.34,15.75,15.75,0,0,1,3.15-5.51,14,14,0,0,1,4.95-3.5,17.87,17.87,0,0,1,13,0,13.86,13.86,0,0,1,4.94,3.5,15.44,15.44,0,0,1,3.15,5.51,22.64,22.64,0,0,1,1.11,7.34V56.57h-3.85V31.49a16.87,16.87,0,0,0-.94-5.92A11.81,11.81,0,0,0,185,21.41,10.3,10.3,0,0,0,181.25,19a12.69,12.69,0,0,0-4.6-.82A12.93,12.93,0,0,0,172,19a10.25,10.25,0,0,0-3.78,2.45,11.81,11.81,0,0,0-2.55,4.16,16.86,16.86,0,0,0-.95,5.92ZM186.35,38.8H166.88V31.49a14.43,14.43,0,0,1,.76-4.91,9.36,9.36,0,0,1,2.08-3.43,7.91,7.91,0,0,1,3.12-2,11.36,11.36,0,0,1,3.81-.63,11.19,11.19,0,0,1,3.78.63,8.1,8.1,0,0,1,3.09,2,9.49,9.49,0,0,1,2.08,3.43,14.44,14.44,0,0,1,.75,4.91Zm-3.78,17.77V45.16H170.66V56.57h-3.78V41.19h19.47V56.57Zm0-21.61V31.49c0-2.43-.55-4.23-1.64-5.38a5.61,5.61,0,0,0-4.28-1.74,5.74,5.74,0,0,0-4.32,1.74c-1.11,1.15-1.67,2.95-1.67,5.38V35Z"/><path class="cls-1" d="M258.7,30V34.2H247.23V30ZM247.23,40.75V36.53H258.7v4.22Z"/><path class="cls-1" d="M312,30.42V56.57H299.87A18.79,18.79,0,0,1,292.21,55a17.64,17.64,0,0,1-6-4.31,20.09,20.09,0,0,1-3.94-6.65,24.56,24.56,0,0,1-1.42-8.54,24.3,24.3,0,0,1,1.42-8.5,20.15,20.15,0,0,1,3.94-6.62,17.77,17.77,0,0,1,6-4.31,18.79,18.79,0,0,1,7.66-1.54H312v4.22H299.87A15.56,15.56,0,0,0,293.73,20a14.08,14.08,0,0,0-4.85,3.41,15.53,15.53,0,0,0-3.19,5.29,19.9,19.9,0,0,0-1.13,6.86,20.22,20.22,0,0,0,1.13,6.9,15.52,15.52,0,0,0,3.19,5.33,14.06,14.06,0,0,0,4.85,3.4,15.39,15.39,0,0,0,6.14,1.2h8.32V34.64H297.48V30.42ZM299.87,50a13.28,13.28,0,0,1-5.2-1,12.07,12.07,0,0,1-4.19-2.86,13.34,13.34,0,0,1-2.77-4.54,17,17,0,0,1-1-6,16.84,16.84,0,0,1,1-6A13.29,13.29,0,0,1,290.48,25a12.09,12.09,0,0,1,4.19-2.87,13.46,13.46,0,0,1,5.2-1H312v4.22H299.87a9.34,9.34,0,0,0-6.77,2.52q-2.62,2.52-2.62,7.62t2.62,7.66a9.28,9.28,0,0,0,6.77,2.55h2.39v-5h-4.78V36.47H306V50Z"/><path class="cls-1" d="M335,56.57A18.71,18.71,0,0,1,327.37,55a17.68,17.68,0,0,1-6-4.31,20.09,20.09,0,0,1-3.94-6.65A24.8,24.8,0,0,1,316,35.52a24.53,24.53,0,0,1,1.41-8.5,20.15,20.15,0,0,1,3.94-6.62,17.81,17.81,0,0,1,6-4.31A18.71,18.71,0,0,1,335,14.55h1.51a18.72,18.72,0,0,1,7.66,1.54,17.91,17.91,0,0,1,6,4.31A20,20,0,0,1,354.14,27a24.3,24.3,0,0,1,1.42,8.5,24.56,24.56,0,0,1-1.42,8.54,19.9,19.9,0,0,1-3.93,6.65,17.78,17.78,0,0,1-6,4.31,18.73,18.73,0,0,1-7.66,1.55Zm-15.31-21a20,20,0,0,0,1.14,6.9A15.35,15.35,0,0,0,324,47.75a14.06,14.06,0,0,0,4.85,3.4,15.46,15.46,0,0,0,6.14,1.2h1.51a15.27,15.27,0,0,0,6.08-1.2,14.19,14.19,0,0,0,4.86-3.4,15.66,15.66,0,0,0,3.18-5.33,20.22,20.22,0,0,0,1.13-6.9,19.9,19.9,0,0,0-1.13-6.86,15.66,15.66,0,0,0-3.18-5.29A14.22,14.22,0,0,0,342.61,20a15.44,15.44,0,0,0-6.08-1.19H335A15.63,15.63,0,0,0,328.88,20,14.08,14.08,0,0,0,324,23.37a15.35,15.35,0,0,0-3.18,5.29A19.67,19.67,0,0,0,319.71,35.52ZM335,50a13.46,13.46,0,0,1-5.2-1,11.87,11.87,0,0,1-4.18-2.9,13.54,13.54,0,0,1-2.78-4.57,17,17,0,0,1-1-6,16.85,16.85,0,0,1,1-6A13.63,13.63,0,0,1,325.64,25a11.84,11.84,0,0,1,4.18-2.89,13.28,13.28,0,0,1,5.2-1h1.51a13.06,13.06,0,0,1,5.17,1A12,12,0,0,1,345.86,25a13.78,13.78,0,0,1,2.77,4.57,16.84,16.84,0,0,1,1,6,17,17,0,0,1-1,6,13.68,13.68,0,0,1-2.77,4.57A12,12,0,0,1,341.7,49a13.24,13.24,0,0,1-5.17,1Zm1.51-4.23a9.25,9.25,0,0,0,6.78-2.58q2.61-2.58,2.61-7.69c0-3.35-.88-5.9-2.64-7.62a9.29,9.29,0,0,0-6.75-2.58H335a9.28,9.28,0,0,0-6.77,2.55q-2.61,2.55-2.61,7.65t2.61,7.69A9.22,9.22,0,0,0,335,45.79Z"/><path class="cls-1" d="M359.65,56.57v-42h19.28v4.22H363.5V52.35h15.37v4.22Zm5.93-22.49V21.16h13.35v4.22h-9.51v4.47h9.2v4.23Zm0,15.87V36.47h13v4.22h-9.2v5h9.45V50Z"/><path class="cls-1" d="M395.88,18.77q-9.58,0-9.58,10.52V56.57h-3.78V29.29q0-7.12,3.53-10.93t9.83-3.81h7.87v4.22Zm0,6.61a4,4,0,0,0-2.93.85,4.52,4.52,0,0,0-.79,3.06V56.57h-3.84V29.29q0-4.47,2.05-6.3a8,8,0,0,1,5.51-1.83h7.87v4.22Z"/><path class="cls-1" d="M407.16,50V45.73h14.67a2.5,2.5,0,0,0,1.8-.69,2.68,2.68,0,0,0,.72-2,2.4,2.4,0,0,0-.81-2,2.71,2.71,0,0,0-1.71-.66h-3.21a12.85,12.85,0,0,1-5-1,11.71,11.71,0,0,1-3.93-2.65,11.93,11.93,0,0,1-2.62-4.09,14.31,14.31,0,0,1-.94-5.29,14.88,14.88,0,0,1,.88-5.26,12,12,0,0,1,2.49-4.07,10.91,10.91,0,0,1,3.84-2.61,13.11,13.11,0,0,1,5-.91h14.3v4.22h-14.3a8.21,8.21,0,0,0-6.14,2.33,8.54,8.54,0,0,0-2.3,6.3,9.45,9.45,0,0,0,.66,3.62,8,8,0,0,0,1.83,2.74,8,8,0,0,0,2.77,1.76,9.09,9.09,0,0,0,3.43.63h3a5.89,5.89,0,0,1,2.45.54,7.44,7.44,0,0,1,3.69,3.62,6.24,6.24,0,0,1,.6,2.71A7,7,0,0,1,426.53,48a6.09,6.09,0,0,1-4.63,2Zm0,6.62V52.35H421.9a10,10,0,0,0,3.56-.63,8,8,0,0,0,2.86-1.83,8.57,8.57,0,0,0,1.89-2.9,10.11,10.11,0,0,0,.7-3.91,9.86,9.86,0,0,0-.76-3.9,8.53,8.53,0,0,0-2-3,9.47,9.47,0,0,0-6.45-2.52h-3A6.25,6.25,0,0,1,414.27,32a5.91,5.91,0,0,1-1.82-4.57,6.52,6.52,0,0,1,1.57-4.6,5.65,5.65,0,0,1,4.35-1.7h14.3v4.22H418.5a1.88,1.88,0,0,0-1.61.63,2.33,2.33,0,0,0-.47,1.45,2.13,2.13,0,0,0,.56,1.45,2,2,0,0,0,1.52.63h3.15a13.2,13.2,0,0,1,5.07,1,12.22,12.22,0,0,1,4.12,2.77,13.08,13.08,0,0,1,2.78,4.28,14.61,14.61,0,0,1,1,5.51,15.45,15.45,0,0,1-.94,5.52A12.3,12.3,0,0,1,431,52.85a11.86,11.86,0,0,1-4,2.74,13.06,13.06,0,0,1-5.1,1Z"/><path class="cls-1" d="M240.24,22.25l-.08-.08a2.42,2.42,0,0,0-3.71.19l-3.7,4.91a.46.46,0,0,1-.76,0l-6.91-6.62a2.84,2.84,0,0,0-2-.8l-8.25.42a.6.6,0,0,0-.45.2l-6.58,8.19a3.73,3.73,0,0,0,.07,4.37,2.32,2.32,0,0,0,3.79-.19l4.62-6.39L218,26.4,207.25,42.12l-7.13.36a3.35,3.35,0,0,0-3,3.55,3.76,3.76,0,0,0,1,2.63,3.17,3.17,0,0,0,2.25,1l10.61-.54a.63.63,0,0,0,.51-.29l5.11-7.14L221.39,47l-.84,10.4a3.83,3.83,0,0,0,1.88,4.1,2.23,2.23,0,0,0,1.3.29,2.57,2.57,0,0,0,1.35-.42,3.7,3.7,0,0,0,1.47-2.49l1.6-15a1.44,1.44,0,0,0-.27-.79l-6.66-7.08,4.7-6.13,4.77,4.77a2.34,2.34,0,0,0,3.64-.18l6.13-8A3.46,3.46,0,0,0,240.24,22.25Zm-.9,3.09-6.13,8a1,1,0,0,1-1.52.08L226.36,28a.66.66,0,0,0-1.06.06l-5.7,7.43a.9.9,0,0,0-.2.63,1,1,0,0,0,.34.7l6.9,7.33-1.55,14.46a2.47,2.47,0,0,1-.77,1.2,1.31,1.31,0,0,1-1.29.06,2.06,2.06,0,0,1-.95-2.18L223,46.78a1.09,1.09,0,0,0-.26-.7L217,39.76a.62.62,0,0,0-.54-.24.56.56,0,0,0-.52.29l-5.39,7.51-10.31.51a1.41,1.41,0,0,1-1.16-.47,2.48,2.48,0,0,1-.45-1.32,1.66,1.66,0,0,1,1.58-1.78l7.43-.37a5.22,5.22,0,0,0,.52-.12l12-17.57a1.07,1.07,0,0,0,.1-1,.67.67,0,0,0-.7-.5l-3.79.19a.77.77,0,0,0-.52.3l-4.83,6.67a.87.87,0,0,1-.73.48,1.11,1.11,0,0,1-.86-.4,1.54,1.54,0,0,1,0-1.87l6.36-7.91,8-.41a1.31,1.31,0,0,1,.94.4l6.91,6.63a1.88,1.88,0,0,0,2.87-.24l3.71-4.92a1,1,0,0,1,1.51-.07l.08.08A1.43,1.43,0,0,1,239.34,25.34Z"/><path class="cls-2" d="M261.32,50l15.5-14-15.5-15Z"/><path class="cls-1" d="M236,21.19h7.59a.64.64,0,0,0,.64-.64V18.63l4.16,2.24a.68.68,0,0,0,.31.08.6.6,0,0,0,.33-.1.63.63,0,0,0,.31-.55V11.14a.65.65,0,0,0-.95-.57l-4.16,2.24V10.89a.64.64,0,0,0-.64-.64h-1a5.77,5.77,0,1,0-9.23-5.84,4.35,4.35,0,1,0-6.44,5.84h-.58a.65.65,0,0,0-.65.64v2.92H224a.65.65,0,0,0-.64.65V17a.64.64,0,0,0,.64.64h1.63v2.92a.65.65,0,0,0,.65.64h7.59m-8.24-4.85h-1V15.1h1Zm13.27-15a4.48,4.48,0,1,1-4.48,4.48A4.49,4.49,0,0,1,238.89,1.29ZM234,8.78a5.86,5.86,0,0,0,1.29,1.47H233A4.26,4.26,0,0,0,234,8.78Zm-4-4.66a3.07,3.07,0,1,1-3.06,3.07A3.07,3.07,0,0,1,229.94,4.12Zm13,9.77v6h-16V11.53h16ZM248,19.23l-3.82-2.06v-2.9L248,12.21Z"/><path class="cls-1" d="M229.94,5.23a2,2,0,1,0,1.95,2A2,2,0,0,0,229.94,5.23Zm0,2.75a.8.8,0,1,1,.8-.79A.8.8,0,0,1,229.94,8Z"/><path class="cls-1" d="M238.89,3a2.81,2.81,0,1,0,2.81,2.81A2.81,2.81,0,0,0,238.89,3Zm0,4.33a1.52,1.52,0,1,1,1.52-1.52A1.52,1.52,0,0,1,238.89,7.29Z"/><path class="cls-1" d="M236.82,13.41h-7a.61.61,0,0,0-.61.61v3.4a.61.61,0,0,0,.61.61h7a.61.61,0,0,0,.61-.61V14A.61.61,0,0,0,236.82,13.41Zm-.61,3.4h-5.77V14.63h5.77v2.18Z"/><circle class="cls-1" cx="240.19" cy="14.66" r="0.64"/><circle class="cls-1" cx="240.19" cy="16.78" r="0.64"/></g></g></svg>