<svg id="Layer_1" data-name="Layer 1" xmlns="http://www.w3.org/2000/svg" xmlns:xlink="http://www.w3.org/1999/xlink" viewBox="0 0 1280 558"><defs><style>.cls-1{fill:#fff;}.cls-2{fill:url(#radial-gradient);}.cls-3{fill:url(#radial-gradient-2);}.cls-4{fill:url(#radial-gradient-3);}.cls-5{fill:none;stroke:#000;stroke-miterlimit:10;stroke-width:3px;}.cls-6{fill:url(#linear-gradient);}.cls-7{fill:url(#linear-gradient-2);}.cls-8{fill:url(#linear-gradient-3);}.cls-9{fill:url(#linear-gradient-4);}.cls-10{fill:url(#linear-gradient-5);}.cls-11{fill:url(#linear-gradient-6);}.cls-12{fill:url(#linear-gradient-7);}.cls-13{fill:url(#linear-gradient-8);}.cls-14{fill:url(#linear-gradient-9);}.cls-15{fill:url(#linear-gradient-10);}.cls-16{fill:#1a1a1a;}.cls-17{fill:#ccc;}</style><radialGradient id="radial-gradient" cx="-46.72" cy="278.2" r="188.84" gradientTransform="translate(257.68 -86.76) scale(1.5 1.2)" gradientUnits="userSpaceOnUse"><stop offset="0" stop-color="#efb8a4"/><stop offset="0.18" stop-color="#dca693"/><stop offset="0.55" stop-color="#ab7867"/><stop offset="1" stop-color="#673729"/></radialGradient><radialGradient id="radial-gradient-2" cx="260.68" cy="278.2" r="194.84" xlink:href="#radial-gradient"/><radialGradient id="radial-gradient-3" cx="569.25" cy="277.89" r="194.84" xlink:href="#radial-gradient"/><linearGradient id="linear-gradient" x1="2118.41" y1="-537.61" x2="2045.42" y2="-184.73" gradientTransform="matrix(0.84, 0.01, 0.01, -0.84, -735.51, 81.77)" gradientUnits="userSpaceOnUse"><stop offset="0" stop-color="#1f1f1f"/><stop offset="0.6" stop-color="#090909"/><stop offset="1"/></linearGradient><linearGradient id="linear-gradient-2" x1="1582.18" y1="-958.37" x2="1601.44" y2="-933.77" gradientTransform="matrix(0.76, -0.34, -0.34, -0.76, -604, 139.19)" gradientUnits="userSpaceOnUse"><stop offset="0" stop-color="#ececec"/><stop offset="1" stop-color="#fff"/></linearGradient><linearGradient id="linear-gradient-3" x1="1636.15" y1="-1024.61" x2="1651.12" y2="-995.98" gradientTransform="matrix(0.76, -0.34, -0.34, -0.76, -604, 139.19)" gradientUnits="userSpaceOnUse"><stop offset="0" stop-color="#b3b3b3"/><stop offset="1" stop-color="#fff"/></linearGradient><linearGradient id="linear-gradient-4" x1="1710.89" y1="-1041.26" x2="1735.14" y2="-1021.74" xlink:href="#linear-gradient-3"/><linearGradient id="linear-gradient-5" x1="1784.68" y1="-1075.26" x2="1808.69" y2="-1052.95" xlink:href="#linear-gradient-3"/><linearGradient id="linear-gradient-6" x1="1704.95" y1="-785.34" x2="1712.54" y2="-880.76" gradientTransform="matrix(0.8, -0.25, -0.25, -0.8, -635.01, 70.2)" gradientUnits="userSpaceOnUse"><stop offset="0" stop-color="#ccc"/><stop offset="1" stop-color="#fff"/></linearGradient><linearGradient id="linear-gradient-7" x1="1781.35" y1="-779.26" x2="1788.94" y2="-874.68" xlink:href="#linear-gradient-6"/><linearGradient id="linear-gradient-8" x1="1857.73" y1="-773.19" x2="1865.32" y2="-868.61" xlink:href="#linear-gradient-6"/><linearGradient id="linear-gradient-9" x1="1934.12" y1="-767.12" x2="1941.7" y2="-862.54" xlink:href="#linear-gradient-6"/><linearGradient id="linear-gradient-10" x1="2012.18" y1="-294.53" x2="1938.94" y2="-211.31" gradientTransform="matrix(0.84, 0.01, 0.01, -0.84, -735.51, 81.74)" gradientUnits="userSpaceOnUse"><stop offset="0" stop-color="#292929"/><stop offset="0.1" stop-color="#212121"/><stop offset="0.47" stop-color="#090909"/><stop offset="0.69"/></linearGradient></defs><title>vi3</title><rect class="cls-1" x="-479.97" y="43.22" width="3663.92" height="398.94"/><rect class="cls-2" x="-33.84" y="114.46" width="442.62" height="265.01"/><rect class="cls-3" x="421.08" y="110.26" width="456.67" height="273.42"/><rect class="cls-4" x="884.78" y="109.89" width="456.67" height="273.42"/><path d="M-507.9,24.62H1344.94v445H-507.9v-445m32,31.07c-5,6.51-2.82,14.51-3.32,21.76.33,5.56-1,11.75,2.66,16.74,6.6,2.1,13.89,1,20.81,1.28,3.75-.08,9.23.17,10.55-3.48,1.77-6.29.43-12.83.83-19.23-.3-5.72,1.45-12.07-2.88-17.1-9.55.14-19.09-.1-28.65,0m185.25,0c-3.66,7.75-1.36,16.12-1.79,24.18.08,4.45-1,9.13,1,13.38,1.11,2.6,5.13,2,7.78,2.24,8.1-.22,16.63,1,24.31-1.65,1.55-9.3.76-18.72.89-28.06-.48-3.18.18-7.28-3.08-9.6-9.64-1.28-19.44-.11-29.15-.49m186.25.45c-3.1,1.4-2.36,4.81-2.75,7.23.09,10.19-.36,20.39.54,30.56,8.21,2.66,17.23,1.33,25.82,1.51,3.81.3,7.91-1.92,7.74-5.25.2-10.37.32-20.74.13-31.11l-4-3.34c-9.13.29-18.36-.78-27.45.4m93-.44a11.2,11.2,0,0,0-3.4,8.88c.18,9.81-.52,19.65.68,29.42,9.25,2.5,19.21,1.4,28.76,1.31,4,.06,5.24-3.48,5.26-6.12.24-7.82-.09-15.65.11-23.48-.11-3.28.38-7.52-3.51-9.57-9.27-1-18.63-.25-27.91-.44m92.29.44c-2.76,1.59-2.17,4.81-2.75,7.22-.19,10.17-.58,20.42.71,30.57C86.51,96.49,95,95.19,103,95.46c3.63.35,6.83-1,9.6-2.81-.25-11.67-.08-23.33-.11-35-6-2.92-13.09-1.84-19.71-2-4,.06-8-.19-11.89.43M361.33,56c-4.83.7-4.59,5.46-4.52,8.51.42,9.56-.56,19.17.46,28.7,4.2,2.78,10,2.18,15,2.31,5.88-.15,12.07.55,17.66-1.35,1.34-9.44.16-19,.61-28.46-.31-3.25,1.18-7.9-3.37-9.62A160.41,160.41,0,0,0,361.33,56m88.89,3.67c-1.57,5.45-.83,11.1-1,16.64.14,6.18-1.16,12.75,2.75,18.4a167.46,167.46,0,0,0,24.54.67c3,0,6.26-1.47,6.78-4,1.52-6.51.07-13.16.12-19.74-.09-3.84.49-7.71-.33-11.51a5.45,5.45,0,0,0-5.51-4.24,177.8,177.8,0,0,0-22.5.07,5,5,0,0,0-4.94,3.74m92.28,1.62c-.53,8.15-.05,16.32-.29,24.47.11,3-.5,6.81,3.09,8.72,3.75,1.58,8.2.81,12.27,1,5.89-.26,12.16.74,17.75-1.2,2.44-8.21.56-16.71.91-25-.25-4.58,1.4-9.82-2.72-13.58-8.12.12-16.24-.45-24.34.19-3.5,0-6.69,2.59-6.64,5.42m279.06-3.73c.06,7-1.53,14.07-.49,21.1.71,5.16-.17,10.41,1,15.53,10.25,2.44,21.35,1.34,31.84.46,1.55-8,.82-16.13,1-24.21-.13-5,.75-10.69-3.59-14.8-9.88.92-20.59-1.92-29.75,1.92m375-1.55a4.23,4.23,0,0,0-3.71,3.89c-.67,4.68-.11,9.41-.32,14.12-.12,5.42-1.39,10.82-.71,16.25a5.59,5.59,0,0,0,5.47,5c7.23.38,14.52.24,21.78.1,2.91.06,6.72-1.26,6.63-4,.49-10.08.32-20.19.14-30.28.33-2.7-2.24-5.39-5.7-5.26-7.82-.21-15.75-.52-23.57.19m93.93-.07c-2.57.16-4.88,1.84-5.11,3.94-.87,5.85-.09,11.75-.29,17.62,0,5.61-.79,11.42,1.47,16.85,4.2,1.6,9,1,13.49,1.16,5.94-.16,12.13.54,17.87-1.14,2-6.29.61-12.83.72-19.23-.14-4.7.7-9.4.22-14.08a5.84,5.84,0,0,0-6.08-5.2,192.78,192.78,0,0,0-22.29.08m-1675.79,4c-.8,7.38,0,14.82-.33,22.24.2,3.75-.48,7.72,1.08,11.34,2.68,1.88,6.4,1.9,9.75,2A175.21,175.21,0,0,0-353,94.76c1.74-6.46.78-13.11,1-19.65-.1-6,.49-12-.5-18-8.08-2.27-16.81-1.13-25.18-1.28-3.34-.23-7.4,1-7.6,4.1m186.14-3.65c-1.68,8.56-.63,17.25-1,25.87.12,3.41-.45,6.94.77,10.24,1.23,2.74,5.31,3.06,8.39,3.07,6.74,0,13.51.34,20.21-.32,5.25-.81,4.59-6.14,4.68-9.4-.83-9,0-17.92-.59-26.86.16-2.37-3-3.06-5.35-3-9-.18-18.11-.29-27.12.4m372.12.3c-2.84,3.75-2.09,8.44-2.15,12.66.84,8.47-1.13,17.12,1.8,25.43a162.84,162.84,0,0,0,25.85.61c3.2-.16,7.07-1.78,6.47-4.85.07-9.18-.43-18.39.23-27.57.4-2.92-.65-7-5.21-6.91-9,0-18.17-.92-27,.63m94-.14c-3,1.34-2.25,4.58-2.56,6.9.23,9.39-.31,18.8.24,28.18-.29,3.4,4.4,4.09,7.61,3.93,8-.17,16.25.65,24.16-.76,2.56-4.26,1.38-9.17,1.48-13.73-.42-7.24,1-14.54-.43-21.73-.9-3.34-5.76-3.56-9.15-3.45-7.16.21-14.46-.62-21.41.66m369,0c-.79,9.35.57,18.72-.39,28.06.22,3.29-.79,7.38,2.24,10,9.58,1.79,19.7,1,29.42.23a19.64,19.64,0,0,0,1.94-12.57c-1.5-7.37,1.73-14.8-.11-22.14-.67-1.77-1.72-4.11-4.49-4a201,201,0,0,0-28.61.45m94.18.06c-1.86,2.36-1.65,5.28-1.78,8,0,6.67.17,13.35-.22,20,.1,2.79-.52,5.86,1.2,8.42,2.61,3.15,7.95,2.35,12,2.57,6.4-.2,13.12.65,19.24-1.29,2.1-2.48,1.4-5.68,1.61-8.52-.28-8.61.24-17.21-.2-25.81-.05-3.13-4.36-4.28-7.55-4.06-8.08.16-16.31-.7-24.24.7m183.33,8c.84,8.62-.5,17.27.43,25.87,0,2.92,3.3,5.13,6.8,5,7.23.15,14.55.47,21.74-.32,4.87-.35,4.85-5.13,4.95-8.11-.34-10.17.73-20.4-.82-30.52-9.05-.92-18.21-.7-27.29-.51-5.66-.36-5.71,5.35-5.76,8.6m93.05,0c.36,9.33-.72,18.76,1.06,28,.17,2.39,3.61,2.39,5.8,2.76a180.25,180.25,0,0,0,25.67-.43,105.19,105.19,0,0,0,.17-38.35,165.23,165.23,0,0,0-28.57-.33c-4.74.72-4,5.43-4.17,8.32m93,.06c.57,10.09-.5,20.24,1.07,30.27,10.72.94,21.68,1.17,32.35-.37.68-10.37.25-20.75.39-31.13,0-2.65,0-6.55-4.17-7.13-8.11-.74-16.33-.41-24.46-.26-5.72-.32-5.2,5.5-5.25,8.62M-497.51,114.19c0,88.21-.32,176.44.19,264.65q218.1-.15,436.21,0c1-14.73.25-29.49.46-44.23V124.44c0-3.42-.23-6.84-.44-10.25-12.41.25-24.8-.29-37.19-.2-20.76-.14-41.5.64-62.24.05-30.42-.18-60.81.63-91.22,0q-86.85-.06-173.7,0c-24,.38-48.05.25-72.07.18m463.15,0c-.11,88.22-.23,176.46.2,264.68q218.21-.18,436.45,0c.85-9.26.34-18.53.47-27.81,1.36-31.3.46-62.65.69-94-1.9-30.51.43-61,0-91.54.13-17.11,0-34.22-1.19-51.31-29.82-.28-59.65-.2-89.47-.21-86.38.09-172.75-.23-259.11.24-29.39-.61-58.74.05-88.08-.07m464.25,0c-.79,21.39-.12,42.81-.34,64.21V298.21c.2,26.76-.42,53.53.33,80.28,77.74.44,155.48.07,233.22.2,66.59,0,133.18.07,199.77-.05,5,.7,4.73-3.63,4.81-6.43-.31-74.37.21-148.76-.09-223.14-.44-11.63.59-23.27-.78-34.88-28.83.24-57.64-.4-86.47-.18-74.3.2-148.61.43-222.92,0-42.46-.21-85,.37-127.48.21m464.44,0c-.75,33.93.2,67.89-.56,101.82,0,54.34,0,108.65.54,163q36.36-.08,72.75,0c21.21,1,42.46.35,63.69.54,21.72-.19,43.46.47,65.14-.55q39.09,0,78.17,0c32.82.2,65.65-.51,98.43.56,19.28.34,38.52-.76,57.8-.63,1.33-11.2.36-22.48.65-33.71-.27-77,.62-154-.58-231-90.7,0-181.4-.37-272.1-.21-54.66-.18-109.32.51-164,.18m-1368.38,288a4.7,4.7,0,0,0-4,5.16c-.15,6.9-.33,13.82-.47,20.72.23,3.88-.24,8,1.7,11.61,5.82,2.78,13.05,1.8,19.52,2.06,4.39-.06,10.92.09,12.28-4.24,1.24-8.42.21-17,.6-25.42,0-3.54.61-8.79-4.83-9.89a153.74,153.74,0,0,0-24.84,0m91.66.25c-4.52,2.83-3,8-3.32,12,.51,8.46-1,17.08,1.13,25.41,7.07,2.8,15.29,1.67,22.87,1.78,3.83-.07,10.05-.75,9.54-4.93.24-10.78.22-21.6-.1-32.38-.92-.78-1.85-1.54-2.77-2.3-9.08,0-18.38-1-27.35.4m93.63-.2c-3.85,1-4.52,4.7-4.46,7.5,0,7.81-.1,15.63.09,23.44.17,2.83.34,6.78,4.6,7.55a83.65,83.65,0,0,0,27.3-.13c2.8-3.52,2.18-8,2.46-12-.28-8.06.73-16.21-1.08-24.18-.58-3-5-2.44-7.74-2.63-7.06.09-14.18-.38-21.17.48m88.63,6.28c0,8.65-.16,17.32.07,26,.28,2.37.27,5.84,3.85,6.53,7,1.19,14.17.63,21.25.59,3.25-.11,8.18-.47,8.53-3.84.91-6.19-.71-12.43.16-18.64.72-5.78.84-11.69-1.54-17.24-9.07.05-18.17-.44-27.22.11-3.81.25-5.36,3.82-5.1,6.51m95.62-6.12c-3.93,3.54-2.3,8.88-2.73,13.25.57,8.34-1.2,16.87,1.17,25.07a92.76,92.76,0,0,0,31.75-.51c1.51-9.73.8-19.55,1-29.32a12.48,12.48,0,0,0-3.17-9c-9.3.35-18.82-.93-28,.52m93.67-.21c-3.41,1.34-3.56,4.87-3.79,7.53-.39,7.46-.23,14.93-.21,22.4.24,3,0,7.3,4.24,8.59,4.84,1.3,10.06,1,15.08,1.05,4.56-.13,9.6.06,13.52-2.18,1.25-2.77,1-5.78,1.1-8.66,0-8.88,1-17.83-.78-26.64-.45-2.51-4.23-2.29-6.56-2.4-7.53.05-15.13-.55-22.6.31M81.63,402c-.92.79-1.85,1.58-2.78,2.35-.37,10.06.31,20.14-.71,30.19,0,2.57.58,6.51,4.66,6.72,7.12.77,14.39.55,21.57.37,3.44,0,8.54-1.34,8-4.86.08-9.4,0-18.8,0-28.2.27-2.8-1.32-6.63-5.47-6.56-8.39-.46-16.89-.12-25.33,0m90,2.38c-.65,3.74-.29,7.52-.46,11.27-.21,7.92-1.4,16,1,23.81,4.16,2.6,9.79,2.09,14.74,2.32,5.63-.2,11.94.61,16.92-2,1.69-3.12,1.43-6.63,1.34-10-.55-8.64,0-17.29,0-25.94-5.8-3.29-13.19-1.61-19.77-2-4.63.23-10.55-.83-13.79,2.57M267,402.15l-1.16.18c-2.91,5.61-1,12-1.49,18,.53,6.43-1.31,13.24,1.07,19.43,6.27,3.21,14.3,1.65,21.34,1.82,3.75-.43,10.08,0,10.72-4.08,1.06-8.82-.26-17.75.38-26.62-.22-3,.73-8.15-4.21-8.8a201,201,0,0,0-26.66.07m89.76,5.31c-.21,10.54.13,21.08-.1,31.61,6.54,4,15.12,2.31,22.72,2.63,3.65-.28,9.31.49,10.77-3.13,3.35-8.66-.73-17.66.21-26.5-.34-3.28,1.21-7.82-3-9.87-8.39-.78-16.93-.46-25.39-.26a4.88,4.88,0,0,0-5.3,5.52m97-5.28a3.84,3.84,0,0,0-3.43,3c-2,6.88-1,14-1.24,21,.11,4-.55,8.2.84,12.15,1.39,3.53,6.75,3.12,10.4,3.35,6.92-.2,14.17.79,20.87-1,3.09-2.57,2.42-6.5,2.63-9.77-.25-7.47.25-14.94-.23-22.39-.31-2.44-.89-6.16-4.67-6.46a181.44,181.44,0,0,0-25.11.11m90.68-.22c-4.17,9.65-1.52,20.09-2.28,30.11.49,3-1.13,8.42,3.92,9.05,7.07,1,14.32.58,21.47.48,2.76-.29,7.17-.08,7.92-2.93,1.55-6.44.3-13,.51-19.52-.19-4.92.63-9.93-.55-14.78-.61-1.84-3-2.48-5.11-2.46-8.6-.36-17.25-.06-25.89,0m92.59-.07a16.45,16.45,0,0,0-1.65,11.35c1.45,8.75-1.38,17.65,1,26.32,1.92,1.74,5,1.83,7.71,2a148.74,148.74,0,0,0,17.41-.19c2.77-.31,6.54-1,7-3.72,1.6-5.3.62-10.82.7-16.21-.29-5.06.64-10.17-.29-15.21-.41-2.48-3.16-4.29-6.18-4.3-8.55-.45-17.14-.1-25.74-.08m93.62.68c-3.82,4.86-2.37,11.11-2.47,16.59.84,6.79-.9,13.73.9,20.44,3.4,2.16,8,2,12.07,2.12,5.25,0,10.54.24,15.74-.42,1.66-.28,4-.91,4.21-2.52,1.14-4.92.45-10,.58-14.93-.23-7.32,1-14.83-1.75-21.94-9.73.29-19.82-1.11-29.29.66m95.06-.41c-2,.27-4.28,1.31-4.31,3.16-.8,5.37.29,10.79-.27,16.18-.64,5.95-.94,12.05.89,17.91,5,3,11.75,2.09,17.63,2.32,4.47-.28,9.83.36,13.43-2.27,2.35-3.29,1.51-7.28,1.7-10.91-.31-7.42.38-14.86-.28-22.25-.26-3.08-4.42-4.36-7.68-4.37a162.12,162.12,0,0,0-21.16.23m91.26.07c-3.78,1.34-3.28,5.8-3.62,8.65.51,7.47.2,14.94,0,22.42.4,2.78-.21,7.59,4.69,7.78a104.56,104.56,0,0,0,25.25-.09c4.11-.84,3.8-5,4-7.69-.11-8.66.09-17.31,0-25.95.15-2.85-2.76-5.7-6.43-5.47-8-.13-16.05-.46-24,.35m89.91,4.23c-.84,8.14-.2,16.33-.45,24.49a19.11,19.11,0,0,0,2.58,10.16c9.74.43,19.84,1.51,29.41-.52,3-3.06,2-7.24,2.25-10.86-.32-7.76.45-15.56-.4-23.3-.05-2.8-3.52-4.62-6.73-4.51-7.11-.23-14.28-.38-21.39.1-2.83.05-5.25,2.12-5.19,4.44m95.21-4.51-2.76,2.37c.06,11.7-.87,23.47.51,35.11,2.92,1.9,6.81,2.1,10.41,2.24,7.61.18,15.35.33,22.7-1.5a315.43,315.43,0,0,0-.09-35.86c-.95-.76-1.89-1.52-2.79-2.28-9.32-.34-18.63-.33-28-.08m92.18,0c-2.92,5.84-1.56,12.25-1.79,18.37.18,6.54-.6,13.14.54,19.66,2.41,1.44,5.53,1.49,8.43,1.65,8,.18,16.29.46,24.13-1.43,1.14-10.55,0-21.12.27-31.69-.21-2.07.25-4.75-2.25-6-9.57-2.32-19.61-.4-29.34-.55m93.21.23c-4.59,3.19-3.4,9-3.75,13.48.33,8.51-1.2,17.42,3.23,25.45a194.33,194.33,0,0,0,24.61.41c2.37-.22,5.9-.52,6.51-2.86,1.71-7.21.31-14.57.56-21.84-.17-5,1.2-10.54-2.76-14.85-9.47,0-19-.65-28.41.21Z"/><path d="M453.89,272.32a18.71,18.71,0,0,1-7.65-1.54,17.71,17.71,0,0,1-6-4.32,19.94,19.94,0,0,1-3.94-6.64,24.84,24.84,0,0,1-1.41-8.54,24.49,24.49,0,0,1,1.41-8.5,20,20,0,0,1,3.94-6.62,17.71,17.71,0,0,1,6-4.32,18.87,18.87,0,0,1,7.65-1.54h6.87v4.22h-6.87a15.46,15.46,0,0,0-6.14,1.2,14.06,14.06,0,0,0-4.85,3.4,15.44,15.44,0,0,0-3.18,5.29,19.72,19.72,0,0,0-1.14,6.87,20,20,0,0,0,1.14,6.9,15.3,15.3,0,0,0,3.18,5.32,13.92,13.92,0,0,0,4.85,3.4,15.46,15.46,0,0,0,6.14,1.2h6.87v4.22Zm0-6.61a13.37,13.37,0,0,1-5.19-1,12,12,0,0,1-4.19-2.87,13.41,13.41,0,0,1-2.78-4.53,17,17,0,0,1-1-6,16.81,16.81,0,0,1,1-5.95,13.36,13.36,0,0,1,2.78-4.54,12.14,12.14,0,0,1,4.19-2.87,13.37,13.37,0,0,1,5.19-1h6.87v4.22h-6.87a9.34,9.34,0,0,0-6.77,2.52q-2.61,2.52-2.61,7.62t2.61,7.65a9.25,9.25,0,0,0,6.77,2.56h6.87v4.22Z"/><path d="M464.85,230.3h3.85v42h-3.85Zm9.77,42h-3.78v-42h3.78Z"/><path d="M479.6,247.25a22.6,22.6,0,0,1,1.1-7.34,15.44,15.44,0,0,1,3.15-5.51,13.73,13.73,0,0,1,4.94-3.5,17.74,17.74,0,0,1,13,0,13.86,13.86,0,0,1,5,3.5,15.75,15.75,0,0,1,3.15,5.51,22.87,22.87,0,0,1,1.1,7.34v25.07h-3.84V247.25a16.82,16.82,0,0,0-.95-5.92,11.72,11.72,0,0,0-2.55-4.16,10.45,10.45,0,0,0-3.75-2.46,12.9,12.9,0,0,0-4.6-.82,13.15,13.15,0,0,0-4.63.82,10.4,10.4,0,0,0-3.78,2.46,11.72,11.72,0,0,0-2.55,4.16,16.83,16.83,0,0,0-.94,5.92v25.07H479.6Zm5.92,0a14.54,14.54,0,0,1,.75-4.92,9.58,9.58,0,0,1,2.08-3.43,8,8,0,0,1,3.12-2,11.45,11.45,0,0,1,3.81-.63,11.11,11.11,0,0,1,3.78.63,8,8,0,0,1,3.09,2,9.58,9.58,0,0,1,2.08,3.43,14.54,14.54,0,0,1,.75,4.92v25.07H501.2V247.25c0-2.44-.54-4.23-1.63-5.39a5.66,5.66,0,0,0-4.29-1.73,5.73,5.73,0,0,0-4.31,1.73c-1.12,1.16-1.67,2.95-1.67,5.39v25.07h-3.78Z"/><path d="M515.88,272.32v-42h19.28v4.22H519.73V268.1H535.1v4.22Zm5.92-22.49V236.92h13.36v4.22h-9.51v4.47h9.2v4.22Zm0,15.88V252.22h13.05v4.23h-9.2v5h9.45v4.22Z"/><path d="M538.75,247.25a22.87,22.87,0,0,1,1.1-7.34A15.75,15.75,0,0,1,543,234.4a13.86,13.86,0,0,1,5-3.5,16.43,16.43,0,0,1,6.49-1.23,14.08,14.08,0,0,1,6.46,1.39,12.25,12.25,0,0,1,4.31,3.46,11,11,0,0,1,4.29-3.46,14.65,14.65,0,0,1,6.55-1.39,16.5,16.5,0,0,1,6.49,1.23,13.73,13.73,0,0,1,4.94,3.5,15.44,15.44,0,0,1,3.15,5.51,22.6,22.6,0,0,1,1.1,7.34v25.07h-3.84V247.25a16.83,16.83,0,0,0-.94-5.92,11.6,11.6,0,0,0-2.56-4.16,10.5,10.5,0,0,0-3.74-2.46,12.9,12.9,0,0,0-4.6-.82,10.33,10.33,0,0,0-3.37.57,11.1,11.1,0,0,0-3.09,1.61,12.17,12.17,0,0,0-2.55,2.52,11.6,11.6,0,0,0-1.77,3.24,14.74,14.74,0,0,0-3.93-5.76,10.14,10.14,0,0,0-6.9-2.18,13.15,13.15,0,0,0-4.63.82,10.4,10.4,0,0,0-3.78,2.46,11.72,11.72,0,0,0-2.55,4.16,16.82,16.82,0,0,0-1,5.92v25.07h-3.78Zm21.61,0a10.26,10.26,0,0,0-.47-3.31,6,6,0,0,0-1.29-2.2,4.83,4.83,0,0,0-1.89-1.23,6.84,6.84,0,0,0-2.27-.38,5.75,5.75,0,0,0-4.32,1.73c-1.11,1.16-1.67,2.95-1.67,5.39v25.07h-3.78V247.25a14.53,14.53,0,0,1,.76-4.92,9.44,9.44,0,0,1,2.08-3.43,8,8,0,0,1,3.12-2,11.36,11.36,0,0,1,3.81-.63,12,12,0,0,1,3.78.59,8.11,8.11,0,0,1,3.08,1.89,8.78,8.78,0,0,1,2.08,3.38,14.82,14.82,0,0,1,.76,5.1v25.07h-3.78Zm5.92,0a14.29,14.29,0,0,1,.76-4.92,9.44,9.44,0,0,1,2.08-3.43,8,8,0,0,1,3.12-2,11.36,11.36,0,0,1,3.81-.63,11.19,11.19,0,0,1,3.78.63,8.08,8.08,0,0,1,3.08,2,9.31,9.31,0,0,1,2.08,3.43,14.29,14.29,0,0,1,.76,4.92v25.07H582V247.25c0-2.44-.55-4.23-1.64-5.39a5.64,5.64,0,0,0-4.28-1.73,5.11,5.11,0,0,0-4.48,2.05,8.57,8.57,0,0,0-1.44,5.07v25.07h-3.85Z"/><path d="M599.61,272.32h-3.78V247.25a22.87,22.87,0,0,1,1.1-7.34,15.75,15.75,0,0,1,3.15-5.51,13.77,13.77,0,0,1,4.95-3.5,17.71,17.71,0,0,1,13,0,13.77,13.77,0,0,1,5,3.5,15.75,15.75,0,0,1,3.15,5.51,22.87,22.87,0,0,1,1.1,7.34v25.07h-3.84V247.25a16.82,16.82,0,0,0-1-5.92,11.72,11.72,0,0,0-2.55-4.16,10.45,10.45,0,0,0-3.75-2.46,12.85,12.85,0,0,0-4.59-.82,13.11,13.11,0,0,0-4.63.82,10.4,10.4,0,0,0-3.78,2.46,11.6,11.6,0,0,0-2.56,4.16,16.83,16.83,0,0,0-.94,5.92Zm21.61-17.76H601.75v-7.31a14.29,14.29,0,0,1,.76-4.92,9.31,9.31,0,0,1,2.08-3.43,8,8,0,0,1,3.11-2,11.47,11.47,0,0,1,3.82-.63,11.19,11.19,0,0,1,3.78.63,8.08,8.08,0,0,1,3.08,2,9.44,9.44,0,0,1,2.08,3.43,14.29,14.29,0,0,1,.76,4.92Zm-3.78,17.76v-11.4H605.53v11.4h-3.78V257h19.47v15.37Zm0-21.61v-3.46c0-2.44-.55-4.23-1.64-5.39a5.64,5.64,0,0,0-4.28-1.73,5.74,5.74,0,0,0-4.32,1.73c-1.11,1.16-1.67,2.95-1.67,5.39v3.46Z"/><path d="M693.57,245.74V250H682.1v-4.22ZM682.1,256.51v-4.22h11.47v4.22Z"/><path d="M746.83,246.18v26.14H734.74a18.72,18.72,0,0,1-7.66-1.54,17.71,17.71,0,0,1-6-4.32,19.75,19.75,0,0,1-3.93-6.64,24.6,24.6,0,0,1-1.42-8.54,24.26,24.26,0,0,1,1.42-8.5,19.86,19.86,0,0,1,3.93-6.62,17.71,17.71,0,0,1,6-4.32,18.89,18.89,0,0,1,7.66-1.54h12.09v4.22H734.74a15.47,15.47,0,0,0-6.15,1.2,14.15,14.15,0,0,0-4.85,3.4,15.76,15.76,0,0,0-3.18,5.29,19.73,19.73,0,0,0-1.13,6.87,20,20,0,0,0,1.13,6.9,15.61,15.61,0,0,0,3.18,5.32,14,14,0,0,0,4.85,3.4,15.47,15.47,0,0,0,6.15,1.2h8.31V250.4H732.34v-4.22Zm-12.09,19.53a13.42,13.42,0,0,1-5.2-1,12,12,0,0,1-4.19-2.87,13.24,13.24,0,0,1-2.77-4.53,16.82,16.82,0,0,1-1-6,16.58,16.58,0,0,1,1-5.95,13.19,13.19,0,0,1,2.77-4.54,12.14,12.14,0,0,1,4.19-2.87,13.42,13.42,0,0,1,5.2-1h12.09v4.22H734.74a9.35,9.35,0,0,0-6.78,2.52q-2.61,2.52-2.61,7.62t2.61,7.65a9.26,9.26,0,0,0,6.78,2.56h2.39v-5h-4.79v-4.23h8.51v13.49Z"/><path d="M769.89,272.32a18.79,18.79,0,0,1-7.66-1.54,17.67,17.67,0,0,1-6-4.32,19.94,19.94,0,0,1-3.94-6.64,24.84,24.84,0,0,1-1.42-8.54,24.49,24.49,0,0,1,1.42-8.5,20,20,0,0,1,3.94-6.62,17.67,17.67,0,0,1,6-4.32,19,19,0,0,1,7.66-1.54h1.51a19,19,0,0,1,7.66,1.54,17.67,17.67,0,0,1,6,4.32,20,20,0,0,1,3.94,6.62,24.49,24.49,0,0,1,1.42,8.5,24.84,24.84,0,0,1-1.42,8.54,19.94,19.94,0,0,1-3.94,6.64,17.67,17.67,0,0,1-6,4.32,18.79,18.79,0,0,1-7.66,1.54Zm-15.31-21a20.22,20.22,0,0,0,1.13,6.9,15.47,15.47,0,0,0,3.19,5.32,13.92,13.92,0,0,0,4.85,3.4,15.39,15.39,0,0,0,6.14,1.2h1.51a15.31,15.31,0,0,0,6.08-1.2,13.92,13.92,0,0,0,4.85-3.4,15.3,15.3,0,0,0,3.18-5.32,20,20,0,0,0,1.14-6.9,19.72,19.72,0,0,0-1.14-6.87,15.44,15.44,0,0,0-3.18-5.29,14.06,14.06,0,0,0-4.85-3.4,15.31,15.31,0,0,0-6.08-1.2h-1.51a15.39,15.39,0,0,0-6.14,1.2,14.06,14.06,0,0,0-4.85,3.4,15.62,15.62,0,0,0-3.19,5.29A20,20,0,0,0,754.58,251.28Zm15.31,14.49a13.46,13.46,0,0,1-5.2-1,11.91,11.91,0,0,1-4.19-2.9,13.73,13.73,0,0,1-2.77-4.56,17,17,0,0,1-1-6,16.8,16.8,0,0,1,1-5.95,13.68,13.68,0,0,1,2.77-4.57,11.91,11.91,0,0,1,4.19-2.9,13.46,13.46,0,0,1,5.2-1h1.51a13.24,13.24,0,0,1,5.17,1,12.07,12.07,0,0,1,4.16,2.9,13.84,13.84,0,0,1,2.77,4.57,16.81,16.81,0,0,1,1,5.95,17,17,0,0,1-1,6,13.9,13.9,0,0,1-2.77,4.56,12.07,12.07,0,0,1-4.16,2.9,13.24,13.24,0,0,1-5.17,1Zm1.51-4.22a9.22,9.22,0,0,0,6.77-2.58q2.63-2.6,2.62-7.69t-2.65-7.62a9.26,9.26,0,0,0-6.74-2.59h-1.51a9.25,9.25,0,0,0-6.77,2.56q-2.62,2.55-2.62,7.65t2.62,7.69a9.22,9.22,0,0,0,6.77,2.58Z"/><path d="M794.52,272.32v-42H813.8v4.22H798.36V268.1h15.38v4.22Zm5.92-22.49V236.92H813.8v4.22h-9.51v4.47h9.19v4.22Zm0,15.88V252.22h13v4.23h-9.19v5h9.45v4.22Z"/><path d="M830.75,234.52q-9.59,0-9.58,10.52v27.28h-3.78V245q0-7.11,3.53-10.93t9.83-3.81h7.87v4.22Zm0,6.62a3.91,3.91,0,0,0-2.93.85,4.47,4.47,0,0,0-.79,3v27.28h-3.84V245q0-4.47,2-6.3a8,8,0,0,1,5.52-1.82h7.87v4.22Z"/><path d="M842,265.71v-4.22H856.7a2.5,2.5,0,0,0,1.8-.7,2.66,2.66,0,0,0,.72-2,2.4,2.4,0,0,0-.82-2,2.66,2.66,0,0,0-1.7-.66h-3.21a12.81,12.81,0,0,1-5-.94,12,12,0,0,1-3.94-2.65,12.15,12.15,0,0,1-2.61-4.09,14.32,14.32,0,0,1-1-5.3,14.92,14.92,0,0,1,.89-5.26,11.77,11.77,0,0,1,2.48-4.06,11.07,11.07,0,0,1,3.85-2.62,13.31,13.31,0,0,1,5-.91h14.3v4.22h-14.3a8.27,8.27,0,0,0-6.15,2.33,8.61,8.61,0,0,0-2.3,6.3,9.32,9.32,0,0,0,.67,3.63,8,8,0,0,0,1.82,2.74,8.35,8.35,0,0,0,2.77,1.76,9.38,9.38,0,0,0,3.44.63h3a5.94,5.94,0,0,1,2.46.54,7.39,7.39,0,0,1,2.14,1.44,7.69,7.69,0,0,1,1.55,2.18,6.35,6.35,0,0,1,.59,2.71,6.94,6.94,0,0,1-1.86,4.94,6,6,0,0,1-4.63,2Zm0,6.61V268.1h14.74a10,10,0,0,0,3.56-.63,7.93,7.93,0,0,0,2.87-1.83,8.53,8.53,0,0,0,1.89-2.89,10.37,10.37,0,0,0,.69-3.91,9.91,9.91,0,0,0-.75-3.91,8.76,8.76,0,0,0-2-3,9.76,9.76,0,0,0-3-1.86,9.42,9.42,0,0,0-3.5-.66h-3a6.21,6.21,0,0,1-4.35-1.67,5.86,5.86,0,0,1-1.83-4.56,6.5,6.5,0,0,1,1.58-4.6,5.61,5.61,0,0,1,4.35-1.7h14.3v4.22H853.36a1.87,1.87,0,0,0-1.6.63,2.32,2.32,0,0,0-.48,1.45,2.07,2.07,0,0,0,.57,1.44,1.91,1.91,0,0,0,1.51.64h3.15a13.12,13.12,0,0,1,5.07,1,12.41,12.41,0,0,1,4.13,2.77,12.94,12.94,0,0,1,2.77,4.29,14.57,14.57,0,0,1,1,5.51,15.18,15.18,0,0,1-1,5.51,12.47,12.47,0,0,1-2.64,4.26,12,12,0,0,1-4,2.74,13.14,13.14,0,0,1-5.11,1Z"/><path d="M675.11,238l-.08-.09a2.42,2.42,0,0,0-3.71.19l-3.7,4.92a.46.46,0,0,1-.76,0L660,236.44a2.79,2.79,0,0,0-2-.79l-8.26.41a.59.59,0,0,0-.44.21l-6.58,8.19a3.72,3.72,0,0,0,.07,4.37,2.32,2.32,0,0,0,1.94.88,2.35,2.35,0,0,0,1.85-1.07l4.61-6.4,1.75-.08-10.76,15.72-7.12.36a3.34,3.34,0,0,0-3,3.54,3.65,3.65,0,0,0,1,2.63,3.1,3.1,0,0,0,2.25,1l10.6-.53a.64.64,0,0,0,.52-.3l5.11-7.13,4.83,5.38-.84,10.4a3.85,3.85,0,0,0,1.87,4.11,2.43,2.43,0,0,0,1.31.29,2.64,2.64,0,0,0,1.35-.43,3.69,3.69,0,0,0,1.47-2.48l1.59-15a1.38,1.38,0,0,0-.26-.79l-6.66-7.07,4.7-6.13,4.77,4.77a2.35,2.35,0,0,0,3.64-.19l6.13-8A3.47,3.47,0,0,0,675.11,238Zm-.91,3.08-6.13,8a1,1,0,0,1-1.51.08l-5.33-5.37a.66.66,0,0,0-1.06.05l-5.71,7.43a.88.88,0,0,0-.19.64,1,1,0,0,0,.34.7l6.9,7.33L660,274.39a2.34,2.34,0,0,1-.78,1.2,1.33,1.33,0,0,1-1.29.07,2.07,2.07,0,0,1-.94-2.19l.89-10.94a1.11,1.11,0,0,0-.26-.7l-5.71-6.32a.66.66,0,0,0-.55-.24.54.54,0,0,0-.51.3l-5.4,7.5-10.3.52a1.47,1.47,0,0,1-1.17-.48,2.5,2.5,0,0,1-.44-1.32,1.65,1.65,0,0,1,1.58-1.77l7.42-.38c.23,0,.38-.1.53-.11l12-17.57a1.14,1.14,0,0,0,.1-1,.67.67,0,0,0-.71-.5l-3.79.19a.77.77,0,0,0-.51.29l-4.83,6.68a.91.91,0,0,1-.74.48,1.17,1.17,0,0,1-.85-.4,1.56,1.56,0,0,1,0-1.88l6.36-7.91,8-.4a1.27,1.27,0,0,1,.93.4l6.91,6.62a1.89,1.89,0,0,0,2.88-.23l3.7-4.92a1,1,0,0,1,1.52-.08l.08.09A1.4,1.4,0,0,1,674.2,241.09Z"/><path class="cls-5" d="M696.19,265.76l15.5-14-15.5-15Z"/><path d="M670.84,237h7.59a.65.65,0,0,0,.65-.65v-1.91l4.16,2.23a.54.54,0,0,0,.3.08.63.63,0,0,0,.33-.09.65.65,0,0,0,.32-.55v-9.17a.65.65,0,0,0-.32-.55.62.62,0,0,0-.63,0l-4.16,2.24v-1.92a.65.65,0,0,0-.65-.65h-1a5.77,5.77,0,1,0-9.24-5.83,4.34,4.34,0,1,0-6.43,5.83h-.59a.65.65,0,0,0-.64.65v2.92h-1.63a.64.64,0,0,0-.64.64v2.53a.64.64,0,0,0,.64.64h1.63v2.92a.65.65,0,0,0,.64.65h7.59m1.06.75-9.29-5.6h-1v-1.25h1ZM673.76,217a4.48,4.48,0,1,1-4.48,4.48A4.49,4.49,0,0,1,673.76,217Zm-4.91,7.5a5.77,5.77,0,0,0,1.28,1.46h-2.24A4.36,4.36,0,0,0,668.85,224.54Zm-4-4.66a3.06,3.06,0,1,1-3.07,3.06A3.07,3.07,0,0,1,664.81,219.88Zm13,9.76v6h-16v-8.37h16ZM682.9,235l-3.82-2.06V230L682.9,228Z"/><path d="M664.81,221a2,2,0,1,0,2,1.95A2,2,0,0,0,664.81,221Zm0,2.75a.8.8,0,1,1,.79-.8A.8.8,0,0,1,664.81,223.74Z"/><path d="M673.76,218.72a2.81,2.81,0,1,0,2.81,2.8A2.8,2.8,0,0,0,673.76,218.72Zm0,4.32a1.52,1.52,0,1,1,1.52-1.52A1.52,1.52,0,0,1,673.76,223Z"/><path d="M671.69,229.16h-7a.61.61,0,0,0-.61.61v3.41a.61.61,0,0,0,.61.61h7a.61.61,0,0,0,.61-.61v-3.41A.61.61,0,0,0,671.69,229.16Zm-.62,3.41H665.3v-2.19h5.77v2.19Z"/><circle cx="675.06" cy="230.42" r="0.64"/><circle cx="675.06" cy="232.53" r="0.64"/><path id="path7494" class="cls-6" d="M1136.14,346l-227.46-3.24.4-28.21L871.17,314,868,535.28a17.63,17.63,0,0,0,17.38,17.88l247.75,3.53A17.63,17.63,0,0,0,1151,539.31l2.5-175.45A17.63,17.63,0,0,0,1136.15,346Z"/><rect id="rect7498" class="cls-1" x="1013.42" y="261.44" width="2.16" height="269.63" transform="translate(603.85 1405.01) rotate(-89.18)"/><rect id="rect7500" class="cls-1" x="1011.65" y="386.2" width="2.16" height="269.63" transform="translate(477.35 1526.22) rotate(-89.18)"/><g id="g7516"><g id="g7518"><g id="g7520"><polygon id="polygon7522" points="866.92 361.99 1157.87 366.14 1158.52 320.15 899.32 316.45 867.22 341.23 867.22 341.23 866.92 361.99"/><g id="g7524"><polygon id="polygon7526" points="867.83 360.51 868.08 342.18 899.49 317.94 1157.61 321.63 1156.99 364.63 1156.99 364.63 867.83 360.51"/><polygon id="polygon7528" class="cls-7" points="920.45 318.24 953.06 318.7 940.99 361.56 940.99 361.56 908.38 361.09 920.45 318.24"/><polygon id="polygon7530" class="cls-8" points="987.46 319.19 1020.08 319.65 1008 362.51 1008 362.51 975.38 362.05 987.46 319.19"/><polygon id="polygon7532" class="cls-9" points="1054.46 320.15 1087.09 320.61 1075.01 363.46 1075.01 363.46 1042.39 363 1054.46 320.15"/><polygon id="polygon7534" class="cls-10" points="1121.46 321.1 1154.09 321.56 1142.02 364.42 1142.02 364.42 1109.39 363.96 1121.46 321.1"/></g></g><g id="g7536"><polygon id="polygon7538" points="865.36 271.03 1155.16 245 1159.28 290.79 901.09 314 867.21 291.72 867.21 291.72 865.36 271.03"/><g id="g7540"><polygon id="polygon7542" points="866.36 272.43 868.01 290.72 901.15 312.5 1158.26 289.4 1154.42 246.55 1154.42 246.55 866.36 272.43"/><polygon id="polygon7544" class="cls-11" points="922.02 310.64 954.52 307.71 939.25 265.9 939.25 265.9 906.76 268.81 922.02 310.64"/><polygon id="polygon7546" class="cls-12" points="988.77 304.63 1021.26 301.71 1006 259.89 1006 259.89 973.5 262.82 988.77 304.63"/><polygon id="polygon7548" class="cls-13" points="1055.51 298.63 1088.01 295.72 1072.74 253.89 1072.74 253.89 1040.25 256.81 1055.51 298.63"/><polygon id="polygon7550" class="cls-14" points="1122.26 292.64 1154.75 289.71 1139.48 247.9 1139.48 247.9 1106.99 250.81 1122.26 292.64"/></g></g></g><g id="g7552"><g id="g7554"><path id="path7565" class="cls-15" d="M956.4,282.47c.07-4.76-4-8.71-9.11-8.79l-64.87-.92c-5.07-.07-9.29,3.76-9.35,8.52l-1,68c-.07,4.76,4,8.72,9.11,8.79l64.86.92c5.09.08,9.29-3.76,9.36-8.52Z"/></g><g id="g7567"><circle id="circle7569" class="cls-16" cx="890.65" cy="289.6" r="3.86"/><polygon id="polygon7571" points="889.43 288.44 891.05 287.96 892.28 289.12 891.89 290.77 890.26 291.25 890.26 291.25 889.03 290.08 889.43 288.44"/><path id="path7573" class="cls-17" d="M892,292.74a2.94,2.94,0,0,1-2.94-.34,4.38,4.38,0,0,0,3.28-.19c.91-.59.23-3.22.87-3.28,1.65-.14.76,3.09-1.21,3.81Z"/><path id="path7575" class="cls-1" d="M890.21,286.13c.22-.07,1,.65.63,1.11s-2.69.61-2.93,1S887.74,286.86,890.21,286.13Z"/></g><g id="g7577"><circle id="circle7579" class="cls-16" cx="893.82" cy="346.71" r="3.86"/><polygon id="polygon7581" points="892.97 345.25 894.66 345.24 895.52 346.7 894.7 348.17 893 348.19 893 348.19 892.13 346.74 892.97 345.25"/><path id="path7583" class="cls-17" d="M894.31,350.1a3,3,0,0,1-2.75-1.14,4.37,4.37,0,0,0,3.21.72c1-.32,1.1-3,1.73-2.91C898.13,347.08,896.39,349.94,894.31,350.1Z"/><path id="path7585" class="cls-1" d="M894.36,343.26c.23,0,.81.91.3,1.25s-2.76-.16-3.09.14S891.78,343.29,894.36,343.26Z"/></g><g id="g7587"><circle id="circle7589" class="cls-16" cx="941.56" cy="347.17" r="3.86"/><polygon id="polygon7591" points="940.68 345.72 942.38 345.71 943.26 347.16 942.41 348.63 940.72 348.66 940.72 348.66 939.86 347.2 940.68 345.72"/><path id="path7593" class="cls-17" d="M942,350.56a3,3,0,0,1-2.74-1.13,4.35,4.35,0,0,0,3.2.71c1-.31,1.11-3,1.74-2.91,1.63.31-.11,3.18-2.2,3.33Z"/><path id="path7595" class="cls-1" d="M942.07,343.73c.24,0,.82.9.31,1.24s-2.76-.15-3.09.14.21-1.36,2.78-1.38Z"/></g></g></g><rect id="rect3986" class="cls-1" x="1012.59" y="319.67" width="2.16" height="269.63" transform="translate(544.8 1461.59) rotate(-89.18)"/><path class="cls-1" d="M879.89,380.87h1.78v9.43h-1.78Zm.81,4.06h3a1,1,0,0,0,.56-.15,1,1,0,0,0,.38-.41,1.34,1.34,0,0,0,.14-.61,1.38,1.38,0,0,0-.14-.62.93.93,0,0,0-.37-.41,1.05,1.05,0,0,0-.57-.15h-3v-1.71h3a3.27,3.27,0,0,1,1.56.36,2.66,2.66,0,0,1,1,1,3.31,3.31,0,0,1,0,3,2.57,2.57,0,0,1-1,1,3.27,3.27,0,0,1-1.56.36h-3Z"/><path class="cls-1" d="M888,380.86h1.78v9.44H888Zm.71,3.93H892a.86.86,0,0,0,.48-.13.89.89,0,0,0,.32-.39,1.77,1.77,0,0,0,.12-.59,1.5,1.5,0,0,0-.11-.58.91.91,0,0,0-.33-.39.85.85,0,0,0-.48-.14h-3.28v-1.71h3.42a2.66,2.66,0,0,1,1.37.35,2.42,2.42,0,0,1,.91,1,3.51,3.51,0,0,1,0,3,2.33,2.33,0,0,1-.91,1,2.61,2.61,0,0,1-1.37.35h-3.42Zm2,1.42,1.9-.3,2.54,4.39H893Z"/><path class="cls-1" d="M897.87,390a3,3,0,0,1-1.21-1.22,3.79,3.79,0,0,1-.43-1.82v-2.67a3.86,3.86,0,0,1,.43-1.83,3.09,3.09,0,0,1,1.21-1.22,4,4,0,0,1,3.61,0,3,3,0,0,1,1.21,1.22,3.75,3.75,0,0,1,.43,1.83v2.67a3.68,3.68,0,0,1-.43,1.82,2.91,2.91,0,0,1-1.21,1.22,4,4,0,0,1-3.61,0Zm2.65-1.55a1.36,1.36,0,0,0,.56-.58,1.86,1.86,0,0,0,.2-.87V384.2a1.86,1.86,0,0,0-.2-.87,1.42,1.42,0,0,0-.56-.58,1.74,1.74,0,0,0-.84-.2,1.81,1.81,0,0,0-.85.2,1.42,1.42,0,0,0-.56.58,1.86,1.86,0,0,0-.19.87V387a1.86,1.86,0,0,0,.19.87,1.36,1.36,0,0,0,.56.58,1.7,1.7,0,0,0,.85.21A1.64,1.64,0,0,0,900.52,388.41Z"/><path class="cls-1" d="M904.87,380.87h1.78v9.43h-1.78Zm.89,7.71H908a2,2,0,0,0,1.35-.42,1.49,1.49,0,0,0,.48-1.19V384.2a1.51,1.51,0,0,0-.48-1.2,2,2,0,0,0-1.35-.42h-2.27v-1.71H908a4.71,4.71,0,0,1,2,.39,2.81,2.81,0,0,1,1.27,1.16,3.59,3.59,0,0,1,.43,1.83v2.67a3.74,3.74,0,0,1-.41,1.78,2.94,2.94,0,0,1-1.26,1.18,4.54,4.54,0,0,1-2,.42h-2.22Z"/><path class="cls-1" d="M914.77,390a2.72,2.72,0,0,1-1.17-1.2,4.06,4.06,0,0,1-.4-1.89v-6H915v6.06a1.74,1.74,0,0,0,.44,1.26,1.61,1.61,0,0,0,1.22.45,1.66,1.66,0,0,0,1.24-.45,1.74,1.74,0,0,0,.43-1.26v-6.06h1.78v6a4.06,4.06,0,0,1-.4,1.89,2.74,2.74,0,0,1-1.18,1.2,4.45,4.45,0,0,1-3.73,0Z"/><path class="cls-1" d="M923.91,390.39l-.77-.41a2.72,2.72,0,0,1-1.17-1.2,4.23,4.23,0,0,1-.4-1.9v-2.59a4.26,4.26,0,0,1,.4-1.9,2.72,2.72,0,0,1,1.17-1.2,3.79,3.79,0,0,1,1.84-.42,3.31,3.31,0,0,1,1.59.38,3.18,3.18,0,0,1,1.16,1.12,4.88,4.88,0,0,1,.63,1.76h-1.84a2.53,2.53,0,0,0-.32-.8,1.61,1.61,0,0,0-.53-.51,1.41,1.41,0,0,0-.69-.17,1.75,1.75,0,0,0-.85.2,1.35,1.35,0,0,0-.53.6,2.25,2.25,0,0,0-.19.94v2.59a2.22,2.22,0,0,0,.19.94,1.27,1.27,0,0,0,.53.59,1.65,1.65,0,0,0,.85.21,1.45,1.45,0,0,0,.7-.17,1.52,1.52,0,0,0,.53-.51,2.23,2.23,0,0,0,.31-.8h1.84a4.77,4.77,0,0,1-.64,1.76,3.05,3.05,0,0,1-1.15,1.11,3.2,3.2,0,0,1-1.59.38Z"/><path class="cls-1" d="M928.68,380.87h6.92v1.71h-6.92Zm2.57.77H933v8.66h-1.78Z"/><path class="cls-1" d="M938.35,390.3H936.5v-9.43h1.85Z"/><path class="cls-1" d="M941.73,390a3,3,0,0,1-1.21-1.22,3.79,3.79,0,0,1-.42-1.82v-2.67a3.86,3.86,0,0,1,.42-1.83,3.09,3.09,0,0,1,1.21-1.22,4,4,0,0,1,3.62,0,3,3,0,0,1,1.2,1.22,3.75,3.75,0,0,1,.43,1.83v2.67a3.68,3.68,0,0,1-.43,1.82,2.88,2.88,0,0,1-1.2,1.22,4,4,0,0,1-3.62,0Zm2.65-1.55a1.31,1.31,0,0,0,.56-.58,1.75,1.75,0,0,0,.2-.87V384.2a1.75,1.75,0,0,0-.2-.87,1.36,1.36,0,0,0-.56-.58,1.86,1.86,0,0,0-1.68,0,1.42,1.42,0,0,0-.56.58,1.75,1.75,0,0,0-.2.87V387a1.75,1.75,0,0,0,.2.87,1.36,1.36,0,0,0,.56.58,1.79,1.79,0,0,0,1.68,0Z"/><path class="cls-1" d="M948.73,380.87h2.18l3.5,7.22-.15.17v-7.39H956v9.42h-2.19l-3.49-7.11.15-.17v7.28h-1.7Z"/><path class="cls-1" d="M970.92,380.87h1.83l2,6.29,2-6.29h1.83l-3.14,9.43h-1.39Z"/><path class="cls-1" d="M979.46,380.87h1.78v1.78h-1.78Zm0,2.7h1.78v6.73h-1.78Z"/><path class="cls-1" d="M984.86,390.39l-.57-.1a5.31,5.31,0,0,1-1.07-.32,4,4,0,0,1-.88-.5l1.1-1.36a4.29,4.29,0,0,0,1,.47,3.1,3.1,0,0,0,1,.17,2.5,2.5,0,0,0,1-.14c.23-.09.35-.22.35-.38a.43.43,0,0,0-.15-.35,1,1,0,0,0-.38-.16l-.66-.09-.24,0-.24,0H985a8.86,8.86,0,0,1-1.21-.24,1.58,1.58,0,0,1-.76-.55,1.89,1.89,0,0,1-.32-1.18,2,2,0,0,1,.33-1.15,2,2,0,0,1,.94-.73,3.87,3.87,0,0,1,1.49-.25,5,5,0,0,1,1,.1,5.2,5.2,0,0,1,1,.3,4.82,4.82,0,0,1,.87.47l-1.06,1.29a3.88,3.88,0,0,0-.92-.38,3.43,3.43,0,0,0-.92-.14,2.34,2.34,0,0,0-.84.12c-.2.09-.3.2-.3.35a.3.3,0,0,0,.16.26,1.34,1.34,0,0,0,.4.14l.69.09h.12l.11,0h.12a8.84,8.84,0,0,1,1.28.23,1.81,1.81,0,0,1,.84.57,2,2,0,0,1,.34,1.26,2,2,0,0,1-1.32,2,4,4,0,0,1-1.56.26Z"/><path class="cls-1" d="M991.56,387.66a1,1,0,0,0,.27.75,1.06,1.06,0,0,0,.78.27,1,1,0,0,0,.76-.27,1.1,1.1,0,0,0,.27-.79l.09,1.47a2,2,0,0,1-.62.93,1.58,1.58,0,0,1-1.07.37,2.07,2.07,0,0,1-1.67-.69,3,3,0,0,1-.59-2v-4.15h1.78Zm2.08-4.09h1.77v6.73h-1.77Z"/><path class="cls-1" d="M997.37,389.88a2.11,2.11,0,0,1-.53-1.57,1.82,1.82,0,0,1,.6-1.49,2.72,2.72,0,0,1,1.8-.5h1.68l.09,1.35h-1.76a1,1,0,0,0-.61.16.6.6,0,0,0-.2.48.55.55,0,0,0,.25.49,1.45,1.45,0,0,0,.77.16,2.61,2.61,0,0,0,1.06-.16.54.54,0,0,0,.35-.51l.13,1a.89.89,0,0,1-.33.62,2.07,2.07,0,0,1-.74.38,3.61,3.61,0,0,1-.94.12A2.28,2.28,0,0,1,997.37,389.88Zm3.5-3.85a.88.88,0,0,0-.32-.72,1.34,1.34,0,0,0-.88-.25,2.34,2.34,0,0,0-.74.12,2.29,2.29,0,0,0-.66.34l-1.1-1.08a2.61,2.61,0,0,1,1.06-.71,3.85,3.85,0,0,1,1.47-.26,3.55,3.55,0,0,1,1.5.29,2.15,2.15,0,0,1,.95.86,2.6,2.6,0,0,1,.33,1.35v4.33h-1.61Z"/><path class="cls-1" d="M1006,388.07a.47.47,0,0,0,.14.38.54.54,0,0,0,.4.13h.29v1.72h-.9a1.67,1.67,0,0,1-1.26-.47,1.82,1.82,0,0,1-.45-1.32v-7.64H1006Z"/><path class="cls-1" d="M1008,380.87h1.77v1.78H1008Zm0,2.7h1.77v6.73H1008Z"/><path class="cls-1" d="M1016.31,385.07l-3,3.61h3.16v1.62h-5.28v-1.53l3.06-3.59h-3v-1.61h5Z"/><path class="cls-1" d="M1018.19,389.88a2.08,2.08,0,0,1-.54-1.57,1.82,1.82,0,0,1,.6-1.49,2.72,2.72,0,0,1,1.8-.5h1.69l.09,1.35h-1.77a.92.92,0,0,0-.6.16.57.57,0,0,0-.21.48.54.54,0,0,0,.26.49,1.41,1.41,0,0,0,.76.16,2.58,2.58,0,0,0,1.06-.16.54.54,0,0,0,.35-.51l.14,1a1,1,0,0,1-.34.62,1.92,1.92,0,0,1-.74.38,3.54,3.54,0,0,1-.93.12A2.25,2.25,0,0,1,1018.19,389.88Zm3.49-3.85a.87.87,0,0,0-.31-.72,1.36,1.36,0,0,0-.88-.25,2.45,2.45,0,0,0-.75.12,2.23,2.23,0,0,0-.65.34l-1.11-1.08a2.65,2.65,0,0,1,1.07-.71,3.83,3.83,0,0,1,1.46-.26,3.63,3.63,0,0,1,1.51.29,2.21,2.21,0,0,1,1,.86,2.7,2.7,0,0,1,.32,1.35v4.33h-1.61Z"/><path class="cls-1" d="M1024.53,383.57h3.29v1.51h-3.29Zm1.1,6.31a1.94,1.94,0,0,1-.41-1.33v-6.94H1027v6.5a.63.63,0,0,0,.09.37.34.34,0,0,0,.29.14h.44v1.71h-.9A1.68,1.68,0,0,1,1025.63,389.88Z"/><path class="cls-1" d="M1029.28,380.87h1.77v1.78h-1.77Zm0,2.7h1.77v6.73h-1.77Z"/><path class="cls-1" d="M1033.85,390.05a2.3,2.3,0,0,1-1-1,3.52,3.52,0,0,1-.34-1.59v-1.09a3.46,3.46,0,0,1,.34-1.57,2.33,2.33,0,0,1,1-1,3.79,3.79,0,0,1,3.14,0,2.26,2.26,0,0,1,1,1,3.34,3.34,0,0,1,.34,1.57v1.11a3.35,3.35,0,0,1-.34,1.58,2.26,2.26,0,0,1-1,1,3.79,3.79,0,0,1-3.14,0Zm2.4-1.68a1.24,1.24,0,0,0,.3-.89v-1.11a1.22,1.22,0,0,0-.3-.88,1.14,1.14,0,0,0-.84-.31,1.09,1.09,0,0,0-.82.31,1.22,1.22,0,0,0-.3.88v1.11a1.29,1.29,0,0,0,.29.89,1.08,1.08,0,0,0,.83.31A1.1,1.1,0,0,0,1036.25,388.37Z"/><path class="cls-1" d="M1040,383.57h1.77v6.73H1040Zm3.88,2.65a1,1,0,0,0-.28-.77,1.09,1.09,0,0,0-.8-.27,1,1,0,0,0-.76.28,1,1,0,0,0-.27.77l-.14-1.49a2.63,2.63,0,0,1,.73-.95,1.76,1.76,0,0,1,1.07-.32,2,2,0,0,1,1.65.72,3.1,3.1,0,0,1,.58,2v4.09h-1.78Z"/><path class="cls-1" d="M1053.76,380.87h1.12l3.61,9.43h-1.91l-2.26-6.44-2.26,6.44h-1.91Zm-1.88,6.2h5v1.72h-5Z"/><path class="cls-1" d="M1061.5,390.39l-.57-.1a5.12,5.12,0,0,1-1.07-.32,3.55,3.55,0,0,1-.88-.5l1.09-1.36a4.68,4.68,0,0,0,1,.47,3.1,3.1,0,0,0,1,.17,2.52,2.52,0,0,0,1-.14c.23-.09.34-.22.34-.38a.43.43,0,0,0-.15-.35,1,1,0,0,0-.38-.16l-.66-.09-.23,0-.25,0h-.11a8.38,8.38,0,0,1-1.2-.24,1.6,1.6,0,0,1-.77-.55,1.89,1.89,0,0,1-.31-1.18,2,2,0,0,1,.32-1.15,2.05,2.05,0,0,1,.94-.73,3.9,3.9,0,0,1,1.49-.25,5,5,0,0,1,1,.1,5.3,5.3,0,0,1,1,.3,4.73,4.73,0,0,1,.86.47l-1.06,1.29a3.88,3.88,0,0,0-.92-.38,3.37,3.37,0,0,0-.92-.14,2.24,2.24,0,0,0-.83.12c-.2.09-.3.2-.3.35a.28.28,0,0,0,.16.26,1.18,1.18,0,0,0,.39.14l.69.09h.12l.12,0h.11a8.59,8.59,0,0,1,1.28.23,1.71,1.71,0,0,1,.84.57,2,2,0,0,1,.35,1.26,2.12,2.12,0,0,1-.34,1.2,2.08,2.08,0,0,1-1,.76,4,4,0,0,1-1.56.26Z"/><path class="cls-1" d="M1068.38,390.39l-.57-.1a5.31,5.31,0,0,1-1.07-.32,4,4,0,0,1-.88-.5l1.1-1.36a4.29,4.29,0,0,0,1,.47,3.1,3.1,0,0,0,1,.17,2.5,2.5,0,0,0,1-.14c.23-.09.35-.22.35-.38a.43.43,0,0,0-.15-.35,1,1,0,0,0-.39-.16l-.65-.09-.24,0-.24,0h-.11a8.86,8.86,0,0,1-1.21-.24,1.53,1.53,0,0,1-.76-.55,1.89,1.89,0,0,1-.32-1.18,2,2,0,0,1,.33-1.15,2,2,0,0,1,.94-.73,3.87,3.87,0,0,1,1.49-.25,5,5,0,0,1,1,.1,5.14,5.14,0,0,1,1.84.77l-1.06,1.29a3.88,3.88,0,0,0-.92-.38,3.43,3.43,0,0,0-.92-.14,2.34,2.34,0,0,0-.84.12c-.2.09-.3.2-.3.35a.3.3,0,0,0,.16.26,1.34,1.34,0,0,0,.4.14l.69.09h.11l.12,0h.12a8.84,8.84,0,0,1,1.28.23,1.81,1.81,0,0,1,.84.57,2,2,0,0,1,.34,1.26,2,2,0,0,1-1.32,2,4,4,0,0,1-1.56.26Z"/><path class="cls-1" d="M1073.2,380.87H1075v1.78h-1.78Zm0,2.7H1075v6.73h-1.78Z"/><path class="cls-1" d="M1077.48,390.05a2.17,2.17,0,0,1-.78-1,4.35,4.35,0,0,1-.26-1.58v-1.07a4.41,4.41,0,0,1,.26-1.59,2.17,2.17,0,0,1,.78-1,2.11,2.11,0,0,1,1.22-.34,1.64,1.64,0,0,1,1,.32,2.22,2.22,0,0,1,.72.91l-.14,1.49a1.43,1.43,0,0,0-.11-.58.94.94,0,0,0-.34-.37,1.15,1.15,0,0,0-.55-.12.92.92,0,0,0-.77.34,1.47,1.47,0,0,0-.28,1v1.07a1.46,1.46,0,0,0,.28.94.94.94,0,0,0,.77.33,1,1,0,0,0,.55-.13.88.88,0,0,0,.34-.35,1.41,1.41,0,0,0,.11-.57l.09,1.54a1.78,1.78,0,0,1-.63.85,1.75,1.75,0,0,1-1,.3A2.11,2.11,0,0,1,1077.48,390.05Zm.73,3-.63-.28a2.28,2.28,0,0,1-1-.79l1.19-1.1a1.51,1.51,0,0,0,.55.38,1.65,1.65,0,0,0,.66.13,1.37,1.37,0,0,0,.91-.3,1.07,1.07,0,0,0,.35-.84v-6.66H1082v6.53a3.38,3.38,0,0,1-.35,1.58,2.31,2.31,0,0,1-1,1,3.54,3.54,0,0,1-1.63.34Z"/><path class="cls-1" d="M1083.79,383.57h1.78v6.73h-1.78Zm3.89,2.65a1,1,0,0,0-.28-.77,1.12,1.12,0,0,0-.8-.27,1,1,0,0,0-.77.28,1.09,1.09,0,0,0-.26.77l-.14-1.49a2.52,2.52,0,0,1,.73-.95,1.74,1.74,0,0,1,1.07-.32,2,2,0,0,1,1.64.72,3.1,3.1,0,0,1,.59,2v4.09h-1.78Z"/><path class="cls-1" d="M1091.21,383.57H1093v6.73h-1.77Zm3.92,2.84a1.34,1.34,0,0,0-.29-.91,1.08,1.08,0,0,0-.83-.32,1,1,0,0,0-.76.28,1,1,0,0,0-.27.77l-.13-1.49a2.5,2.5,0,0,1,.74-.95,1.79,1.79,0,0,1,1.05-.32,2,2,0,0,1,2,1.35,4.2,4.2,0,0,1,.27,1.59v3.89h-1.78Zm3.92,0a1.34,1.34,0,0,0-.28-.91,1,1,0,0,0-.8-.32,1,1,0,0,0-.79.31,1.28,1.28,0,0,0-.27.87l-.33-1.56a2.49,2.49,0,0,1,.82-1,1.91,1.91,0,0,1,1.13-.35,2.21,2.21,0,0,1,1.25.34,2.17,2.17,0,0,1,.78,1,4.2,4.2,0,0,1,.27,1.59v3.89h-1.78Z"/><path class="cls-1" d="M1104.49,390.39l-.69-.35a2.38,2.38,0,0,1-1-1,3.44,3.44,0,0,1-.36-1.63v-.76a3.85,3.85,0,0,1,.34-1.7,2.36,2.36,0,0,1,1-1.08,3.25,3.25,0,0,1,1.61-.37,2.59,2.59,0,0,1,1.51.44,2.71,2.71,0,0,1,1,1.28,5.8,5.8,0,0,1,.32,2v.44h-4.6v-1.2h3l0-.16a1.55,1.55,0,0,0-.36-.9,1,1,0,0,0-.79-.32,1.29,1.29,0,0,0-1,.39,1.54,1.54,0,0,0-.35,1.08v.86a1.41,1.41,0,0,0,.39,1.06,1.46,1.46,0,0,0,1.08.37,2.15,2.15,0,0,0,.7-.12,2.35,2.35,0,0,0,.64-.36l1.16,1a3.73,3.73,0,0,1-1.18.74,3.45,3.45,0,0,1-1.32.26Z"/><path class="cls-1" d="M1109.7,383.57h1.78v6.73h-1.78Zm3.89,2.65a1,1,0,0,0-.28-.77,1.12,1.12,0,0,0-.8-.27,1,1,0,0,0-.76.28,1,1,0,0,0-.27.77l-.14-1.49a2.52,2.52,0,0,1,.73-.95,1.74,1.74,0,0,1,1.07-.32,2,2,0,0,1,1.64.72,3.1,3.1,0,0,1,.59,2v4.09h-1.78Z"/><path class="cls-1" d="M1116.6,383.57h3.29v1.51h-3.29Zm1.1,6.31a1.94,1.94,0,0,1-.41-1.33v-6.94h1.78v6.5a.56.56,0,0,0,.1.37.32.32,0,0,0,.28.14h.44v1.71H1119A1.69,1.69,0,0,1,1117.7,389.88Z"/><path class="cls-1" d="M882,449.77l-.76-.41a2.82,2.82,0,0,1-1.17-1.2,4.15,4.15,0,0,1-.4-1.91v-2.58a4.15,4.15,0,0,1,.4-1.91,2.82,2.82,0,0,1,1.17-1.2,3.76,3.76,0,0,1,1.84-.41,3.22,3.22,0,0,1,1.59.38,3.08,3.08,0,0,1,1.16,1.11,5,5,0,0,1,.63,1.76h-1.84a2.53,2.53,0,0,0-.32-.8,1.48,1.48,0,0,0-.53-.5,1.34,1.34,0,0,0-.69-.18,1.62,1.62,0,0,0-.85.21,1.27,1.27,0,0,0-.53.59,2.15,2.15,0,0,0-.19.95v2.58a2.07,2.07,0,0,0,.19.94,1.35,1.35,0,0,0,.53.6,1.72,1.72,0,0,0,.85.2,1.48,1.48,0,0,0,.7-.17,1.38,1.38,0,0,0,.52-.5,2.29,2.29,0,0,0,.32-.81h1.84a4.88,4.88,0,0,1-.64,1.76,3.24,3.24,0,0,1-1.15,1.12,3.34,3.34,0,0,1-1.59.38Z"/><path class="cls-1" d="M890.42,440.24h1.13l3.6,9.43h-1.91L891,443.23l-2.26,6.44h-1.91Zm-1.88,6.21h5v1.71h-5Z"/><path class="cls-1" d="M898.09,449.77l-.65-.14a5.37,5.37,0,0,1-1.21-.4,4.37,4.37,0,0,1-1-.63l.83-1.46a4.25,4.25,0,0,0,1.26.69,4.51,4.51,0,0,0,1.46.24,2.55,2.55,0,0,0,1.35-.3.91.91,0,0,0,.48-.83h0a.82.82,0,0,0-.21-.59,1.3,1.3,0,0,0-.56-.33,7.88,7.88,0,0,0-.88-.18h-.07l-.15,0a8.9,8.9,0,0,1-1.57-.37,2.34,2.34,0,0,1-1-.78,2.58,2.58,0,0,1-.44-1.6h0a2.88,2.88,0,0,1,.41-1.56,2.49,2.49,0,0,1,1.19-1,5.19,5.19,0,0,1,2.91-.23,5.74,5.74,0,0,1,1,.34,6.46,6.46,0,0,1,1,.53l-.76,1.51a4.53,4.53,0,0,0-1.13-.59,3.45,3.45,0,0,0-1.14-.21,2.47,2.47,0,0,0-1.27.27.85.85,0,0,0-.44.76h0a.85.85,0,0,0,.23.64,1.41,1.41,0,0,0,.58.35,9.22,9.22,0,0,0,1,.23h.11l.07,0h.08a7.93,7.93,0,0,1,1.49.43,2.27,2.27,0,0,1,1,.8,2.54,2.54,0,0,1,.4,1.52h0a2.75,2.75,0,0,1-.42,1.54,2.59,2.59,0,0,1-1.23,1,4.88,4.88,0,0,1-1.94.34Z"/><path class="cls-1" d="M902.68,440.24h6.91V442h-6.91Zm2.57.77H907v8.66h-1.77Z"/><path class="cls-1" d="M971.9,440.24h1.77v9.43H971.9Zm.81,4.06h3a1.13,1.13,0,0,0,.56-.14,1,1,0,0,0,.38-.42,1.31,1.31,0,0,0,.14-.61,1.48,1.48,0,0,0-.13-.61,1,1,0,0,0-.38-.42,1,1,0,0,0-.57-.14h-3v-1.72h3a3.25,3.25,0,0,1,1.55.36,2.55,2.55,0,0,1,1,1,3,3,0,0,1,.37,1.51,3,3,0,0,1-.37,1.52,2.59,2.59,0,0,1-1,1,3.25,3.25,0,0,1-1.55.35h-3Z"/><path class="cls-1" d="M981.36,449.77l-.69-.35a2.4,2.4,0,0,1-1-1,3.41,3.41,0,0,1-.37-1.63V446a3.85,3.85,0,0,1,.35-1.7,2.46,2.46,0,0,1,1-1.08,3.36,3.36,0,0,1,1.61-.37,2.59,2.59,0,0,1,1.51.44,2.67,2.67,0,0,1,.95,1.28,5.61,5.61,0,0,1,.33,2V447h-4.6v-1.2h3l0-.15a1.55,1.55,0,0,0-.37-.9,1,1,0,0,0-.78-.32,1.28,1.28,0,0,0-1,.38,1.58,1.58,0,0,0-.35,1.08v.86a1.43,1.43,0,0,0,.38,1.06,1.5,1.5,0,0,0,1.08.38,1.94,1.94,0,0,0,.71-.13,2,2,0,0,0,.64-.36l1.16,1a4.08,4.08,0,0,1-1.18.75,3.66,3.66,0,0,1-1.33.26Z"/><path class="cls-1" d="M987.41,449.42a2.1,2.1,0,0,1-.77-1,4.09,4.09,0,0,1-.27-1.57v-1.08a4.2,4.2,0,0,1,.27-1.59,2,2,0,0,1,2-1.35,1.66,1.66,0,0,1,1,.32,2.23,2.23,0,0,1,.71.92l-.13,1.49a1.32,1.32,0,0,0-.12-.59.79.79,0,0,0-.34-.36,1,1,0,0,0-.54-.13.92.92,0,0,0-.77.34,1.46,1.46,0,0,0-.28,1v1.07a1.38,1.38,0,0,0,.28.93.94.94,0,0,0,.77.33,1.13,1.13,0,0,0,.54-.12.79.79,0,0,0,.34-.36,1.19,1.19,0,0,0,.12-.56l.09,1.53a1.77,1.77,0,0,1-.64.86,1.7,1.7,0,0,1-1,.3A2.15,2.15,0,0,1,987.41,449.42Zm2.79-9.18H992v9.43H990.2Z"/><path class="cls-1" d="M993.73,442.94h1.9v6.73h-1.9Zm3.47,1.68a1.5,1.5,0,0,0-.44-.07,1,1,0,0,0-.83.35,1.43,1.43,0,0,0-.3,1l-.13-1.76a2.28,2.28,0,0,1,.72-.93,1.62,1.62,0,0,1,1-.34,2.06,2.06,0,0,1,.76.14,1.64,1.64,0,0,1,.59.39l-1,1.44A.81.81,0,0,0,997.2,444.62Z"/><path class="cls-1" d="M1000.4,449.42a2.28,2.28,0,0,1-1-1,3.35,3.35,0,0,1-.34-1.58v-1.1a3.27,3.27,0,0,1,.34-1.56,2.33,2.33,0,0,1,1-1,3.82,3.82,0,0,1,3.15,0,2.33,2.33,0,0,1,1,1,3.27,3.27,0,0,1,.34,1.56v1.12a3.31,3.31,0,0,1-.34,1.57,2.31,2.31,0,0,1-1,1,3.72,3.72,0,0,1-3.15,0Zm2.4-1.68a1.22,1.22,0,0,0,.3-.88v-1.12a1.19,1.19,0,0,0-.3-.87,1.07,1.07,0,0,0-.83-.32,1.08,1.08,0,0,0-.83.32,1.19,1.19,0,0,0-.29.87v1.12a1.22,1.22,0,0,0,.29.88,1.24,1.24,0,0,0,1.66,0Z"/><path class="cls-1" d="M1012.49,449.77l-.65-.14a5.37,5.37,0,0,1-1.21-.4,4.37,4.37,0,0,1-1-.63l.83-1.46a4.32,4.32,0,0,0,1.25.69,4.62,4.62,0,0,0,1.47.24,2.55,2.55,0,0,0,1.35-.3.91.91,0,0,0,.48-.83h0a.78.78,0,0,0-.22-.59,1.21,1.21,0,0,0-.55-.33,7.65,7.65,0,0,0-.89-.18h-.07l-.14,0a8.9,8.9,0,0,1-1.57-.37,2.29,2.29,0,0,1-1-.78,2.58,2.58,0,0,1-.44-1.6h0a2.88,2.88,0,0,1,.41-1.56,2.49,2.49,0,0,1,1.19-1,4.58,4.58,0,0,1,1.88-.34,4.63,4.63,0,0,1,1,.11,5.4,5.4,0,0,1,1,.34,5.59,5.59,0,0,1,1,.53l-.75,1.51a4.42,4.42,0,0,0-1.14-.59,3.35,3.35,0,0,0-1.13-.21,2.47,2.47,0,0,0-1.27.27.84.84,0,0,0-.45.76h0a.86.86,0,0,0,.24.64,1.44,1.44,0,0,0,.57.35c.23.07.56.15,1,.23h.1l.08,0h.07a7.83,7.83,0,0,1,1.5.43,2.27,2.27,0,0,1,1,.8,2.54,2.54,0,0,1,.4,1.52h0a2.75,2.75,0,0,1-.42,1.54,2.59,2.59,0,0,1-1.23,1,4.92,4.92,0,0,1-1.94.34Z"/><path class="cls-1" d="M1018.15,440.24h1.77V442h-1.77Zm0,2.7h1.77v6.73h-1.77Z"/><path class="cls-1" d="M1023.35,447.45a.52.52,0,0,0,.14.38.55.55,0,0,0,.4.13h.3v1.71h-.91a1.64,1.64,0,0,1-1.26-.47,1.81,1.81,0,0,1-.44-1.31v-7.65h1.77Z"/><path class="cls-1" d="M1029.25,442.94H1031l-2.53,6.73h-1.25l-2.53-6.73h1.77l1.39,4.22Z"/><path class="cls-1" d="M1032.27,449.25a2,2,0,0,1-.53-1.56,1.83,1.83,0,0,1,.6-1.5,2.75,2.75,0,0,1,1.79-.5h1.69l.09,1.35h-1.77a1,1,0,0,0-.6.16.58.58,0,0,0-.2.49.54.54,0,0,0,.25.49,1.54,1.54,0,0,0,.77.15,2.65,2.65,0,0,0,1.06-.16.51.51,0,0,0,.34-.5l.14,1a.92.92,0,0,1-.34.61,1.81,1.81,0,0,1-.73.38,3.24,3.24,0,0,1-.94.13A2.24,2.24,0,0,1,1032.27,449.25Zm3.49-3.85a.87.87,0,0,0-.31-.72,1.42,1.42,0,0,0-.88-.25,2.45,2.45,0,0,0-.75.12,2.39,2.39,0,0,0-.65.35l-1.1-1.08a2.56,2.56,0,0,1,1.06-.72,4,4,0,0,1,1.47-.26,3.46,3.46,0,0,1,1.5.3,2.13,2.13,0,0,1,1,.85,2.66,2.66,0,0,1,.33,1.36v4.32h-1.62Z"/><path class="cls-1" d="M1044.54,445.93a1.65,1.65,0,0,0-.37,1.13,1,1,0,0,0,.4.84,2,2,0,0,0,1.14.29,1.84,1.84,0,0,0,1.21-.42,2.45,2.45,0,0,0,.77-1.19,5.54,5.54,0,0,0,.27-1.82h1.71a6.61,6.61,0,0,1-.49,2.68,3.81,3.81,0,0,1-1.45,1.73,4.22,4.22,0,0,1-2.31.6,3.62,3.62,0,0,1-1.58-.32,2.29,2.29,0,0,1-1-.92,3,3,0,0,1-.34-1.47,2.51,2.51,0,0,1,.67-1.84,2.9,2.9,0,0,1,1.89-.81l.55,1.12A1.39,1.39,0,0,0,1044.54,445.93Zm.31,0a6.28,6.28,0,0,1-.79-1,4.49,4.49,0,0,1-.48-1.05,3.77,3.77,0,0,1-.16-1.11,2.56,2.56,0,0,1,.69-1.92,3.24,3.24,0,0,1,3.92,0,2.41,2.41,0,0,1,.69,1.84v.26H1047v-.26a1.54,1.54,0,0,0-.23-.89.73.73,0,0,0-.64-.31.9.9,0,0,0-.75.34,1.55,1.55,0,0,0-.26,1,2,2,0,0,0,.17.77,4.51,4.51,0,0,0,.49.9,8.91,8.91,0,0,0,.76,1l3.89,4.27h-2Z"/><path class="cls-1" d="M1055.13,449.43a2.51,2.51,0,0,1-1.06-.95l1.46-1.06a1.56,1.56,0,0,0,.56.46,1.45,1.45,0,0,0,.68.16.93.93,0,0,0,.79-.36,1.58,1.58,0,0,0,.28-1v-6.43h1.84v6.44a3.71,3.71,0,0,1-.35,1.67,2.51,2.51,0,0,1-1,1.06,3.41,3.41,0,0,1-1.63.36A3.32,3.32,0,0,1,1055.13,449.43Z"/><path class="cls-1" d="M1062.77,449.42a2.25,2.25,0,0,1-1-1,3.48,3.48,0,0,1-.34-1.58v-1.1a3.39,3.39,0,0,1,.34-1.56,2.3,2.3,0,0,1,1-1,3.79,3.79,0,0,1,3.14,0,2.33,2.33,0,0,1,1,1,3.27,3.27,0,0,1,.34,1.56v1.12a3.31,3.31,0,0,1-.34,1.57,2.31,2.31,0,0,1-1,1,3.7,3.7,0,0,1-3.14,0Zm2.4-1.68a1.22,1.22,0,0,0,.3-.88v-1.12a1.19,1.19,0,0,0-.3-.87,1.25,1.25,0,0,0-1.67,0,1.23,1.23,0,0,0-.29.87v1.12a1.26,1.26,0,0,0,.29.88,1.08,1.08,0,0,0,.83.32A1.11,1.11,0,0,0,1065.17,447.74Z"/><path class="cls-1" d="M1069.07,449.25a2.09,2.09,0,0,1-.53-1.56,1.83,1.83,0,0,1,.6-1.5,2.78,2.78,0,0,1,1.8-.5h1.68l.09,1.35H1071a1,1,0,0,0-.61.16.6.6,0,0,0-.2.49.56.56,0,0,0,.25.49,1.56,1.56,0,0,0,.77.15,2.61,2.61,0,0,0,1.06-.16.52.52,0,0,0,.35-.5l.13,1a.87.87,0,0,1-.33.61,1.92,1.92,0,0,1-.74.38,3.24,3.24,0,0,1-.94.13A2.24,2.24,0,0,1,1069.07,449.25Zm3.5-3.85a.88.88,0,0,0-.32-.72,1.4,1.4,0,0,0-.88-.25,2.34,2.34,0,0,0-.74.12,2.31,2.31,0,0,0-.66.35l-1.1-1.08a2.63,2.63,0,0,1,1.06-.72,4.09,4.09,0,0,1,1.47-.26,3.4,3.4,0,0,1,1.5.3,2.07,2.07,0,0,1,.95.85,2.66,2.66,0,0,1,.33,1.36v4.32h-1.61Zm-.49-3.52a2.05,2.05,0,0,1-.41-.18l-.1-.06a.1.1,0,0,0,0,0l-.06,0a1.21,1.21,0,0,0-.36-.18.79.79,0,0,0-.28-.06.33.33,0,0,0-.39.39v.2h-1.35v-.22a2.71,2.71,0,0,1,.33-1.53,1.17,1.17,0,0,1,1-.48,1.11,1.11,0,0,1,.39.07,2.79,2.79,0,0,1,.46.2l.07,0,.14.08a2.74,2.74,0,0,0,.36.17.74.74,0,0,0,.22.05.38.38,0,0,0,.3-.1.5.5,0,0,0,.09-.33v-.2h1.35v.22a2.89,2.89,0,0,1-.33,1.57,1.18,1.18,0,0,1-1,.48A1.26,1.26,0,0,1,1072.08,441.88Z"/><path class="cls-1" d="M1077.07,449.42a2.18,2.18,0,0,1-1-1,3.35,3.35,0,0,1-.34-1.58v-1.1a3.27,3.27,0,0,1,.34-1.56,2.23,2.23,0,0,1,1-1,3.79,3.79,0,0,1,3.14,0,2.3,2.3,0,0,1,1,1,3.39,3.39,0,0,1,.34,1.56v1.12a3.43,3.43,0,0,1-.34,1.57,2.28,2.28,0,0,1-1,1,3.7,3.7,0,0,1-3.14,0Zm2.4-1.68a1.22,1.22,0,0,0,.3-.88v-1.12a1.19,1.19,0,0,0-.3-.87,1.11,1.11,0,0,0-.84-.32,1.06,1.06,0,0,0-.82.32,1.19,1.19,0,0,0-.3.87v1.12a1.26,1.26,0,0,0,.29.88,1.25,1.25,0,0,0,1.67,0Z"/><path class="cls-1" d="M1089.15,449.77l-.64-.14a5.45,5.45,0,0,1-1.22-.4,4.52,4.52,0,0,1-1-.63l.82-1.46a4.52,4.52,0,0,0,1.26.69,4.62,4.62,0,0,0,1.47.24,2.55,2.55,0,0,0,1.35-.3.91.91,0,0,0,.48-.83h0a.82.82,0,0,0-.22-.59,1.25,1.25,0,0,0-.56-.33,7.43,7.43,0,0,0-.88-.18h-.07l-.14,0a8.69,8.69,0,0,1-1.57-.37,2.32,2.32,0,0,1-1.06-.78,2.58,2.58,0,0,1-.43-1.6h0a2.79,2.79,0,0,1,.41-1.56,2.46,2.46,0,0,1,1.18-1,4.64,4.64,0,0,1,1.88-.34,4.72,4.72,0,0,1,1,.11,5.88,5.88,0,0,1,2,.87l-.75,1.51a4.42,4.42,0,0,0-1.14-.59,3.36,3.36,0,0,0-1.14-.21,2.46,2.46,0,0,0-1.26.27.84.84,0,0,0-.45.76h0a.9.9,0,0,0,.23.64,1.48,1.48,0,0,0,.58.35,9.53,9.53,0,0,0,1,.23h.1l.08,0h.07a7.5,7.5,0,0,1,1.49.43,2.25,2.25,0,0,1,1,.8,2.54,2.54,0,0,1,.4,1.52h0a2.75,2.75,0,0,1-.42,1.54,2.59,2.59,0,0,1-1.23,1,5,5,0,0,1-1.94.34Z"/><path class="cls-1" d="M1096.05,449.42a2.18,2.18,0,0,1-1-1,3.35,3.35,0,0,1-.35-1.58v-1.1a3.27,3.27,0,0,1,.35-1.56,2.23,2.23,0,0,1,1-1,3.79,3.79,0,0,1,3.14,0,2.23,2.23,0,0,1,1,1,3.27,3.27,0,0,1,.34,1.56v1.12a3.31,3.31,0,0,1-.34,1.57,2.21,2.21,0,0,1-1,1,3.7,3.7,0,0,1-3.14,0Zm2.4-1.68a1.22,1.22,0,0,0,.3-.88v-1.12a1.19,1.19,0,0,0-.3-.87,1.11,1.11,0,0,0-.84-.32,1.06,1.06,0,0,0-.82.32,1.19,1.19,0,0,0-.3.87v1.12a1.26,1.26,0,0,0,.29.88,1.08,1.08,0,0,0,.83.32A1.11,1.11,0,0,0,1098.45,447.74Z"/><path class="cls-1" d="M1102.36,449.25a2.05,2.05,0,0,1-.54-1.56,1.83,1.83,0,0,1,.6-1.5,2.78,2.78,0,0,1,1.8-.5h1.69L1106,447h-1.77a1,1,0,0,0-.61.16.6.6,0,0,0-.2.49.55.55,0,0,0,.26.49,1.5,1.5,0,0,0,.76.15,2.58,2.58,0,0,0,1.06-.16.52.52,0,0,0,.35-.5l.13,1a.87.87,0,0,1-.33.61,1.85,1.85,0,0,1-.74.38,3.19,3.19,0,0,1-.94.13A2.2,2.2,0,0,1,1102.36,449.25Zm3.49-3.85a.9.9,0,0,0-.31-.72,1.42,1.42,0,0,0-.88-.25,2.4,2.4,0,0,0-.75.12,2.45,2.45,0,0,0-.66.35l-1.1-1.08a2.66,2.66,0,0,1,1.07-.72,4,4,0,0,1,1.46-.26,3.48,3.48,0,0,1,1.51.3,2.13,2.13,0,0,1,1,.85,2.76,2.76,0,0,1,.32,1.36v4.32h-1.61Z"/><path class="cls-1" d="M1109.21,442.94h1.91v6.73h-1.91Zm3.47,1.68a1.38,1.38,0,0,0-.43-.07,1,1,0,0,0-.83.35,1.43,1.43,0,0,0-.3,1l-.14-1.76a2.39,2.39,0,0,1,.73-.93,1.59,1.59,0,0,1,1-.34,2,2,0,0,1,.76.14,1.6,1.6,0,0,1,.6.39l-1,1.44A.85.85,0,0,0,1112.68,444.62Z"/><path class="cls-1" d="M1116.66,449.77l-.69-.35a2.4,2.4,0,0,1-1-1,3.41,3.41,0,0,1-.36-1.63V446a3.85,3.85,0,0,1,.34-1.7,2.46,2.46,0,0,1,1-1.08,3.36,3.36,0,0,1,1.61-.37,2.59,2.59,0,0,1,1.51.44,2.76,2.76,0,0,1,1,1.28,5.84,5.84,0,0,1,.32,2V447h-4.6v-1.2h3l0-.15a1.55,1.55,0,0,0-.36-.9,1,1,0,0,0-.79-.32,1.28,1.28,0,0,0-1,.38,1.58,1.58,0,0,0-.35,1.08v.86a1.4,1.4,0,0,0,.39,1.06,1.46,1.46,0,0,0,1.08.38,2.21,2.21,0,0,0,1.34-.49l1.16,1a4,4,0,0,1-1.18.75,3.65,3.65,0,0,1-1.32.26Z"/><path class="cls-1" d="M1123.84,449.77l-.57-.11a5.11,5.11,0,0,1-1.07-.31,4.13,4.13,0,0,1-.88-.5l1.09-1.37a4.3,4.3,0,0,0,1,.48,3.45,3.45,0,0,0,1,.17,2.73,2.73,0,0,0,1-.14c.23-.09.34-.22.34-.39a.41.41,0,0,0-.15-.34,1,1,0,0,0-.38-.17,5.43,5.43,0,0,0-.65-.08l-.24,0-.24,0H1124a6.42,6.42,0,0,1-1.21-.24,1.54,1.54,0,0,1-.77-.55,1.87,1.87,0,0,1-.31-1.17,2.08,2.08,0,0,1,.32-1.16,2.05,2.05,0,0,1,.94-.73,4.11,4.11,0,0,1,1.49-.25,4.9,4.9,0,0,1,1,.11,5.3,5.3,0,0,1,1,.3,4.7,4.7,0,0,1,.86.46l-1,1.29a4.58,4.58,0,0,0-.92-.38,3.43,3.43,0,0,0-.92-.14,2.11,2.11,0,0,0-.84.13c-.2.08-.3.19-.3.34a.28.28,0,0,0,.16.26,1.13,1.13,0,0,0,.39.14l.69.09.12,0h.24a7.4,7.4,0,0,1,1.27.24,1.59,1.59,0,0,1,.84.57,1.94,1.94,0,0,1,.35,1.25,2,2,0,0,1-.34,1.2,2.07,2.07,0,0,1-1,.77,4.34,4.34,0,0,1-1.57.26Z"/><path class="cls-1" d="M882,516.3l-.76-.41a2.82,2.82,0,0,1-1.17-1.2,4.15,4.15,0,0,1-.4-1.91V510.2a4.15,4.15,0,0,1,.4-1.91,2.82,2.82,0,0,1,1.17-1.2,3.76,3.76,0,0,1,1.84-.41,3.22,3.22,0,0,1,1.59.38,3.08,3.08,0,0,1,1.16,1.11,5,5,0,0,1,.63,1.76h-1.84a2.53,2.53,0,0,0-.32-.8,1.57,1.57,0,0,0-.53-.5,1.34,1.34,0,0,0-.69-.18,1.62,1.62,0,0,0-.85.21,1.27,1.27,0,0,0-.53.59,2.15,2.15,0,0,0-.19.95v2.58a2.07,2.07,0,0,0,.19.94,1.35,1.35,0,0,0,.53.6,1.72,1.72,0,0,0,.85.2,1.48,1.48,0,0,0,.7-.17,1.38,1.38,0,0,0,.52-.5,2.29,2.29,0,0,0,.32-.81h1.84a4.88,4.88,0,0,1-.64,1.76,3.24,3.24,0,0,1-1.15,1.12,3.34,3.34,0,0,1-1.59.38Z"/><path class="cls-1" d="M889.29,515.87a3.09,3.09,0,0,1-1.21-1.22,3.86,3.86,0,0,1-.43-1.83v-2.67a3.79,3.79,0,0,1,.43-1.82,3,3,0,0,1,1.21-1.22,4,4,0,0,1,3.61,0,2.91,2.91,0,0,1,1.21,1.22,3.68,3.68,0,0,1,.43,1.82v2.67a3.75,3.75,0,0,1-.43,1.83,3,3,0,0,1-1.21,1.22,4,4,0,0,1-3.61,0Zm2.65-1.55a1.42,1.42,0,0,0,.56-.58,1.86,1.86,0,0,0,.2-.87v-2.76a1.86,1.86,0,0,0-.2-.87,1.36,1.36,0,0,0-.56-.58,1.64,1.64,0,0,0-.84-.21,1.7,1.7,0,0,0-.85.21,1.42,1.42,0,0,0-.56.58,1.86,1.86,0,0,0-.19.87v2.76a1.86,1.86,0,0,0,.19.87,1.49,1.49,0,0,0,.56.58,1.81,1.81,0,0,0,.85.2A1.74,1.74,0,0,0,891.94,514.32Z"/><path class="cls-1" d="M897.61,515.89a2.79,2.79,0,0,1-1.18-1.2,4.26,4.26,0,0,1-.4-1.9v-6h1.78v6.07a1.7,1.7,0,0,0,.43,1.25,1.91,1.91,0,0,0,2.46,0,1.66,1.66,0,0,0,.44-1.25v-6.07h1.78v6a4.13,4.13,0,0,1-.41,1.9,2.79,2.79,0,0,1-1.18,1.2,4.42,4.42,0,0,1-3.72,0Z"/><path class="cls-1" d="M904.73,506.77h1.78v9.43h-1.78Zm.71,3.93h3.28a.87.87,0,0,0,.48-.14.83.83,0,0,0,.32-.39,1.34,1.34,0,0,0,.12-.58,1.55,1.55,0,0,0-.11-.59.93.93,0,0,0-.32-.38.81.81,0,0,0-.49-.14h-3.28v-1.71h3.42a2.56,2.56,0,0,1,1.37.35,2.38,2.38,0,0,1,.92,1,3.58,3.58,0,0,1,0,3,2.45,2.45,0,0,1-.92,1,2.68,2.68,0,0,1-1.37.35h-3.42Zm2,1.42,1.9-.3,2.55,4.38h-2.16Z"/><path class="cls-1" d="M915.42,516.3l-.65-.14a5.37,5.37,0,0,1-1.21-.4,4.11,4.11,0,0,1-1-.63l.82-1.46a4.25,4.25,0,0,0,1.26.69,4.51,4.51,0,0,0,1.46.24,2.55,2.55,0,0,0,1.35-.3.91.91,0,0,0,.48-.83h0a.82.82,0,0,0-.21-.59,1.3,1.3,0,0,0-.56-.33,7.43,7.43,0,0,0-.88-.18h-.07l-.15,0a8.9,8.9,0,0,1-1.57-.37,2.34,2.34,0,0,1-1.05-.78,2.58,2.58,0,0,1-.44-1.6h0a2.88,2.88,0,0,1,.41-1.56,2.49,2.49,0,0,1,1.19-1,5.19,5.19,0,0,1,2.91-.23,5.74,5.74,0,0,1,1,.34,6.46,6.46,0,0,1,1,.53l-.76,1.51a4.88,4.88,0,0,0-1.13-.59,3.43,3.43,0,0,0-1.14-.2,2.48,2.48,0,0,0-1.27.26.86.86,0,0,0-.44.76h0a.85.85,0,0,0,.23.64,1.48,1.48,0,0,0,.58.35c.23.07.55.15,1,.23h.11l.07,0h.08a7.93,7.93,0,0,1,1.49.43,2.27,2.27,0,0,1,1,.8,2.54,2.54,0,0,1,.4,1.52h0a2.75,2.75,0,0,1-.42,1.54,2.59,2.59,0,0,1-1.23,1,4.88,4.88,0,0,1-1.94.34Z"/><path class="cls-1" d="M921.18,506.77H923v9.43h-1.77Zm.64,0h5.67v1.72h-5.67Zm0,3.89h5v1.72h-5Zm0,3.83h5.67v1.71h-5.67Z"/><path class="cls-1" d="M977.83,506.77h2.34v9.43h-1.62v-7.32l.07.42-1.8,5.85h-1.57l-1.8-5.72.06-.55v7.32H971.9v-9.43h2.34l1.79,6.36Z"/><path class="cls-1" d="M982.24,506.77H984v9.43h-1.78Zm.65,0h5.67v1.72h-5.67Zm0,3.89h5v1.72h-5Zm0,3.83h5.67v1.71h-5.67Z"/><path class="cls-1" d="M991.89,516.2h-1.84v-9.43h1.84Z"/><path class="cls-1" d="M998.85,515.89a2.82,2.82,0,0,1-1.17-1.2,4.13,4.13,0,0,1-.4-1.9v-6h1.77v6.07a1.7,1.7,0,0,0,.44,1.25,1.61,1.61,0,0,0,1.22.45,1.66,1.66,0,0,0,1.24-.45,1.7,1.7,0,0,0,.43-1.25v-6.07h1.78v6a4.13,4.13,0,0,1-.4,1.9,2.85,2.85,0,0,1-1.18,1.2,4.45,4.45,0,0,1-3.73,0Z"/><path class="cls-1" d="M1006,509.47h1.77v6.73H1006Zm3.89,2.65a1,1,0,0,0-.29-.76,1.09,1.09,0,0,0-.8-.28,1,1,0,0,0-.76.28,1.06,1.06,0,0,0-.27.78l-.13-1.5a2.43,2.43,0,0,1,.73-.95,1.71,1.71,0,0,1,1.06-.32,2,2,0,0,1,1.65.72,3.13,3.13,0,0,1,.58,2v4.08h-1.77Z"/><path class="cls-1" d="M1013.3,506.77h1.77v1.78h-1.77Zm0,2.7h1.77v6.73h-1.77Z"/><path class="cls-1" d="M1020.56,509.47h1.77l-2.53,6.73h-1.26l-2.53-6.73h1.77l1.39,4.22Z"/><path class="cls-1" d="M1025.15,516.3l-.69-.35a2.4,2.4,0,0,1-1.05-1,3.3,3.3,0,0,1-.37-1.63v-.76a3.85,3.85,0,0,1,.35-1.7,2.46,2.46,0,0,1,1-1.08,3.33,3.33,0,0,1,1.61-.37,2.61,2.61,0,0,1,1.51.44,2.79,2.79,0,0,1,1,1.28,5.61,5.61,0,0,1,.33,2v.44h-4.6v-1.2h3l0-.15a1.55,1.55,0,0,0-.37-.9,1,1,0,0,0-.78-.32,1.32,1.32,0,0,0-1,.38,1.53,1.53,0,0,0-.35,1.08v.86a1.43,1.43,0,0,0,.38,1.06,1.5,1.5,0,0,0,1.08.38,1.94,1.94,0,0,0,.71-.13,2,2,0,0,0,.63-.36l1.17,1a4.21,4.21,0,0,1-1.18.75,3.66,3.66,0,0,1-1.33.26Z"/><path class="cls-1" d="M1030.36,509.47h1.9v6.73h-1.9Zm3.47,1.68a1.5,1.5,0,0,0-.44-.07,1,1,0,0,0-.83.35,1.43,1.43,0,0,0-.3,1l-.13-1.76a2.28,2.28,0,0,1,.72-.93,1.62,1.62,0,0,1,1-.34,2.06,2.06,0,0,1,.76.14,1.64,1.64,0,0,1,.59.39l-1,1.44A.81.81,0,0,0,1033.83,511.15Z"/><path class="cls-1" d="M1038,516.3l-.57-.11a5.29,5.29,0,0,1-1.07-.31,4.39,4.39,0,0,1-.88-.5l1.1-1.37a4,4,0,0,0,1,.48,3.39,3.39,0,0,0,1,.17,2.71,2.71,0,0,0,1-.14c.23-.09.35-.22.35-.39a.41.41,0,0,0-.15-.34,1,1,0,0,0-.38-.17,5.94,5.94,0,0,0-.66-.08l-.24,0-.24,0h-.11a6.59,6.59,0,0,1-1.21-.24,1.51,1.51,0,0,1-.76-.55,1.87,1.87,0,0,1-.32-1.17,1.92,1.92,0,0,1,1.27-1.89,4.07,4.07,0,0,1,1.49-.25,5.05,5.05,0,0,1,1,.11,5.2,5.2,0,0,1,1,.3,4.79,4.79,0,0,1,.87.46l-1.06,1.29a4.35,4.35,0,0,0-.92-.38,3.43,3.43,0,0,0-.92-.14,2.11,2.11,0,0,0-.84.13c-.2.08-.3.19-.3.34a.3.3,0,0,0,.16.26,1.11,1.11,0,0,0,.4.14l.69.09.12,0h.23a7.54,7.54,0,0,1,1.28.24,1.67,1.67,0,0,1,.84.57,1.94,1.94,0,0,1,.34,1.25,2.11,2.11,0,0,1-.33,1.2,2.15,2.15,0,0,1-1,.77,4.24,4.24,0,0,1-1.56.26Z"/><path class="cls-1" d="M1042.81,506.77h1.78v1.78h-1.78Zm0,2.7h1.78v6.73h-1.78Z"/><path class="cls-1" d="M1047.09,516a2.2,2.2,0,0,1-.78-1,4.3,4.3,0,0,1-.26-1.57v-1.08a4.41,4.41,0,0,1,.26-1.59,2.14,2.14,0,0,1,.78-1,2.11,2.11,0,0,1,1.22-.35,1.64,1.64,0,0,1,1,.32,2.25,2.25,0,0,1,.72.92l-.14,1.49a1.48,1.48,0,0,0-.11-.59.85.85,0,0,0-.34-.36,1,1,0,0,0-.55-.13.92.92,0,0,0-.77.34,1.52,1.52,0,0,0-.28,1v1.07a1.43,1.43,0,0,0,.28.93.94.94,0,0,0,.77.33,1.15,1.15,0,0,0,.55-.12.85.85,0,0,0,.34-.36,1.33,1.33,0,0,0,.11-.56l.09,1.53a1.66,1.66,0,0,1-1.65,1.16A2.19,2.19,0,0,1,1047.09,516Zm2.78-9.19h1.78v9.43h-1.78Z"/><path class="cls-1" d="M1053.61,515.78a2,2,0,0,1-.53-1.56,1.83,1.83,0,0,1,.6-1.5,2.75,2.75,0,0,1,1.79-.5h1.69l.09,1.36h-1.77a1,1,0,0,0-.6.15.58.58,0,0,0-.2.49.54.54,0,0,0,.25.49,1.52,1.52,0,0,0,.77.16,2.53,2.53,0,0,0,1-.17.51.51,0,0,0,.35-.5l.14,1a.92.92,0,0,1-.34.61,1.81,1.81,0,0,1-.73.38,3.24,3.24,0,0,1-.94.13A2.24,2.24,0,0,1,1053.61,515.78Zm3.49-3.85a.87.87,0,0,0-.31-.72,1.42,1.42,0,0,0-.88-.25,2.45,2.45,0,0,0-.75.12,2.39,2.39,0,0,0-.65.35l-1.1-1.08a2.56,2.56,0,0,1,1.06-.72,4,4,0,0,1,1.47-.26,3.46,3.46,0,0,1,1.5.3,2.18,2.18,0,0,1,1,.85,2.66,2.66,0,0,1,.33,1.36v4.32h-1.62Z"/><path class="cls-1" d="M1061.31,516a2.18,2.18,0,0,1-.77-1,4.09,4.09,0,0,1-.27-1.57v-1.08a4.2,4.2,0,0,1,.27-1.59,2,2,0,0,1,2-1.35,1.69,1.69,0,0,1,1,.32,2.32,2.32,0,0,1,.71.92l-.13,1.49a1.32,1.32,0,0,0-.12-.59.79.79,0,0,0-.34-.36,1,1,0,0,0-.54-.13.92.92,0,0,0-.77.34,1.46,1.46,0,0,0-.28,1v1.07a1.38,1.38,0,0,0,.28.93.94.94,0,0,0,.77.33,1.13,1.13,0,0,0,.54-.12.79.79,0,0,0,.34-.36,1.19,1.19,0,0,0,.12-.56l.09,1.53a1.77,1.77,0,0,1-.64.86,1.7,1.7,0,0,1-1,.3A2.22,2.22,0,0,1,1061.31,516Zm2.79-9.19h1.78v9.43h-1.78Z"/><path class="cls-1" d="M1069.54,516.3l-.69-.35a2.47,2.47,0,0,1-1.06-1,3.41,3.41,0,0,1-.36-1.63v-.76a3.85,3.85,0,0,1,.35-1.7,2.46,2.46,0,0,1,1-1.08,3.32,3.32,0,0,1,1.6-.37,2.62,2.62,0,0,1,1.52.44,2.86,2.86,0,0,1,.95,1.28,5.61,5.61,0,0,1,.33,2v.44h-4.61v-1.2h3l0-.15a1.55,1.55,0,0,0-.37-.9,1,1,0,0,0-.79-.32,1.3,1.3,0,0,0-1,.38,1.53,1.53,0,0,0-.35,1.08v.86a1.39,1.39,0,0,0,.38,1.06,1.5,1.5,0,0,0,1.08.38,2.15,2.15,0,0,0,1.34-.49l1.16,1a4,4,0,0,1-1.18.75,3.57,3.57,0,0,1-1.32.26Z"/><path class="cls-1" d="M1079.16,516a2.2,2.2,0,0,1-.78-1,4.3,4.3,0,0,1-.26-1.57v-1.08a4.41,4.41,0,0,1,.26-1.59,2.14,2.14,0,0,1,.78-1,2.11,2.11,0,0,1,1.22-.35,1.64,1.64,0,0,1,1,.32,2.25,2.25,0,0,1,.72.92l-.14,1.49a1.48,1.48,0,0,0-.11-.59.85.85,0,0,0-.34-.36,1,1,0,0,0-.55-.13.92.92,0,0,0-.77.34,1.52,1.52,0,0,0-.28,1v1.07a1.43,1.43,0,0,0,.28.93.94.94,0,0,0,.77.33,1.15,1.15,0,0,0,.55-.12.85.85,0,0,0,.34-.36,1.33,1.33,0,0,0,.11-.56l.09,1.53a1.81,1.81,0,0,1-.63.86,1.75,1.75,0,0,1-1,.3A2.19,2.19,0,0,1,1079.16,516Zm2.78-9.19h1.78v9.43h-1.78Z"/><path class="cls-1" d="M1087.38,516.3l-.69-.35a2.4,2.4,0,0,1-1-1,3.41,3.41,0,0,1-.37-1.63v-.76a3.85,3.85,0,0,1,.35-1.7,2.46,2.46,0,0,1,1-1.08,3.36,3.36,0,0,1,1.61-.37,2.59,2.59,0,0,1,1.51.44,2.81,2.81,0,0,1,1,1.28,5.84,5.84,0,0,1,.32,2v.44h-4.6v-1.2h3l0-.15a1.62,1.62,0,0,0-.36-.9,1,1,0,0,0-.79-.32,1.32,1.32,0,0,0-1,.38,1.58,1.58,0,0,0-.35,1.08v.86a1.4,1.4,0,0,0,.39,1.06,1.46,1.46,0,0,0,1.07.38,1.94,1.94,0,0,0,.71-.13,2,2,0,0,0,.64-.36l1.16,1a4.08,4.08,0,0,1-1.18.75,3.66,3.66,0,0,1-1.33.26Z"/><path class="cls-1" d="M1099,506.77h1.13l3.6,9.43h-1.91l-2.25-6.44-2.26,6.44h-1.91Zm-1.87,6.21h5v1.71h-5Z"/><path class="cls-1" d="M1108.39,509.47h1.77l-2.53,6.73h-1.26l-2.53-6.73h1.78l1.38,4.22Z"/><path class="cls-1" d="M1113,516.3l-.69-.35a2.4,2.4,0,0,1-1-1,3.3,3.3,0,0,1-.37-1.63v-.76a3.85,3.85,0,0,1,.35-1.7,2.46,2.46,0,0,1,1-1.08,3.33,3.33,0,0,1,1.61-.37,2.61,2.61,0,0,1,1.51.44,2.79,2.79,0,0,1,1,1.28,5.61,5.61,0,0,1,.33,2v.44H1112v-1.2h3l0-.15a1.55,1.55,0,0,0-.37-.9,1,1,0,0,0-.78-.32,1.32,1.32,0,0,0-1,.38,1.58,1.58,0,0,0-.35,1.08v.86a1.43,1.43,0,0,0,.38,1.06,1.5,1.5,0,0,0,1.08.38,1.94,1.94,0,0,0,.71-.13,2,2,0,0,0,.64-.36l1.16,1a4.08,4.08,0,0,1-1.18.75,3.66,3.66,0,0,1-1.33.26Z"/><path class="cls-1" d="M1118.09,506.77h1.78v1.78h-1.78Zm0,2.7h1.78v6.73h-1.78Z"/><path class="cls-1" d="M1121.52,509.47h1.91v6.73h-1.91Zm3.47,1.68a1.45,1.45,0,0,0-.44-.07,1.05,1.05,0,0,0-.83.35,1.42,1.42,0,0,0-.29,1l-.14-1.76a2.47,2.47,0,0,1,.72-.93,1.62,1.62,0,0,1,1-.34,2.06,2.06,0,0,1,.76.14,1.49,1.49,0,0,1,.59.39l-1,1.44A.94.94,0,0,0,1125,511.15Z"/><path class="cls-1" d="M1128.2,516a2.32,2.32,0,0,1-1-1,3.48,3.48,0,0,1-.34-1.58v-1.1a3.39,3.39,0,0,1,.34-1.56,2.3,2.3,0,0,1,1-1,3.79,3.79,0,0,1,3.14,0,2.33,2.33,0,0,1,1,1,3.27,3.27,0,0,1,.34,1.56v1.12a3.31,3.31,0,0,1-.34,1.57,2.39,2.39,0,0,1-1,1,3.79,3.79,0,0,1-3.14,0Zm2.4-1.69a1.22,1.22,0,0,0,.3-.88v-1.12a1.19,1.19,0,0,0-.3-.87,1.25,1.25,0,0,0-1.67,0,1.23,1.23,0,0,0-.29.87v1.12a1.26,1.26,0,0,0,.29.88,1.08,1.08,0,0,0,.83.32A1.11,1.11,0,0,0,1130.6,514.27Z"/></svg>