<svg xmlns="http://www.w3.org/2000/svg" xmlns:xlink="http://www.w3.org/1999/xlink" viewBox="0 0 1854.62 532.69"><defs><style>.cls-1{fill:#fff;}.cls-2{fill:url(#radial-gradient);}.cls-3{fill:url(#radial-gradient-2);}.cls-4{fill:url(#radial-gradient-3);}.cls-5{fill:url(#radial-gradient-4);}.cls-6{fill:url(#radial-gradient-5);}.cls-7{fill:none;stroke:#000;stroke-miterlimit:10;stroke-width:3px;}.cls-8{fill:url(#linear-gradient);}.cls-9{fill:url(#linear-gradient-2);}.cls-10{fill:url(#linear-gradient-3);}.cls-11{fill:url(#linear-gradient-4);}.cls-12{fill:url(#linear-gradient-5);}.cls-13{fill:url(#linear-gradient-6);}.cls-14{fill:url(#linear-gradient-7);}.cls-15{fill:url(#linear-gradient-8);}.cls-16{fill:url(#linear-gradient-9);}.cls-17{fill:url(#linear-gradient-10);}.cls-18{fill:#1a1a1a;}.cls-19{fill:#ccc;}</style><radialGradient id="radial-gradient" cx="461.18" cy="254.2" r="188.84" gradientTransform="translate(2.35 -81.97) scale(1.5 1.2)" gradientUnits="userSpaceOnUse"><stop offset="0" stop-color="#efb8a4"/><stop offset="0.18" stop-color="#dca693"/><stop offset="0.55" stop-color="#ab7867"/><stop offset="1" stop-color="#673729"/></radialGradient><radialGradient id="radial-gradient-2" cx="151.25" cy="253.82" r="188.84" xlink:href="#radial-gradient"/><radialGradient id="radial-gradient-3" cx="768.58" cy="254.2" r="194.84" xlink:href="#radial-gradient"/><radialGradient id="radial-gradient-4" cx="1077.15" cy="253.89" r="194.84" xlink:href="#radial-gradient"/><radialGradient id="radial-gradient-5" cx="1232.61" cy="253.9" r="116.9" xlink:href="#radial-gradient"/><linearGradient id="linear-gradient" x1="2626.31" y1="-561.61" x2="2553.32" y2="-208.73" gradientTransform="matrix(0.84, 0.01, 0.01, -0.84, -652.49, 31.63)" gradientUnits="userSpaceOnUse"><stop offset="0" stop-color="#1f1f1f"/><stop offset="0.6" stop-color="#090909"/><stop offset="1"/></linearGradient><linearGradient id="linear-gradient-2" x1="2090.09" y1="-982.37" x2="2109.34" y2="-957.77" gradientTransform="matrix(0.76, -0.34, -0.34, -0.76, -492.7, 269.78)" gradientUnits="userSpaceOnUse"><stop offset="0" stop-color="#ececec"/><stop offset="1" stop-color="#fff"/></linearGradient><linearGradient id="linear-gradient-3" x1="2144.05" y1="-1048.61" x2="2159.02" y2="-1019.98" gradientTransform="matrix(0.76, -0.34, -0.34, -0.76, -492.7, 269.78)" gradientUnits="userSpaceOnUse"><stop offset="0" stop-color="#b3b3b3"/><stop offset="1" stop-color="#fff"/></linearGradient><linearGradient id="linear-gradient-4" x1="2218.79" y1="-1065.26" x2="2243.04" y2="-1045.74" xlink:href="#linear-gradient-3"/><linearGradient id="linear-gradient-5" x1="2292.58" y1="-1099.26" x2="2316.59" y2="-1076.95" xlink:href="#linear-gradient-3"/><linearGradient id="linear-gradient-6" x1="2212.85" y1="-809.34" x2="2220.44" y2="-904.76" gradientTransform="matrix(0.8, -0.25, -0.25, -0.8, -538.85, 154.18)" gradientUnits="userSpaceOnUse"><stop offset="0" stop-color="#ccc"/><stop offset="1" stop-color="#fff"/></linearGradient><linearGradient id="linear-gradient-7" x1="2289.25" y1="-803.26" x2="2296.84" y2="-898.68" xlink:href="#linear-gradient-6"/><linearGradient id="linear-gradient-8" x1="2365.63" y1="-797.19" x2="2373.22" y2="-892.61" xlink:href="#linear-gradient-6"/><linearGradient id="linear-gradient-9" x1="2442.02" y1="-791.12" x2="2449.61" y2="-886.54" xlink:href="#linear-gradient-6"/><linearGradient id="linear-gradient-10" x1="2520.08" y1="-318.53" x2="2446.84" y2="-235.31" gradientTransform="matrix(0.84, 0.01, 0.01, -0.84, -652.48, 31.6)" gradientUnits="userSpaceOnUse"><stop offset="0" stop-color="#292929"/><stop offset="0.1" stop-color="#212121"/><stop offset="0.47" stop-color="#090909"/><stop offset="0.69"/></linearGradient></defs><title>Asset 2</title><g id="Layer_2" data-name="Layer 2"><g id="Layer_1-2" data-name="Layer 1"><rect class="cls-1" x="21.9" y="19" width="1817" height="61"/><rect class="cls-1" x="21.9" y="366" width="1817" height="61"/><rect class="cls-2" x="474.06" y="90.46" width="442.62" height="265.01"/><rect class="cls-3" x="8.32" y="90.01" width="442.62" height="265.01"/><rect class="cls-4" x="928.98" y="86.26" width="456.67" height="273.42"/><rect class="cls-5" x="1392.68" y="85.89" width="456.67" height="273.42"/><line class="cls-6" x1="1854.62" y1="359.32" x2="1854.62" y2="85.9"/><path d="M0,.62H1852.84v445H0V.62M32,31.69c-5,6.51-2.82,14.51-3.32,21.76.33,5.56-1,11.75,2.66,16.74,6.6,2.1,13.9,1,20.81,1.28,3.75-.08,9.24.17,10.55-3.48,1.77-6.29.44-12.83.83-19.23C63.23,43,65,36.69,60.65,31.66c-9.55.14-19.09-.1-28.65,0m185.25-.05c-3.66,7.75-1.36,16.12-1.78,24.18.07,4.45-1,9.13,1,13.38,1.11,2.6,5.13,2,7.78,2.24,8.1-.22,16.63,1,24.32-1.65,1.54-9.3.75-18.72.88-28.06-.48-3.18.19-7.28-3.08-9.6-9.64-1.28-19.44-.11-29.15-.49m186.25.45c-3.1,1.4-2.36,4.81-2.75,7.23.09,10.19-.36,20.39.55,30.56,8.2,2.66,17.22,1.33,25.81,1.51,3.82.3,7.91-1.92,7.74-5.25.2-10.37.32-20.74.13-31.11l-4-3.34c-9.12.29-18.36-.78-27.45.4m93-.44a11.18,11.18,0,0,0-3.41,8.88c.18,9.81-.52,19.65.68,29.42,9.25,2.5,19.21,1.4,28.76,1.31,4,.06,5.24-3.48,5.26-6.12.25-7.82-.09-15.65.11-23.48-.11-3.28.38-7.52-3.51-9.57-9.27-1-18.63-.25-27.9-.44m92.28.44c-2.76,1.59-2.17,4.81-2.75,7.22-.19,10.17-.58,20.42.71,30.57,7.67,2.61,16.14,1.31,24.2,1.58,3.63.35,6.83-1,9.6-2.81-.25-11.67-.08-23.33-.1-35-6-2.92-13.1-1.84-19.72-2-4,.06-8-.19-11.89.43M869.23,32c-4.83.7-4.59,5.46-4.52,8.51.42,9.56-.56,19.17.47,28.7,4.19,2.78,9.94,2.18,15,2.31,5.88-.15,12.07.55,17.66-1.35,1.35-9.44.16-19,.61-28.46-.3-3.25,1.18-7.9-3.37-9.62A160.41,160.41,0,0,0,869.23,32m88.89,3.67c-1.57,5.45-.83,11.1-1,16.64.14,6.18-1.16,12.75,2.75,18.4a167.46,167.46,0,0,0,24.54.67c3,0,6.27-1.47,6.79-4,1.51-6.51.06-13.16.11-19.74-.09-3.84.49-7.71-.33-11.51a5.45,5.45,0,0,0-5.51-4.24,177.8,177.8,0,0,0-22.5.07,5,5,0,0,0-4.94,3.74m92.28,1.62c-.53,8.15,0,16.32-.29,24.47.11,3-.5,6.81,3.09,8.72,3.75,1.58,8.21.81,12.27,1,5.89-.26,12.16.74,17.75-1.2,2.44-8.21.56-16.71.91-25.05-.25-4.58,1.4-9.82-2.72-13.58-8.12.12-16.24-.45-24.34.19-3.5,0-6.69,2.59-6.64,5.42m279.06-3.73c.06,7-1.53,14.07-.49,21.1.71,5.16-.17,10.41,1,15.53,10.24,2.44,21.34,1.34,31.83.46,1.55-8,.82-16.13,1-24.21-.13-5,.75-10.69-3.59-14.8-9.88.92-20.59-1.92-29.75,1.92m375-1.55a4.23,4.23,0,0,0-3.71,3.89c-.67,4.68-.11,9.41-.32,14.12-.11,5.42-1.39,10.82-.71,16.25a5.59,5.59,0,0,0,5.47,5c7.24.38,14.52.24,21.78.1,2.91.06,6.72-1.26,6.63-4,.49-10.08.32-20.19.14-30.28.33-2.7-2.24-5.39-5.7-5.26-7.82-.21-15.75-.52-23.57.19m93.93-.07c-2.57.16-4.88,1.84-5.11,3.94-.87,5.85-.09,11.75-.29,17.62.06,5.61-.79,11.42,1.48,16.85,4.19,1.6,9,1,13.49,1.16,5.93-.16,12.12.54,17.86-1.14,2-6.29.61-12.83.73-19.23-.15-4.7.69-9.4.21-14.08a5.84,5.84,0,0,0-6.08-5.2,192.78,192.78,0,0,0-22.29.08m-1675.79,4c-.8,7.38,0,14.82-.33,22.24.2,3.75-.48,7.72,1.08,11.34,2.68,1.88,6.4,1.9,9.75,2a175.21,175.21,0,0,0,21.75-.71c1.74-6.46.78-13.11,1-19.65-.1-6,.5-12-.5-18-8.08-2.27-16.81-1.13-25.18-1.28-3.34-.23-7.4,1-7.6,4.1m186.14-3.65c-1.68,8.56-.63,17.25-1,25.87.12,3.41-.44,6.94.77,10.24,1.23,2.74,5.31,3.06,8.39,3.07,6.74,0,13.51.34,20.21-.32,5.26-.81,4.59-6.14,4.68-9.4-.82-8.95,0-17.92-.59-26.86.16-2.37-3-3.06-5.35-3-9-.18-18.11-.29-27.12.4m372.12.3c-2.84,3.75-2.08,8.44-2.15,12.66.84,8.47-1.13,17.12,1.8,25.43a162.84,162.84,0,0,0,25.85.61c3.2-.16,7.07-1.78,6.47-4.85.07-9.18-.43-18.39.23-27.57.4-2.92-.65-7-5.21-6.91-9,0-18.17-.92-27,.63m94-.14c-3,1.34-2.25,4.58-2.56,6.9.23,9.39-.31,18.8.24,28.18-.29,3.4,4.4,4.09,7.61,3.93,8-.17,16.25.65,24.17-.76,2.55-4.26,1.37-9.17,1.47-13.73-.42-7.24,1-14.54-.43-21.73-.9-3.34-5.76-3.56-9.15-3.45-7.15.21-14.46-.62-21.41.66m369,0c-.79,9.35.57,18.72-.39,28.06.22,3.29-.79,7.38,2.24,10,9.58,1.79,19.7,1,29.43.23a19.77,19.77,0,0,0,1.94-12.57c-1.51-7.37,1.72-14.8-.12-22.14-.67-1.77-1.72-4.11-4.49-4a201,201,0,0,0-28.61.45m94.18.06c-1.86,2.36-1.65,5.28-1.78,8,0,6.67.17,13.35-.22,20,.11,2.79-.52,5.86,1.2,8.42,2.61,3.15,8,2.35,12,2.57,6.4-.2,13.12.65,19.24-1.29,2.1-2.48,1.4-5.68,1.61-8.52-.28-8.61.24-17.21-.2-25.81,0-3.13-4.36-4.28-7.55-4.06-8.08.16-16.31-.7-24.24.7m183.33,8c.84,8.62-.49,17.27.43,25.87,0,2.92,3.31,5.13,6.81,5,7.22.15,14.54.47,21.74-.32,4.86-.35,4.84-5.13,4.94-8.11-.34-10.17.73-20.4-.82-30.52-9-.92-18.21-.7-27.28-.51-5.67-.36-5.72,5.35-5.77,8.6m93,0c.36,9.33-.72,18.76,1.06,28,.17,2.39,3.61,2.39,5.81,2.76a180.13,180.13,0,0,0,25.66-.43,105,105,0,0,0,.17-38.35,165.23,165.23,0,0,0-28.57-.33c-4.74.72-4,5.43-4.17,8.32m93,.06c.58,10.09-.49,20.24,1.07,30.27,10.73.94,21.68,1.17,32.35-.37.68-10.37.25-20.75.39-31.13,0-2.65,0-6.55-4.17-7.13-8.11-.74-16.33-.41-24.46-.26-5.72-.32-5.2,5.5-5.25,8.62M10.39,90.19c0,88.21-.32,176.44.19,264.65q218.1-.15,436.21,0c1-14.73.25-29.49.47-44.23V100.44c0-3.42-.24-6.84-.45-10.25-12.41.25-24.8-.29-37.19-.2-20.75-.14-41.5.64-62.24.05-30.42-.18-60.81.63-91.21,0Q169.3,90,82.46,90c-24,.38-48,.25-72.07.18m463.16,0c-.12,88.22-.24,176.46.19,264.68q218.22-.18,436.45,0c.85-9.26.34-18.53.47-27.81,1.36-31.3.46-62.65.69-94-1.9-30.51.43-61,0-91.54.13-17.11,0-34.22-1.19-51.31-29.82-.28-59.65-.2-89.47-.21-86.38.09-172.75-.23-259.11.24-29.39-.61-58.74.05-88.08-.07m464.26,0c-.8,21.39-.13,42.81-.35,64.21V274.21c.2,26.76-.42,53.53.33,80.28,77.74.44,155.48.07,233.22.2,66.59,0,133.19.07,199.77-.05,5,.7,4.73-3.63,4.81-6.43-.31-74.37.21-148.76-.09-223.14-.44-11.63.59-23.27-.78-34.88-28.83.24-57.64-.4-86.46-.18-74.31.2-148.62.43-222.93,0-42.46-.21-85,.37-127.48.21m464.44,0c-.75,33.93.2,67.89-.56,101.82,0,54.34,0,108.65.54,163q36.36-.08,72.75,0c21.21,1,42.46.35,63.69.54,21.72-.19,43.46.47,65.14-.55q39.09,0,78.17,0c32.82.2,65.65-.51,98.43.56,19.28.34,38.52-.76,57.8-.63,1.34-11.2.36-22.48.65-33.71-.27-77,.62-154-.58-231-90.7,0-181.4-.37-272.1-.21-54.66-.18-109.32.51-164,.18M33.83,378.18a4.7,4.7,0,0,0-4,5.16c-.15,6.9-.33,13.82-.47,20.72.23,3.88-.24,8,1.7,11.61,5.82,2.78,13,1.8,19.52,2.06,4.39-.06,10.92.09,12.28-4.24,1.24-8.42.21-17,.61-25.42,0-3.54.6-8.79-4.84-9.89a153.74,153.74,0,0,0-24.84,0m91.66.25c-4.52,2.83-3,8-3.32,12,.51,8.46-1,17.08,1.13,25.41,7.07,2.8,15.29,1.67,22.87,1.78,3.83-.07,10.05-.75,9.55-4.93.23-10.78.21-21.6-.11-32.38-.92-.78-1.85-1.54-2.77-2.3-9.08,0-18.38-1-27.35.4m93.63-.2c-3.85,1-4.51,4.7-4.46,7.5,0,7.81-.1,15.63.09,23.44.17,2.83.34,6.78,4.61,7.55a83.59,83.59,0,0,0,27.29-.13c2.8-3.52,2.18-8,2.46-12-.28-8.06.73-16.21-1.08-24.18-.58-3-5-2.44-7.74-2.63-7.06.09-14.18-.38-21.17.48m88.63,6.28c0,8.65-.16,17.32.07,26,.28,2.37.27,5.84,3.85,6.53,7,1.19,14.17.63,21.25.59,3.25-.11,8.18-.47,8.53-3.84.91-6.19-.71-12.43.16-18.64.72-5.78.84-11.69-1.54-17.24-9.07.05-18.16-.44-27.22.11-3.81.25-5.36,3.82-5.1,6.51m95.62-6.12c-3.93,3.54-2.3,8.88-2.73,13.25.57,8.34-1.2,16.87,1.17,25.07a92.82,92.82,0,0,0,31.76-.51c1.5-9.73.79-19.55.95-29.32a12.48,12.48,0,0,0-3.17-9c-9.3.35-18.81-.93-28,.52m93.68-.21c-3.42,1.34-3.57,4.87-3.8,7.53-.39,7.46-.23,14.93-.21,22.4.24,3,0,7.3,4.24,8.59,4.85,1.3,10.06,1,15.08,1.05,4.56-.13,9.6.06,13.52-2.18,1.25-2.77,1-5.78,1.1-8.66,0-8.88,1-17.83-.78-26.64-.45-2.51-4.23-2.29-6.56-2.4-7.52.05-15.13-.55-22.59.31m92.48-.22c-.92.79-1.85,1.58-2.78,2.35-.37,10.06.31,20.14-.71,30.19,0,2.57.58,6.51,4.66,6.72,7.13.77,14.39.55,21.57.37,3.45,0,8.55-1.34,8.05-4.86.08-9.4,0-18.8,0-28.2.27-2.8-1.32-6.63-5.47-6.56-8.39-.46-16.89-.12-25.33,0m90,2.38c-.65,3.74-.29,7.52-.46,11.27-.21,7.92-1.4,16,1,23.81,4.16,2.6,9.79,2.09,14.74,2.32,5.63-.2,11.94.61,16.92-2,1.7-3.12,1.43-6.63,1.35-10-.56-8.64,0-17.29,0-25.94-5.8-3.29-13.18-1.61-19.77-2-4.63.23-10.55-.83-13.79,2.57m95.42-2.19-1.16.18c-2.91,5.61-1,12-1.49,18,.54,6.43-1.31,13.24,1.07,19.43,6.27,3.21,14.3,1.65,21.34,1.82,3.75-.43,10.08,0,10.72-4.08,1.07-8.82-.26-17.75.38-26.62-.22-3,.73-8.15-4.21-8.8a201,201,0,0,0-26.66.07m89.76,5.31c-.21,10.54.13,21.08-.1,31.61,6.54,4,15.12,2.31,22.73,2.63,3.64-.28,9.3.49,10.76-3.13,3.35-8.66-.73-17.66.21-26.5-.34-3.28,1.21-7.82-3-9.87-8.39-.78-16.93-.46-25.38-.26a4.88,4.88,0,0,0-5.31,5.52m97-5.28a3.84,3.84,0,0,0-3.43,3c-2,6.88-1,14-1.24,21,.11,4-.55,8.2.84,12.15,1.39,3.53,6.75,3.12,10.4,3.35,6.92-.2,14.17.79,20.87-1,3.09-2.57,2.42-6.5,2.63-9.77-.25-7.47.26-14.94-.23-22.39-.31-2.44-.89-6.16-4.67-6.46a181.44,181.44,0,0,0-25.11.11m90.68-.22c-4.17,9.65-1.51,20.09-2.28,30.11.49,3-1.13,8.42,3.92,9.05,7.07,1,14.32.58,21.47.48,2.76-.29,7.17-.08,7.92-2.93,1.55-6.44.3-13,.51-19.52-.19-4.92.63-9.93-.55-14.78-.61-1.84-3-2.48-5.11-2.46-8.6-.36-17.25-.06-25.89,0m92.59-.07a16.45,16.45,0,0,0-1.65,11.35c1.45,8.75-1.38,17.65,1,26.32,1.92,1.74,5,1.83,7.71,2a148.74,148.74,0,0,0,17.41-.19c2.77-.31,6.54-1,7-3.72,1.6-5.3.63-10.82.7-16.21-.29-5.06.64-10.17-.29-15.21-.41-2.48-3.16-4.29-6.18-4.3-8.55-.45-17.14-.1-25.74-.08m93.62.68c-3.81,4.86-2.37,11.11-2.47,16.59.84,6.79-.9,13.73.9,20.44,3.4,2.16,8,2,12.07,2.12,5.25,0,10.54.24,15.74-.42,1.67-.28,4-.91,4.21-2.52,1.15-4.92.45-10,.58-14.93-.23-7.32,1-14.83-1.75-21.94-9.73.29-19.82-1.11-29.29.66m95.07-.41c-2,.27-4.29,1.31-4.32,3.16-.8,5.37.29,10.79-.27,16.18-.64,5.95-.94,12.05.89,17.91,5,3,11.76,2.09,17.63,2.32,4.48-.28,9.83.36,13.44-2.27,2.34-3.29,1.5-7.28,1.69-10.91-.31-7.42.39-14.86-.28-22.25-.26-3.08-4.41-4.36-7.68-4.37a162.12,162.12,0,0,0-21.16.23m91.26.07c-3.78,1.34-3.28,5.8-3.62,8.65.51,7.47.2,14.94,0,22.42.4,2.78-.21,7.59,4.69,7.78a104.56,104.56,0,0,0,25.25-.09c4.12-.84,3.8-5,4-7.69-.11-8.66.09-17.31,0-25.95.15-2.85-2.76-5.7-6.43-5.47-8-.13-16-.46-24,.35m89.91,4.23c-.84,8.14-.2,16.33-.45,24.49a19.2,19.2,0,0,0,2.58,10.16c9.74.43,19.84,1.51,29.41-.52,3-3.06,2-7.24,2.25-10.86-.32-7.76.45-15.56-.4-23.3,0-2.8-3.52-4.62-6.72-4.51-7.12-.23-14.29-.38-21.39.1-2.84.05-5.25,2.12-5.2,4.44M1610,378l-2.76,2.37c.06,11.7-.87,23.47.51,35.11,2.92,1.9,6.81,2.1,10.42,2.24,7.6.18,15.34.33,22.69-1.5a317.77,317.77,0,0,0-.08-35.86c-1-.76-1.9-1.52-2.8-2.28-9.32-.34-18.63-.33-28-.08m92.18,0c-2.92,5.84-1.56,12.25-1.79,18.37.18,6.54-.6,13.14.54,19.66,2.41,1.44,5.53,1.49,8.43,1.65,8.05.18,16.29.46,24.13-1.43,1.14-10.55,0-21.12.27-31.69-.21-2.07.25-4.75-2.25-6-9.57-2.32-19.61-.4-29.34-.55m93.21.23c-4.59,3.19-3.4,9-3.75,13.48.33,8.51-1.2,17.42,3.23,25.45a194.33,194.33,0,0,0,24.61.41c2.37-.22,5.9-.52,6.51-2.86,1.71-7.21.31-14.57.56-21.84-.17-5,1.2-10.54-2.76-14.85-9.47,0-19-.65-28.41.21Z"/><path d="M1853.06,445V0"/><path d="M961.79,248.32a18.71,18.71,0,0,1-7.65-1.54,17.71,17.71,0,0,1-6-4.32,19.94,19.94,0,0,1-3.94-6.64,24.84,24.84,0,0,1-1.41-8.54,24.49,24.49,0,0,1,1.41-8.5,20,20,0,0,1,3.94-6.62,17.71,17.71,0,0,1,6-4.32,18.87,18.87,0,0,1,7.65-1.54h6.87v4.22h-6.87a15.46,15.46,0,0,0-6.14,1.2,14.06,14.06,0,0,0-4.85,3.4,15.44,15.44,0,0,0-3.18,5.29,19.72,19.72,0,0,0-1.14,6.87,20,20,0,0,0,1.14,6.9,15.3,15.3,0,0,0,3.18,5.32,13.92,13.92,0,0,0,4.85,3.4,15.46,15.46,0,0,0,6.14,1.2h6.87v4.22Zm0-6.61a13.41,13.41,0,0,1-5.19-1,12,12,0,0,1-4.19-2.87,13.41,13.41,0,0,1-2.78-4.53,17,17,0,0,1-1-6,16.81,16.81,0,0,1,1-5.95,13.36,13.36,0,0,1,2.78-4.54,12.14,12.14,0,0,1,4.19-2.87,13.41,13.41,0,0,1,5.19-1h6.87v4.22h-6.87a9.34,9.34,0,0,0-6.77,2.52q-2.61,2.52-2.61,7.62t2.61,7.65a9.25,9.25,0,0,0,6.77,2.56h6.87v4.22Z"/><path d="M972.75,206.3h3.85v42h-3.85Zm9.77,42h-3.78v-42h3.78Z"/><path d="M987.5,223.25a22.6,22.6,0,0,1,1.1-7.34,15.44,15.44,0,0,1,3.15-5.51,13.73,13.73,0,0,1,4.94-3.5,17.74,17.74,0,0,1,13,0,13.86,13.86,0,0,1,5,3.5,15.75,15.75,0,0,1,3.15,5.51,22.87,22.87,0,0,1,1.1,7.34v25.07H1015V223.25a16.82,16.82,0,0,0-.95-5.92,11.72,11.72,0,0,0-2.55-4.16,10.45,10.45,0,0,0-3.75-2.46,12.9,12.9,0,0,0-4.6-.82,13.19,13.19,0,0,0-4.63.82,10.4,10.4,0,0,0-3.78,2.46,11.72,11.72,0,0,0-2.55,4.16,16.83,16.83,0,0,0-.94,5.92v25.07H987.5Zm5.92,0a14.54,14.54,0,0,1,.75-4.92,9.58,9.58,0,0,1,2.08-3.43,8.07,8.07,0,0,1,3.12-2,11.45,11.45,0,0,1,3.81-.63,11.11,11.11,0,0,1,3.78.63,8,8,0,0,1,3.09,2,9.44,9.44,0,0,1,2.08,3.43,14.53,14.53,0,0,1,.76,4.92v25.07h-3.78V223.25c0-2.44-.55-4.23-1.64-5.39a5.66,5.66,0,0,0-4.29-1.73,5.73,5.73,0,0,0-4.31,1.73c-1.12,1.16-1.67,2.95-1.67,5.39v25.07h-3.78Z"/><path d="M1023.78,248.32v-42h19.28v4.22h-15.43V244.1H1043v4.22Zm5.93-22.49V212.92h13.35v4.22h-9.51v4.47h9.2v4.22Zm0,15.88V228.22h13v4.23h-9.2v5H1043v4.22Z"/><path d="M1046.65,223.25a22.87,22.87,0,0,1,1.1-7.34,15.75,15.75,0,0,1,3.15-5.51,13.86,13.86,0,0,1,4.95-3.5,16.47,16.47,0,0,1,6.49-1.23,14.08,14.08,0,0,1,6.46,1.39,12.25,12.25,0,0,1,4.31,3.46,11,11,0,0,1,4.29-3.46,14.65,14.65,0,0,1,6.55-1.39,16.5,16.5,0,0,1,6.49,1.23,13.73,13.73,0,0,1,4.94,3.5,15.44,15.44,0,0,1,3.15,5.51,22.59,22.59,0,0,1,1.11,7.34v25.07h-3.85V223.25a16.83,16.83,0,0,0-.94-5.92,11.72,11.72,0,0,0-2.55-4.16,10.63,10.63,0,0,0-3.75-2.46,12.9,12.9,0,0,0-4.6-.82,10.33,10.33,0,0,0-3.37.57,11.24,11.24,0,0,0-3.09,1.61,12.66,12.66,0,0,0-2.55,2.52,11.32,11.32,0,0,0-1.76,3.24,14.86,14.86,0,0,0-3.94-5.76,10.14,10.14,0,0,0-6.9-2.18,13.15,13.15,0,0,0-4.63.82,10.4,10.4,0,0,0-3.78,2.46,11.72,11.72,0,0,0-2.55,4.16,16.82,16.82,0,0,0-1,5.92v25.07h-3.78Zm21.61,0a10.26,10.26,0,0,0-.47-3.31,6,6,0,0,0-1.29-2.2,4.83,4.83,0,0,0-1.89-1.23,6.84,6.84,0,0,0-2.27-.38,5.75,5.75,0,0,0-4.32,1.73c-1.11,1.16-1.67,2.95-1.67,5.39v25.07h-3.78V223.25a14.53,14.53,0,0,1,.76-4.92,9.44,9.44,0,0,1,2.08-3.43,8,8,0,0,1,3.12-2,11.36,11.36,0,0,1,3.81-.63,12,12,0,0,1,3.78.59,8.22,8.22,0,0,1,3.09,1.89,8.88,8.88,0,0,1,2.07,3.38,14.82,14.82,0,0,1,.76,5.1v25.07h-3.78Zm5.92,0a14.29,14.29,0,0,1,.76-4.92,9.44,9.44,0,0,1,2.08-3.43,8,8,0,0,1,3.12-2,11.36,11.36,0,0,1,3.81-.63,11.19,11.19,0,0,1,3.78.63,8.08,8.08,0,0,1,3.08,2,9.31,9.31,0,0,1,2.08,3.43,14.29,14.29,0,0,1,.76,4.92v25.07h-3.78V223.25c0-2.44-.55-4.23-1.64-5.39a5.64,5.64,0,0,0-4.28-1.73,5.11,5.11,0,0,0-4.48,2.05,8.57,8.57,0,0,0-1.44,5.07v25.07h-3.85Z"/><path d="M1107.51,248.32h-3.78V223.25a22.87,22.87,0,0,1,1.1-7.34,15.75,15.75,0,0,1,3.15-5.51,13.86,13.86,0,0,1,5-3.5,17.74,17.74,0,0,1,13,0,13.73,13.73,0,0,1,4.94,3.5,15.44,15.44,0,0,1,3.15,5.51,22.6,22.6,0,0,1,1.1,7.34v25.07h-3.84V223.25a16.83,16.83,0,0,0-.94-5.92,11.6,11.6,0,0,0-2.56-4.16,10.5,10.5,0,0,0-3.74-2.46,12.94,12.94,0,0,0-4.6-.82,13.11,13.11,0,0,0-4.63.82,10.4,10.4,0,0,0-3.78,2.46,11.6,11.6,0,0,0-2.56,4.16,16.83,16.83,0,0,0-.94,5.92Zm21.61-17.76h-19.47v-7.31a14.29,14.29,0,0,1,.76-4.92,9.31,9.31,0,0,1,2.08-3.43,8,8,0,0,1,3.11-2,11.47,11.47,0,0,1,3.82-.63,11.19,11.19,0,0,1,3.78.63,8.08,8.08,0,0,1,3.08,2,9.31,9.31,0,0,1,2.08,3.43,14.29,14.29,0,0,1,.76,4.92Zm-3.78,17.76v-11.4h-11.91v11.4h-3.78V233h19.47v15.37Zm0-21.61v-3.46c0-2.44-.55-4.23-1.64-5.39a5.64,5.64,0,0,0-4.28-1.73,5.74,5.74,0,0,0-4.32,1.73c-1.11,1.16-1.67,2.95-1.67,5.39v3.46Z"/><path d="M1201.47,221.74V226H1190v-4.22ZM1190,232.51v-4.22h11.47v4.22Z"/><path d="M1254.73,222.18v26.14h-12.09a18.72,18.72,0,0,1-7.66-1.54,17.57,17.57,0,0,1-6-4.32,19.61,19.61,0,0,1-3.94-6.64,24.6,24.6,0,0,1-1.42-8.54,24.26,24.26,0,0,1,1.42-8.5,19.71,19.71,0,0,1,3.94-6.62,17.57,17.57,0,0,1,6-4.32,18.89,18.89,0,0,1,7.66-1.54h12.09v4.22h-12.09a15.47,15.47,0,0,0-6.15,1.2,14.15,14.15,0,0,0-4.85,3.4,15.76,15.76,0,0,0-3.18,5.29,20,20,0,0,0-1.13,6.87,20.22,20.22,0,0,0,1.13,6.9,15.61,15.61,0,0,0,3.18,5.32,14,14,0,0,0,4.85,3.4,15.47,15.47,0,0,0,6.15,1.2H1251V226.4h-10.71v-4.22Zm-12.09,19.53a13.42,13.42,0,0,1-5.2-1,12,12,0,0,1-4.19-2.87,13.24,13.24,0,0,1-2.77-4.53,16.82,16.82,0,0,1-1-6,16.58,16.58,0,0,1,1-5.95,13.19,13.19,0,0,1,2.77-4.54,12.14,12.14,0,0,1,4.19-2.87,13.42,13.42,0,0,1,5.2-1h12.09v4.22h-12.09a9.37,9.37,0,0,0-6.78,2.52q-2.61,2.52-2.61,7.62t2.61,7.65a9.27,9.27,0,0,0,6.78,2.56H1245v-5h-4.79v-4.23h8.51v13.49Z"/><path d="M1277.79,248.32a18.71,18.71,0,0,1-7.65-1.54,17.61,17.61,0,0,1-6-4.32,19.94,19.94,0,0,1-3.94-6.64,24.84,24.84,0,0,1-1.42-8.54,24.49,24.49,0,0,1,1.42-8.5,20,20,0,0,1,3.94-6.62,17.61,17.61,0,0,1,6-4.32,18.87,18.87,0,0,1,7.65-1.54h1.51a18.92,18.92,0,0,1,7.66,1.54,17.67,17.67,0,0,1,6,4.32,19.88,19.88,0,0,1,3.94,6.62,24.26,24.26,0,0,1,1.42,8.5,24.6,24.6,0,0,1-1.42,8.54,19.77,19.77,0,0,1-3.94,6.64,17.67,17.67,0,0,1-6,4.32,18.75,18.75,0,0,1-7.66,1.54Zm-15.31-21a20.22,20.22,0,0,0,1.13,6.9,15.47,15.47,0,0,0,3.19,5.32,13.92,13.92,0,0,0,4.85,3.4,15.43,15.43,0,0,0,6.14,1.2h1.51a15.27,15.27,0,0,0,6.08-1.2,13.92,13.92,0,0,0,4.85-3.4,15.3,15.3,0,0,0,3.18-5.32,20,20,0,0,0,1.14-6.9,19.72,19.72,0,0,0-1.14-6.87,15.44,15.44,0,0,0-3.18-5.29,14.06,14.06,0,0,0-4.85-3.4,15.27,15.27,0,0,0-6.08-1.2h-1.51a15.43,15.43,0,0,0-6.14,1.2,14.06,14.06,0,0,0-4.85,3.4,15.62,15.62,0,0,0-3.19,5.29A20,20,0,0,0,1262.48,227.28Zm15.31,14.49a13.46,13.46,0,0,1-5.2-1,11.91,11.91,0,0,1-4.19-2.9,13.73,13.73,0,0,1-2.77-4.56,17,17,0,0,1-1-6,16.8,16.8,0,0,1,1-5.95,13.68,13.68,0,0,1,2.77-4.57,11.91,11.91,0,0,1,4.19-2.9,13.46,13.46,0,0,1,5.2-1h1.51a13.24,13.24,0,0,1,5.17,1,12.07,12.07,0,0,1,4.16,2.9,13.68,13.68,0,0,1,2.77,4.57,16.8,16.8,0,0,1,1,5.95,17,17,0,0,1-1,6,13.73,13.73,0,0,1-2.77,4.56,12.07,12.07,0,0,1-4.16,2.9,13.24,13.24,0,0,1-5.17,1Zm1.51-4.22a9.22,9.22,0,0,0,6.77-2.58q2.63-2.59,2.62-7.69t-2.65-7.62a9.26,9.26,0,0,0-6.74-2.59h-1.51a9.25,9.25,0,0,0-6.77,2.56q-2.62,2.55-2.62,7.65T1271,235a9.22,9.22,0,0,0,6.77,2.58Z"/><path d="M1302.42,248.32v-42h19.28v4.22h-15.44V244.1h15.38v4.22Zm5.92-22.49V212.92h13.36v4.22h-9.51v4.47h9.2v4.22Zm0,15.88V228.22h13.05v4.23h-9.2v5h9.45v4.22Z"/><path d="M1338.65,210.52q-9.59,0-9.58,10.52v27.28h-3.78V221q0-7.11,3.53-10.93t9.83-3.81h7.87v4.22Zm0,6.62a3.91,3.91,0,0,0-2.93.85,4.47,4.47,0,0,0-.79,3v27.28h-3.84V221q0-4.47,2-6.3a8,8,0,0,1,5.52-1.82h7.87v4.22Z"/><path d="M1349.92,241.71v-4.22h14.68a2.48,2.48,0,0,0,1.8-.7,2.66,2.66,0,0,0,.72-2,2.4,2.4,0,0,0-.82-2,2.66,2.66,0,0,0-1.7-.66h-3.21a12.81,12.81,0,0,1-5-.94,12,12,0,0,1-3.94-2.65,12.15,12.15,0,0,1-2.61-4.09,14.32,14.32,0,0,1-.94-5.3,14.92,14.92,0,0,1,.88-5.26,11.64,11.64,0,0,1,2.49-4.06,10.94,10.94,0,0,1,3.84-2.62,13.31,13.31,0,0,1,5-.91h14.3v4.22h-14.3a8.27,8.27,0,0,0-6.15,2.33,8.61,8.61,0,0,0-2.3,6.3,9.51,9.51,0,0,0,.67,3.63,8.16,8.16,0,0,0,1.82,2.74,8.29,8.29,0,0,0,2.78,1.76,9.29,9.29,0,0,0,3.43.63h3a5.94,5.94,0,0,1,2.46.54,7.39,7.39,0,0,1,2.14,1.44,7.49,7.49,0,0,1,1.55,2.18,6.35,6.35,0,0,1,.59,2.71,7,7,0,0,1-1.85,4.94,6.08,6.08,0,0,1-4.63,2Zm0,6.61V244.1h14.75a9.93,9.93,0,0,0,3.55-.63,7.93,7.93,0,0,0,2.87-1.83,8.53,8.53,0,0,0,1.89-2.89,10.37,10.37,0,0,0,.69-3.91,9.91,9.91,0,0,0-.75-3.91,8.76,8.76,0,0,0-2.05-3,9.76,9.76,0,0,0-3-1.86,9.42,9.42,0,0,0-3.5-.66h-3a6.21,6.21,0,0,1-4.35-1.67,5.85,5.85,0,0,1-1.82-4.56,6.5,6.5,0,0,1,1.57-4.6,5.61,5.61,0,0,1,4.35-1.7h14.3v4.22h-14.18a1.87,1.87,0,0,0-1.6.63,2.32,2.32,0,0,0-.48,1.45,2.07,2.07,0,0,0,.57,1.44,1.91,1.91,0,0,0,1.51.64h3.15a13.12,13.12,0,0,1,5.07,1,12.41,12.41,0,0,1,4.13,2.77,12.94,12.94,0,0,1,2.77,4.29,14.57,14.57,0,0,1,1,5.51,15.39,15.39,0,0,1-.94,5.51,12.49,12.49,0,0,1-2.65,4.26,12,12,0,0,1-4,2.74,13.13,13.13,0,0,1-5.1,1Z"/><path d="M1183,214l-.08-.09a2.42,2.42,0,0,0-3.71.19l-3.7,4.92a.46.46,0,0,1-.76,0l-6.91-6.63a2.79,2.79,0,0,0-2-.79l-8.26.41a.59.59,0,0,0-.44.21l-6.58,8.19a3.72,3.72,0,0,0,.07,4.37,2.33,2.33,0,0,0,3.79-.19l4.61-6.4,1.75-.08L1150,233.88l-7.12.36a3.34,3.34,0,0,0-3,3.54,3.7,3.7,0,0,0,1,2.63,3.1,3.1,0,0,0,2.25,1l10.61-.53a.63.63,0,0,0,.51-.3l5.11-7.13,4.83,5.38-.84,10.4a3.85,3.85,0,0,0,1.87,4.11,2.45,2.45,0,0,0,1.31.29,2.64,2.64,0,0,0,1.35-.43,3.69,3.69,0,0,0,1.47-2.48l1.6-15a1.47,1.47,0,0,0-.27-.79l-6.66-7.07,4.7-6.13,4.77,4.77a2.35,2.35,0,0,0,3.64-.19l6.13-8A3.47,3.47,0,0,0,1183,214Zm-.91,3.08-6.13,8a1,1,0,0,1-1.51.08l-5.33-5.37a.66.66,0,0,0-1.06.05l-5.71,7.43a.92.92,0,0,0-.19.64,1,1,0,0,0,.34.7l6.9,7.33-1.55,14.45a2.34,2.34,0,0,1-.78,1.2,1.31,1.31,0,0,1-1.28.07,2.07,2.07,0,0,1-1-2.19l.89-10.94a1.11,1.11,0,0,0-.26-.7l-5.71-6.32a.66.66,0,0,0-.55-.24.54.54,0,0,0-.51.3l-5.4,7.5-10.3.52a1.43,1.43,0,0,1-1.16-.48,2.42,2.42,0,0,1-.45-1.32A1.65,1.65,0,0,1,1143,236l7.43-.38c.22,0,.37-.1.52-.11L1163,218a1.1,1.1,0,0,0,.1-1,.67.67,0,0,0-.71-.5l-3.79.19a.77.77,0,0,0-.51.29l-4.83,6.68a.91.91,0,0,1-.74.48,1.17,1.17,0,0,1-.85-.4,1.56,1.56,0,0,1,0-1.88l6.36-7.91,8-.4a1.27,1.27,0,0,1,.93.4l6.92,6.62a1.88,1.88,0,0,0,2.87-.23l3.7-4.92a1,1,0,0,1,1.52-.08l.08.09A1.4,1.4,0,0,1,1182.1,217.09Z"/><path class="cls-7" d="M1204.09,241.76l15.5-14-15.5-15Z"/><path d="M1178.75,213h7.59a.65.65,0,0,0,.64-.65v-1.91l4.16,2.23a.54.54,0,0,0,.3.08.63.63,0,0,0,.33-.09.65.65,0,0,0,.32-.55v-9.17a.65.65,0,0,0-.32-.55.62.62,0,0,0-.63,0l-4.16,2.24v-1.92a.65.65,0,0,0-.64-.65h-1a5.76,5.76,0,1,0-9.23-5.83,4.35,4.35,0,0,0-7.7,2.77,4.32,4.32,0,0,0,1.26,3.06H1169a.65.65,0,0,0-.64.65v2.92h-1.63a.64.64,0,0,0-.64.64v2.53a.64.64,0,0,0,.64.64h1.63v2.92a.65.65,0,0,0,.64.65h7.59m-8.23-4.85h-1v-1.25h1ZM1181.66,193a4.48,4.48,0,1,1-4.48,4.48A4.49,4.49,0,0,1,1181.66,193Zm-4.91,7.5A5.62,5.62,0,0,0,1178,202h-2.25A4.36,4.36,0,0,0,1176.75,200.54Zm-4-4.66a3.06,3.06,0,1,1-3.07,3.06A3.07,3.07,0,0,1,1172.71,195.88Zm13,9.76v6h-16v-8.37h16Zm5.11,5.34-3.82-2.06V206l3.82-2.06Z"/><path d="M1172.71,197a2,2,0,1,0,2,1.95A2,2,0,0,0,1172.71,197Zm0,2.75a.8.8,0,1,1,0-1.6.8.8,0,0,1,0,1.6Z"/><path d="M1181.66,194.72a2.81,2.81,0,1,0,2.81,2.8A2.8,2.8,0,0,0,1181.66,194.72Zm0,4.32a1.52,1.52,0,1,1,1.52-1.52A1.52,1.52,0,0,1,1181.66,199Z"/><path d="M1179.59,205.16h-7a.61.61,0,0,0-.61.61v3.41a.61.61,0,0,0,.61.61h7a.61.61,0,0,0,.61-.61v-3.41A.61.61,0,0,0,1179.59,205.16Zm-.61,3.41h-5.78v-2.19H1179v2.19Z"/><circle cx="1182.96" cy="206.42" r="0.64"/><circle cx="1182.96" cy="208.53" r="0.64"/><path id="path7494" class="cls-8" d="M1644,322l-227.46-3.24.4-28.21-37.91-.54-3.15,221.29a17.63,17.63,0,0,0,17.38,17.88l247.75,3.53a17.63,17.63,0,0,0,17.88-17.38l2.5-175.45A17.63,17.63,0,0,0,1644.05,322Z"/><rect id="rect7498" class="cls-1" x="1521.32" y="237.44" width="2.16" height="269.63" transform="translate(1128.52 1889.2) rotate(-89.18)"/><rect id="rect7500" class="cls-1" x="1519.55" y="362.2" width="2.16" height="269.63" transform="translate(1002.02 2010.41) rotate(-89.18)"/><g id="g7516"><g id="g7518"><g id="g7520"><polygon id="polygon7522" points="1374.82 337.99 1665.77 342.14 1666.42 296.15 1407.22 292.45 1375.12 317.23 1375.12 317.23 1374.82 337.99"/><g id="g7524"><polygon id="polygon7526" points="1375.73 336.51 1375.98 318.18 1407.39 293.94 1665.52 297.63 1664.9 340.63 1664.9 340.63 1375.73 336.51"/><polygon id="polygon7528" class="cls-9" points="1428.35 294.24 1460.96 294.7 1448.89 337.56 1448.89 337.56 1416.28 337.09 1428.35 294.24"/><polygon id="polygon7530" class="cls-10" points="1495.36 295.19 1527.98 295.65 1515.89 338.51 1515.89 338.51 1483.29 338.05 1495.36 295.19"/><polygon id="polygon7532" class="cls-11" points="1562.36 296.15 1594.99 296.61 1582.91 339.46 1582.91 339.46 1550.29 339 1562.36 296.15"/><polygon id="polygon7534" class="cls-12" points="1629.37 297.1 1661.99 297.56 1649.92 340.42 1649.92 340.42 1617.29 339.96 1629.37 297.1"/></g></g><g id="g7536"><polygon id="polygon7538" points="1373.26 247.03 1663.06 221 1667.18 266.79 1408.99 290 1375.11 267.72 1375.11 267.72 1373.26 247.03"/><g id="g7540"><polygon id="polygon7542" points="1374.26 248.43 1375.91 266.72 1409.05 288.5 1666.16 265.4 1662.32 222.55 1662.32 222.55 1374.26 248.43"/><polygon id="polygon7544" class="cls-13" points="1429.92 286.64 1462.42 283.71 1447.15 241.9 1447.15 241.9 1414.66 244.81 1429.92 286.64"/><polygon id="polygon7546" class="cls-14" points="1496.67 280.63 1529.16 277.71 1513.9 235.89 1513.9 235.89 1481.4 238.82 1496.67 280.63"/><polygon id="polygon7548" class="cls-15" points="1563.41 274.63 1595.91 271.72 1580.64 229.89 1580.64 229.89 1548.15 232.81 1563.41 274.63"/><polygon id="polygon7550" class="cls-16" points="1630.16 268.64 1662.65 265.71 1647.38 223.9 1647.38 223.9 1614.89 226.81 1630.16 268.64"/></g></g></g><g id="g7552"><g id="g7554"><path id="path7565" class="cls-17" d="M1464.3,258.47c.07-4.76-4-8.71-9.11-8.79l-64.87-.92c-5.07-.07-9.29,3.76-9.35,8.52l-1,68c-.07,4.76,4,8.72,9.11,8.79L1454,335c5.09.08,9.29-3.76,9.36-8.52Z"/></g><g id="g7567"><circle id="circle7569" class="cls-18" cx="1398.55" cy="265.6" r="3.86"/><polygon id="polygon7571" points="1397.33 264.44 1398.95 263.96 1400.18 265.12 1399.79 266.77 1398.16 267.25 1398.16 267.25 1396.93 266.08 1397.33 264.44"/><path id="path7573" class="cls-19" d="M1399.94,268.74a3,3,0,0,1-3-.34,4.38,4.38,0,0,0,3.28-.19c.92-.59.23-3.22.87-3.28,1.65-.14.76,3.09-1.2,3.81Z"/><path id="path7575" class="cls-1" d="M1398.11,262.13c.22-.07,1,.65.63,1.11s-2.69.61-2.93,1S1395.64,262.86,1398.11,262.13Z"/></g><g id="g7577"><circle id="circle7579" class="cls-18" cx="1401.72" cy="322.71" r="3.86"/><polygon id="polygon7581" points="1400.87 321.25 1402.57 321.24 1403.42 322.7 1402.6 324.17 1400.9 324.19 1400.9 324.19 1400.03 322.74 1400.87 321.25"/><path id="path7583" class="cls-19" d="M1402.21,326.1a3,3,0,0,1-2.75-1.14,4.37,4.37,0,0,0,3.21.72c1-.32,1.1-3,1.73-2.91C1406,323.08,1404.3,325.94,1402.21,326.1Z"/><path id="path7585" class="cls-1" d="M1402.26,319.26c.23,0,.81.91.3,1.25s-2.75-.16-3.08.14S1399.68,319.29,1402.26,319.26Z"/></g><g id="g7587"><circle id="circle7589" class="cls-18" cx="1449.46" cy="323.17" r="3.86"/><polygon id="polygon7591" points="1448.58 321.72 1450.28 321.71 1451.16 323.16 1450.32 324.63 1448.62 324.66 1448.62 324.66 1447.76 323.2 1448.58 321.72"/><path id="path7593" class="cls-19" d="M1449.92,326.56a3,3,0,0,1-2.74-1.13,4.36,4.36,0,0,0,3.21.71c1-.31,1.1-3,1.74-2.91,1.62.31-.11,3.18-2.21,3.33Z"/><path id="path7595" class="cls-1" d="M1450,319.73c.24,0,.82.9.31,1.24s-2.76-.15-3.09.14.21-1.36,2.78-1.38Z"/></g></g></g><rect id="rect3986" class="cls-1" x="1520.49" y="295.67" width="2.16" height="269.63" transform="translate(1069.47 1945.78) rotate(-89.18)"/><path class="cls-1" d="M1387.79,356.87h1.78v9.43h-1.78Zm.81,4.06h3a1,1,0,0,0,.56-.15,1,1,0,0,0,.38-.41,1.34,1.34,0,0,0,.14-.61,1.38,1.38,0,0,0-.14-.62.87.87,0,0,0-.37-.41,1.05,1.05,0,0,0-.57-.15h-3v-1.71h3a3.27,3.27,0,0,1,1.56.36,2.66,2.66,0,0,1,1,1,3.31,3.31,0,0,1,0,3,2.57,2.57,0,0,1-1,1,3.27,3.27,0,0,1-1.56.36h-3Z"/><path class="cls-1" d="M1395.93,356.86h1.78v9.44h-1.78Zm.71,3.93h3.28a.86.86,0,0,0,.48-.13.89.89,0,0,0,.32-.39,1.38,1.38,0,0,0,.12-.59,1.5,1.5,0,0,0-.11-.58,1,1,0,0,0-.32-.39.91.91,0,0,0-.49-.14h-3.28v-1.71h3.42a2.66,2.66,0,0,1,1.37.35,2.42,2.42,0,0,1,.91,1,3.51,3.51,0,0,1,0,3,2.33,2.33,0,0,1-.91,1,2.59,2.59,0,0,1-1.37.35h-3.42Zm2,1.42,1.9-.3,2.54,4.39h-2.15Z"/><path class="cls-1" d="M1405.77,366a3,3,0,0,1-1.21-1.22,3.79,3.79,0,0,1-.43-1.82v-2.67a3.86,3.86,0,0,1,.43-1.83,3.09,3.09,0,0,1,1.21-1.22,4,4,0,0,1,3.61,0,3,3,0,0,1,1.21,1.22,3.75,3.75,0,0,1,.43,1.83v2.67a3.68,3.68,0,0,1-.43,1.82,2.91,2.91,0,0,1-1.21,1.22,4,4,0,0,1-3.61,0Zm2.65-1.55a1.36,1.36,0,0,0,.56-.58,1.86,1.86,0,0,0,.2-.87V360.2a1.86,1.86,0,0,0-.2-.87,1.42,1.42,0,0,0-.56-.58,1.74,1.74,0,0,0-.84-.2,1.81,1.81,0,0,0-.85.2,1.49,1.49,0,0,0-.56.58,1.86,1.86,0,0,0-.19.87V363a1.86,1.86,0,0,0,.19.87,1.42,1.42,0,0,0,.56.58,1.7,1.7,0,0,0,.85.21A1.64,1.64,0,0,0,1408.42,364.41Z"/><path class="cls-1" d="M1412.77,356.87h1.78v9.43h-1.78Zm.9,7.71h2.26a2,2,0,0,0,1.35-.42,1.49,1.49,0,0,0,.48-1.19V360.2a1.51,1.51,0,0,0-.48-1.2,2,2,0,0,0-1.35-.42h-2.26v-1.71h2.22a4.68,4.68,0,0,1,2,.39,2.81,2.81,0,0,1,1.27,1.16,3.59,3.59,0,0,1,.43,1.83v2.67a3.63,3.63,0,0,1-.41,1.78,2.94,2.94,0,0,1-1.26,1.18,4.54,4.54,0,0,1-2,.42h-2.21Z"/><path class="cls-1" d="M1422.67,366a2.72,2.72,0,0,1-1.17-1.2,4.06,4.06,0,0,1-.4-1.89v-6h1.77v6.06a1.74,1.74,0,0,0,.44,1.26,1.61,1.61,0,0,0,1.22.45,1.66,1.66,0,0,0,1.24-.45,1.74,1.74,0,0,0,.43-1.26v-6.06H1428v6a4.06,4.06,0,0,1-.4,1.89,2.74,2.74,0,0,1-1.18,1.2,4.45,4.45,0,0,1-3.73,0Z"/><path class="cls-1" d="M1431.81,366.39,1431,366a2.64,2.64,0,0,1-1.16-1.2,4.1,4.1,0,0,1-.41-1.9v-2.59a4.13,4.13,0,0,1,.41-1.9,2.64,2.64,0,0,1,1.16-1.2,3.79,3.79,0,0,1,1.84-.42,3.28,3.28,0,0,1,1.59.38,3.18,3.18,0,0,1,1.16,1.12,4.7,4.7,0,0,1,.63,1.76h-1.84a2.53,2.53,0,0,0-.32-.8,1.61,1.61,0,0,0-.53-.51,1.41,1.41,0,0,0-.69-.17,1.75,1.75,0,0,0-.85.2,1.35,1.35,0,0,0-.53.6,2.25,2.25,0,0,0-.19.94v2.59a2.22,2.22,0,0,0,.19.94,1.27,1.27,0,0,0,.53.59,1.65,1.65,0,0,0,.85.21,1.45,1.45,0,0,0,.7-.17,1.52,1.52,0,0,0,.53-.51,2.23,2.23,0,0,0,.31-.8h1.84a4.77,4.77,0,0,1-.64,1.76,3.05,3.05,0,0,1-1.15,1.11,3.2,3.2,0,0,1-1.59.38Z"/><path class="cls-1" d="M1436.59,356.87h6.91v1.71h-6.91Zm2.56.77h1.78v8.66h-1.78Z"/><path class="cls-1" d="M1446.25,366.3h-1.84v-9.43h1.84Z"/><path class="cls-1" d="M1449.64,366a2.85,2.85,0,0,1-1.21-1.22,3.68,3.68,0,0,1-.43-1.82v-2.67a3.75,3.75,0,0,1,.43-1.83,3,3,0,0,1,1.21-1.22,3.74,3.74,0,0,1,1.8-.43,3.78,3.78,0,0,1,1.81.43,3.09,3.09,0,0,1,1.21,1.22,3.86,3.86,0,0,1,.42,1.83v2.67a3.79,3.79,0,0,1-.42,1.82,3,3,0,0,1-1.21,1.22,3.67,3.67,0,0,1-1.81.43A3.63,3.63,0,0,1,1449.64,366Zm2.64-1.55a1.31,1.31,0,0,0,.56-.58,1.75,1.75,0,0,0,.2-.87V360.2a1.75,1.75,0,0,0-.2-.87,1.36,1.36,0,0,0-.56-.58,1.86,1.86,0,0,0-1.68,0,1.42,1.42,0,0,0-.56.58,1.75,1.75,0,0,0-.2.87V363a1.75,1.75,0,0,0,.2.87,1.36,1.36,0,0,0,.56.58,1.78,1.78,0,0,0,1.68,0Z"/><path class="cls-1" d="M1456.63,356.87h2.18l3.5,7.22-.15.17v-7.39h1.7v9.42h-2.19l-3.49-7.11.15-.17v7.28h-1.7Z"/><path class="cls-1" d="M1478.82,356.87h1.83l2,6.29,2-6.29h1.83l-3.14,9.43H1482Z"/><path class="cls-1" d="M1487.36,356.87h1.78v1.78h-1.78Zm0,2.7h1.78v6.73h-1.78Z"/><path class="cls-1" d="M1492.77,366.39l-.58-.1a5.31,5.31,0,0,1-1.07-.32,4,4,0,0,1-.88-.5l1.1-1.36a4.29,4.29,0,0,0,1,.47,3.1,3.1,0,0,0,1,.17,2.5,2.5,0,0,0,1-.14c.23-.09.35-.22.35-.38a.43.43,0,0,0-.15-.35,1,1,0,0,0-.38-.16l-.66-.09-.24,0-.24,0h-.11a8.86,8.86,0,0,1-1.21-.24,1.58,1.58,0,0,1-.76-.55,1.89,1.89,0,0,1-.32-1.18,2,2,0,0,1,.33-1.15,2,2,0,0,1,.94-.73,3.87,3.87,0,0,1,1.49-.25,5,5,0,0,1,1,.1,5.2,5.2,0,0,1,1,.3,4.82,4.82,0,0,1,.87.47l-1.06,1.29a3.88,3.88,0,0,0-.92-.38,3.43,3.43,0,0,0-.92-.14,2.34,2.34,0,0,0-.84.12c-.2.09-.3.2-.3.35a.3.3,0,0,0,.16.26,1.34,1.34,0,0,0,.4.14l.69.09h.12l.11,0h.12a8.84,8.84,0,0,1,1.28.23,1.71,1.71,0,0,1,.84.57,2,2,0,0,1,.34,1.26,2,2,0,0,1-1.32,2,4,4,0,0,1-1.56.26Z"/><path class="cls-1" d="M1499.46,363.66a1,1,0,0,0,.27.75,1.07,1.07,0,0,0,.78.27,1,1,0,0,0,.76-.27,1.1,1.1,0,0,0,.27-.79l.1,1.47a2.14,2.14,0,0,1-.63.93,1.58,1.58,0,0,1-1.07.37,2.07,2.07,0,0,1-1.67-.69,3,3,0,0,1-.59-2v-4.15h1.78Zm2.08-4.09h1.77v6.73h-1.77Z"/><path class="cls-1" d="M1505.27,365.88a2.11,2.11,0,0,1-.53-1.57,1.82,1.82,0,0,1,.6-1.49,2.72,2.72,0,0,1,1.8-.5h1.68l.1,1.35h-1.77a1,1,0,0,0-.61.16.6.6,0,0,0-.2.48.55.55,0,0,0,.25.49,1.45,1.45,0,0,0,.77.16,2.58,2.58,0,0,0,1.06-.16.54.54,0,0,0,.35-.51l.13,1a.89.89,0,0,1-.33.62,2,2,0,0,1-.74.38,3.61,3.61,0,0,1-.94.12A2.28,2.28,0,0,1,1505.27,365.88Zm3.5-3.85a.9.9,0,0,0-.31-.72,1.39,1.39,0,0,0-.89-.25,2.34,2.34,0,0,0-.74.12,2.29,2.29,0,0,0-.66.34l-1.1-1.08a2.61,2.61,0,0,1,1.06-.71,3.88,3.88,0,0,1,1.47-.26,3.55,3.55,0,0,1,1.5.29,2.1,2.1,0,0,1,1,.86,2.6,2.6,0,0,1,.33,1.35v4.33h-1.61Z"/><path class="cls-1" d="M1513.91,364.07a.47.47,0,0,0,.14.38.54.54,0,0,0,.4.13h.29v1.72h-.9a1.67,1.67,0,0,1-1.26-.47,1.82,1.82,0,0,1-.45-1.32v-7.64h1.78Z"/><path class="cls-1" d="M1515.88,356.87h1.78v1.78h-1.78Zm0,2.7h1.78v6.73h-1.78Z"/><path class="cls-1" d="M1524.21,361.07l-3,3.61h3.16v1.62h-5.28v-1.53l3.07-3.59h-3v-1.61h5Z"/><path class="cls-1" d="M1526.09,365.88a2.08,2.08,0,0,1-.54-1.57,1.82,1.82,0,0,1,.6-1.49,2.72,2.72,0,0,1,1.8-.5h1.69l.09,1.35H1528a.92.92,0,0,0-.6.16.57.57,0,0,0-.2.48.53.53,0,0,0,.25.49,1.41,1.41,0,0,0,.76.16,2.58,2.58,0,0,0,1.06-.16.54.54,0,0,0,.35-.51l.14,1a1,1,0,0,1-.34.62,1.92,1.92,0,0,1-.74.38,3.54,3.54,0,0,1-.93.12A2.25,2.25,0,0,1,1526.09,365.88Zm3.49-3.85a.87.87,0,0,0-.31-.72,1.36,1.36,0,0,0-.88-.25,2.45,2.45,0,0,0-.75.12,2.36,2.36,0,0,0-.65.34l-1.11-1.08a2.65,2.65,0,0,1,1.07-.71,3.83,3.83,0,0,1,1.46-.26,3.63,3.63,0,0,1,1.51.29,2.21,2.21,0,0,1,.95.86,2.6,2.6,0,0,1,.32,1.35v4.33h-1.61Z"/><path class="cls-1" d="M1532.43,359.57h3.29v1.51h-3.29Zm1.1,6.31a1.94,1.94,0,0,1-.41-1.33v-6.94h1.78v6.5a.63.63,0,0,0,.09.37.34.34,0,0,0,.29.14h.44v1.71h-.89A1.69,1.69,0,0,1,1533.53,365.88Z"/><path class="cls-1" d="M1537.18,356.87H1539v1.78h-1.78Zm0,2.7H1539v6.73h-1.78Z"/><path class="cls-1" d="M1541.75,366.05a2.23,2.23,0,0,1-1-1,3.39,3.39,0,0,1-.35-1.59v-1.09a3.34,3.34,0,0,1,.35-1.57,2.26,2.26,0,0,1,1-1,3.79,3.79,0,0,1,3.14,0,2.26,2.26,0,0,1,1,1,3.34,3.34,0,0,1,.34,1.57v1.11a3.35,3.35,0,0,1-.34,1.58,2.26,2.26,0,0,1-1,1,3.79,3.79,0,0,1-3.14,0Zm2.4-1.68a1.24,1.24,0,0,0,.3-.89v-1.11a1.22,1.22,0,0,0-.3-.88,1.14,1.14,0,0,0-.84-.31,1.09,1.09,0,0,0-.82.31,1.22,1.22,0,0,0-.3.88v1.11a1.29,1.29,0,0,0,.29.89,1.08,1.08,0,0,0,.83.31A1.1,1.1,0,0,0,1544.15,364.37Z"/><path class="cls-1" d="M1547.85,359.57h1.77v6.73h-1.77Zm3.89,2.65a1,1,0,0,0-.29-.77,1.09,1.09,0,0,0-.8-.27,1,1,0,0,0-.76.28,1,1,0,0,0-.27.77l-.13-1.49a2.43,2.43,0,0,1,.73-.95,1.71,1.71,0,0,1,1.06-.32,2,2,0,0,1,1.65.72,3.1,3.1,0,0,1,.58,2v4.09h-1.77Z"/><path class="cls-1" d="M1561.66,356.87h1.13l3.6,9.43h-1.91l-2.26-6.44L1560,366.3h-1.91Zm-1.88,6.2h5v1.72h-5Z"/><path class="cls-1" d="M1569.4,366.39l-.57-.1a5.12,5.12,0,0,1-1.07-.32,3.74,3.74,0,0,1-.88-.5l1.09-1.36a4.68,4.68,0,0,0,1,.47,3.15,3.15,0,0,0,1,.17,2.52,2.52,0,0,0,1-.14c.23-.09.34-.22.34-.38a.43.43,0,0,0-.15-.35,1,1,0,0,0-.38-.16l-.65-.09-.24,0-.24,0h-.12a8.38,8.38,0,0,1-1.2-.24,1.6,1.6,0,0,1-.77-.55,1.89,1.89,0,0,1-.31-1.18,2,2,0,0,1,.32-1.15,2.05,2.05,0,0,1,.94-.73,3.9,3.9,0,0,1,1.49-.25,5,5,0,0,1,1,.1,5.3,5.3,0,0,1,1,.3,4.73,4.73,0,0,1,.86.47l-1.06,1.29a3.88,3.88,0,0,0-.92-.38,3.37,3.37,0,0,0-.92-.14,2.28,2.28,0,0,0-.83.12c-.2.09-.3.2-.3.35a.28.28,0,0,0,.16.26,1.27,1.27,0,0,0,.39.14l.69.09h.12l.12,0h.11a8.59,8.59,0,0,1,1.28.23,1.71,1.71,0,0,1,.84.57,2,2,0,0,1,.35,1.26,2.12,2.12,0,0,1-.34,1.2,2,2,0,0,1-1,.76,4,4,0,0,1-1.56.26Z"/><path class="cls-1" d="M1576.28,366.39l-.57-.1a5.31,5.31,0,0,1-1.07-.32,4,4,0,0,1-.88-.5l1.1-1.36a4.29,4.29,0,0,0,1,.47,3.1,3.1,0,0,0,1,.17,2.5,2.5,0,0,0,1-.14c.23-.09.35-.22.35-.38a.43.43,0,0,0-.15-.35,1,1,0,0,0-.38-.16l-.66-.09-.24,0-.24,0h-.11a8.86,8.86,0,0,1-1.21-.24,1.58,1.58,0,0,1-.76-.55,1.89,1.89,0,0,1-.32-1.18,2,2,0,0,1,.33-1.15,2,2,0,0,1,.94-.73,3.87,3.87,0,0,1,1.49-.25,5,5,0,0,1,1,.1,5.2,5.2,0,0,1,1,.3,4.82,4.82,0,0,1,.87.47l-1.06,1.29a3.88,3.88,0,0,0-.92-.38,3.43,3.43,0,0,0-.92-.14,2.34,2.34,0,0,0-.84.12c-.2.09-.3.2-.3.35a.3.3,0,0,0,.16.26,1.34,1.34,0,0,0,.4.14l.69.09h.12l.11,0h.12a8.84,8.84,0,0,1,1.28.23,1.81,1.81,0,0,1,.84.57,2,2,0,0,1,.34,1.26,2,2,0,0,1-1.32,2,4,4,0,0,1-1.56.26Z"/><path class="cls-1" d="M1581.1,356.87h1.78v1.78h-1.78Zm0,2.7h1.78v6.73h-1.78Z"/><path class="cls-1" d="M1585.38,366.05a2.17,2.17,0,0,1-.78-1,4.35,4.35,0,0,1-.26-1.58v-1.07a4.41,4.41,0,0,1,.26-1.59,2.17,2.17,0,0,1,.78-1,2.13,2.13,0,0,1,1.22-.34,1.64,1.64,0,0,1,1,.32,2.22,2.22,0,0,1,.72.91l-.14,1.49a1.43,1.43,0,0,0-.11-.58.94.94,0,0,0-.34-.37,1.15,1.15,0,0,0-.55-.12.92.92,0,0,0-.77.34,1.47,1.47,0,0,0-.28,1v1.07a1.46,1.46,0,0,0,.28.94.94.94,0,0,0,.77.33,1,1,0,0,0,.55-.13.88.88,0,0,0,.34-.35,1.41,1.41,0,0,0,.11-.57l.09,1.54a1.72,1.72,0,0,1-.63.85,1.75,1.75,0,0,1-1,.3A2.13,2.13,0,0,1,1585.38,366.05Zm.73,3-.63-.28a2.28,2.28,0,0,1-1-.79l1.19-1.1a1.51,1.51,0,0,0,.55.38,1.65,1.65,0,0,0,.66.13,1.37,1.37,0,0,0,.91-.3,1,1,0,0,0,.35-.84v-6.66h1.78v6.53a3.38,3.38,0,0,1-.35,1.58,2.34,2.34,0,0,1-1,1,3.61,3.61,0,0,1-1.64.34Z"/><path class="cls-1" d="M1591.69,359.57h1.78v6.73h-1.78Zm3.89,2.65a1,1,0,0,0-.28-.77,1.12,1.12,0,0,0-.8-.27,1,1,0,0,0-.76.28,1,1,0,0,0-.27.77l-.14-1.49a2.52,2.52,0,0,1,.73-.95,1.74,1.74,0,0,1,1.07-.32,2,2,0,0,1,1.64.72,3.1,3.1,0,0,1,.59,2v4.09h-1.78Z"/><path class="cls-1" d="M1599.11,359.57h1.78v6.73h-1.78Zm3.92,2.84a1.34,1.34,0,0,0-.29-.91,1.08,1.08,0,0,0-.82-.32,1,1,0,0,0-.77.28,1.09,1.09,0,0,0-.26.77l-.14-1.49a2.6,2.6,0,0,1,.74-.95,1.79,1.79,0,0,1,1-.32,2,2,0,0,1,2,1.35,4.2,4.2,0,0,1,.27,1.59v3.89H1603Zm3.92,0a1.34,1.34,0,0,0-.28-.91,1,1,0,0,0-.8-.32,1,1,0,0,0-.79.31,1.28,1.28,0,0,0-.27.87l-.33-1.56a2.49,2.49,0,0,1,.82-1,1.92,1.92,0,0,1,1.14-.35,2.2,2.2,0,0,1,1.24.34,2.17,2.17,0,0,1,.78,1,4.2,4.2,0,0,1,.27,1.59v3.89H1607Z"/><path class="cls-1" d="M1612.39,366.39l-.69-.35a2.38,2.38,0,0,1-1-1,3.44,3.44,0,0,1-.36-1.63v-.76a3.85,3.85,0,0,1,.34-1.7,2.33,2.33,0,0,1,1-1.08,3.18,3.18,0,0,1,1.6-.37,2.59,2.59,0,0,1,1.51.44,2.71,2.71,0,0,1,1,1.28,5.58,5.58,0,0,1,.32,2v.44h-4.6v-1.2h3l0-.16a1.55,1.55,0,0,0-.36-.9,1,1,0,0,0-.79-.32,1.29,1.29,0,0,0-1,.39,1.54,1.54,0,0,0-.35,1.08v.86a1.41,1.41,0,0,0,.39,1.06,1.46,1.46,0,0,0,1.08.37,2.15,2.15,0,0,0,.7-.12,2.35,2.35,0,0,0,.64-.36l1.16,1a3.73,3.73,0,0,1-1.18.74,3.45,3.45,0,0,1-1.32.26Z"/><path class="cls-1" d="M1617.6,359.57h1.78v6.73h-1.78Zm3.89,2.65a1,1,0,0,0-.28-.77,1.12,1.12,0,0,0-.8-.27,1,1,0,0,0-.76.28,1,1,0,0,0-.27.77l-.14-1.49a2.52,2.52,0,0,1,.73-.95,1.74,1.74,0,0,1,1.07-.32,2,2,0,0,1,1.64.72,3.1,3.1,0,0,1,.59,2v4.09h-1.78Z"/><path class="cls-1" d="M1624.5,359.57h3.29v1.51h-3.29Zm1.1,6.31a1.94,1.94,0,0,1-.41-1.33v-6.94H1627v6.5a.56.56,0,0,0,.1.37.32.32,0,0,0,.28.14h.44v1.71h-.89A1.69,1.69,0,0,1,1625.6,365.88Z"/><path class="cls-1" d="M1389.93,425.77l-.76-.41a2.82,2.82,0,0,1-1.17-1.2,4.15,4.15,0,0,1-.4-1.91v-2.58a4.15,4.15,0,0,1,.4-1.91,2.82,2.82,0,0,1,1.17-1.2,3.76,3.76,0,0,1,1.84-.41,3.22,3.22,0,0,1,1.59.38,3.08,3.08,0,0,1,1.16,1.11,5,5,0,0,1,.63,1.76h-1.84a2.53,2.53,0,0,0-.32-.8,1.48,1.48,0,0,0-.53-.5,1.31,1.31,0,0,0-.69-.18,1.65,1.65,0,0,0-.85.21,1.27,1.27,0,0,0-.53.59,2.15,2.15,0,0,0-.19.95v2.58a2.07,2.07,0,0,0,.19.94,1.35,1.35,0,0,0,.53.6,1.75,1.75,0,0,0,.85.2,1.41,1.41,0,0,0,1.23-.67,2.49,2.49,0,0,0,.31-.81h1.84a4.7,4.7,0,0,1-.64,1.76,3.16,3.16,0,0,1-1.15,1.12,3.34,3.34,0,0,1-1.59.38Z"/><path class="cls-1" d="M1398.32,416.24h1.13l3.6,9.43h-1.91l-2.26-6.44-2.25,6.44h-1.92Zm-1.88,6.21h5v1.71h-5Z"/><path class="cls-1" d="M1406,425.77l-.65-.14a5.37,5.37,0,0,1-1.21-.4,4.11,4.11,0,0,1-1-.63l.82-1.46a4.25,4.25,0,0,0,1.26.69,4.51,4.51,0,0,0,1.46.24,2.55,2.55,0,0,0,1.35-.3.91.91,0,0,0,.48-.83h0a.82.82,0,0,0-.21-.59,1.3,1.3,0,0,0-.56-.33,7.43,7.43,0,0,0-.88-.18h-.07l-.15,0a8.9,8.9,0,0,1-1.57-.37,2.34,2.34,0,0,1-1-.78,2.58,2.58,0,0,1-.44-1.6h0a2.88,2.88,0,0,1,.41-1.56,2.49,2.49,0,0,1,1.19-1,5.19,5.19,0,0,1,2.91-.23,5.74,5.74,0,0,1,1,.34,6.46,6.46,0,0,1,1,.53l-.76,1.51a4.53,4.53,0,0,0-1.13-.59,3.45,3.45,0,0,0-1.14-.21,2.47,2.47,0,0,0-1.27.27.85.85,0,0,0-.44.76h0a.85.85,0,0,0,.23.64,1.48,1.48,0,0,0,.58.35c.23.07.55.15,1,.23h.11l.07,0h.08a7.93,7.93,0,0,1,1.49.43,2.27,2.27,0,0,1,1,.8,2.54,2.54,0,0,1,.4,1.52h0a2.75,2.75,0,0,1-.42,1.54,2.59,2.59,0,0,1-1.23,1,4.88,4.88,0,0,1-1.94.34Z"/><path class="cls-1" d="M1410.58,416.24h6.91V418h-6.91Zm2.57.77h1.77v8.66h-1.77Z"/><path class="cls-1" d="M1479.8,416.24h1.77v9.43h-1.77Zm.81,4.06h3a1.13,1.13,0,0,0,.56-.14,1,1,0,0,0,.38-.42,1.31,1.31,0,0,0,.14-.61,1.48,1.48,0,0,0-.13-.61,1,1,0,0,0-.38-.42,1,1,0,0,0-.57-.14h-3v-1.72h3a3.25,3.25,0,0,1,1.55.36,2.55,2.55,0,0,1,1,1,3,3,0,0,1,.37,1.51,3,3,0,0,1-.37,1.52,2.59,2.59,0,0,1-1,1,3.25,3.25,0,0,1-1.55.35h-3Z"/><path class="cls-1" d="M1489.26,425.77l-.69-.35a2.4,2.4,0,0,1-1-1,3.41,3.41,0,0,1-.37-1.63V422a3.85,3.85,0,0,1,.35-1.7,2.46,2.46,0,0,1,1-1.08,3.36,3.36,0,0,1,1.61-.37,2.59,2.59,0,0,1,1.51.44,2.76,2.76,0,0,1,1,1.28,5.84,5.84,0,0,1,.32,2V423h-4.6v-1.2h3l0-.15a1.55,1.55,0,0,0-.36-.9,1,1,0,0,0-.79-.32,1.28,1.28,0,0,0-1,.38,1.58,1.58,0,0,0-.35,1.08v.86a1.4,1.4,0,0,0,.39,1.06,1.46,1.46,0,0,0,1.07.38,2.21,2.21,0,0,0,1.35-.49l1.16,1a4.08,4.08,0,0,1-1.18.75,3.66,3.66,0,0,1-1.33.26Z"/><path class="cls-1" d="M1495.31,425.42a2.16,2.16,0,0,1-.77-1,4.09,4.09,0,0,1-.27-1.57v-1.08a4.2,4.2,0,0,1,.27-1.59,2.19,2.19,0,0,1,.77-1,2.15,2.15,0,0,1,1.23-.35,1.66,1.66,0,0,1,1,.32,2.33,2.33,0,0,1,.72.92l-.14,1.49a1.32,1.32,0,0,0-.12-.59.79.79,0,0,0-.34-.36,1,1,0,0,0-.54-.13.92.92,0,0,0-.77.34,1.46,1.46,0,0,0-.28,1v1.07a1.38,1.38,0,0,0,.28.93.94.94,0,0,0,.77.33,1.13,1.13,0,0,0,.54-.12.79.79,0,0,0,.34-.36,1.19,1.19,0,0,0,.12-.56l.09,1.53a1.81,1.81,0,0,1-.63.86,1.75,1.75,0,0,1-1,.3A2.15,2.15,0,0,1,1495.31,425.42Zm2.79-9.18h1.78v9.43h-1.78Z"/><path class="cls-1" d="M1501.63,418.94h1.9v6.73h-1.9Zm3.47,1.68a1.45,1.45,0,0,0-.44-.07,1,1,0,0,0-.83.35,1.43,1.43,0,0,0-.3,1l-.13-1.76a2.28,2.28,0,0,1,.72-.93,1.62,1.62,0,0,1,1-.34,2.06,2.06,0,0,1,.76.14,1.64,1.64,0,0,1,.59.39l-1,1.44A.81.81,0,0,0,1505.1,420.62Z"/><path class="cls-1" d="M1508.3,425.42a2.28,2.28,0,0,1-1-1,3.35,3.35,0,0,1-.34-1.58v-1.1a3.27,3.27,0,0,1,.34-1.56,2.33,2.33,0,0,1,1-1,3.82,3.82,0,0,1,3.15,0,2.33,2.33,0,0,1,1,1,3.27,3.27,0,0,1,.34,1.56v1.12a3.31,3.31,0,0,1-.34,1.57,2.31,2.31,0,0,1-1,1,3.72,3.72,0,0,1-3.15,0Zm2.41-1.68a1.26,1.26,0,0,0,.29-.88v-1.12a1.23,1.23,0,0,0-.29-.87,1.11,1.11,0,0,0-.84-.32,1.08,1.08,0,0,0-.83.32,1.23,1.23,0,0,0-.29.87v1.12a1.22,1.22,0,0,0,.29.88,1.07,1.07,0,0,0,.83.32A1.11,1.11,0,0,0,1510.71,423.74Z"/><path class="cls-1" d="M1520.39,425.77l-.65-.14a5.37,5.37,0,0,1-1.21-.4,4.37,4.37,0,0,1-1-.63l.83-1.46a4.25,4.25,0,0,0,1.26.69,4.51,4.51,0,0,0,1.46.24,2.55,2.55,0,0,0,1.35-.3.91.91,0,0,0,.48-.83h0a.82.82,0,0,0-.21-.59,1.3,1.3,0,0,0-.56-.33,7.88,7.88,0,0,0-.88-.18h-.08l-.14,0a8.9,8.9,0,0,1-1.57-.37,2.34,2.34,0,0,1-1-.78,2.58,2.58,0,0,1-.44-1.6h0a2.88,2.88,0,0,1,.41-1.56,2.49,2.49,0,0,1,1.19-1,4.58,4.58,0,0,1,1.88-.34,4.63,4.63,0,0,1,1,.11,5.74,5.74,0,0,1,1,.34,5.9,5.9,0,0,1,1,.53l-.75,1.51a4.42,4.42,0,0,0-1.14-.59,3.35,3.35,0,0,0-1.13-.21,2.47,2.47,0,0,0-1.27.27.83.83,0,0,0-.44.76h0a.85.85,0,0,0,.23.64,1.41,1.41,0,0,0,.58.35,9.22,9.22,0,0,0,1,.23h.1l.08,0h.07a7.83,7.83,0,0,1,1.5.43,2.27,2.27,0,0,1,1,.8,2.54,2.54,0,0,1,.4,1.52h0a2.75,2.75,0,0,1-.42,1.54,2.59,2.59,0,0,1-1.23,1,4.92,4.92,0,0,1-1.94.34Z"/><path class="cls-1" d="M1526.05,416.24h1.77V418h-1.77Zm0,2.7h1.77v6.73h-1.77Z"/><path class="cls-1" d="M1531.25,423.45a.52.52,0,0,0,.14.38.57.57,0,0,0,.4.13h.3v1.71h-.91a1.64,1.64,0,0,1-1.26-.47,1.85,1.85,0,0,1-.44-1.31v-7.65h1.77Z"/><path class="cls-1" d="M1537.15,418.94h1.77l-2.52,6.73h-1.26l-2.53-6.73h1.77l1.39,4.22Z"/><path class="cls-1" d="M1540.17,425.25a2,2,0,0,1-.53-1.56,1.83,1.83,0,0,1,.6-1.5,2.78,2.78,0,0,1,1.8-.5h1.68l.09,1.35H1542a1,1,0,0,0-.6.16.6.6,0,0,0-.2.49.54.54,0,0,0,.25.49,1.54,1.54,0,0,0,.77.15,2.61,2.61,0,0,0,1.06-.16.51.51,0,0,0,.34-.5l.14,1a1,1,0,0,1-.33.61,1.92,1.92,0,0,1-.74.38,3.24,3.24,0,0,1-.94.13A2.24,2.24,0,0,1,1540.17,425.25Zm3.49-3.85a.87.87,0,0,0-.31-.72,1.4,1.4,0,0,0-.88-.25,2.45,2.45,0,0,0-.75.12,2.39,2.39,0,0,0-.65.35l-1.1-1.08a2.63,2.63,0,0,1,1.06-.72,4,4,0,0,1,1.47-.26,3.43,3.43,0,0,1,1.5.3,2.07,2.07,0,0,1,1,.85,2.66,2.66,0,0,1,.33,1.36v4.32h-1.62Z"/><path class="cls-1" d="M1552.45,421.93a1.61,1.61,0,0,0-.38,1.13,1,1,0,0,0,.41.84,1.9,1.9,0,0,0,1.13.29,1.84,1.84,0,0,0,1.21-.42,2.45,2.45,0,0,0,.77-1.19,5.54,5.54,0,0,0,.27-1.82h1.71a6.61,6.61,0,0,1-.49,2.68,3.81,3.81,0,0,1-1.45,1.73,4.22,4.22,0,0,1-2.31.6,3.62,3.62,0,0,1-1.58-.32,2.29,2.29,0,0,1-1-.92,3.07,3.07,0,0,1-.34-1.47,2.51,2.51,0,0,1,.67-1.84,2.9,2.9,0,0,1,1.89-.81l.55,1.12A1.35,1.35,0,0,0,1552.45,421.93Zm.3,0a6.28,6.28,0,0,1-.79-1,4.49,4.49,0,0,1-.48-1.05,3.77,3.77,0,0,1-.16-1.11,2.53,2.53,0,0,1,.7-1.92,3.23,3.23,0,0,1,3.91,0,2.37,2.37,0,0,1,.69,1.84v.26h-1.77v-.26a1.54,1.54,0,0,0-.23-.89.73.73,0,0,0-.64-.31.9.9,0,0,0-.75.34,1.55,1.55,0,0,0-.26,1,2,2,0,0,0,.17.77,4.51,4.51,0,0,0,.49.9,8.91,8.91,0,0,0,.76,1l3.89,4.27h-2Z"/><path class="cls-1" d="M1563,425.43a2.57,2.57,0,0,1-1.06-.95l1.46-1.06a1.56,1.56,0,0,0,.56.46,1.48,1.48,0,0,0,.68.16.93.93,0,0,0,.79-.36,1.58,1.58,0,0,0,.28-1v-6.43h1.84v6.44a3.58,3.58,0,0,1-.35,1.67,2.51,2.51,0,0,1-1,1.06,3.41,3.41,0,0,1-1.63.36A3.35,3.35,0,0,1,1563,425.43Z"/><path class="cls-1" d="M1570.67,425.42a2.25,2.25,0,0,1-1-1,3.48,3.48,0,0,1-.34-1.58v-1.1a3.39,3.39,0,0,1,.34-1.56,2.3,2.3,0,0,1,1-1,3.79,3.79,0,0,1,3.14,0,2.23,2.23,0,0,1,1,1,3.27,3.27,0,0,1,.34,1.56v1.12a3.31,3.31,0,0,1-.34,1.57,2.21,2.21,0,0,1-1,1,3.7,3.7,0,0,1-3.14,0Zm2.4-1.68a1.22,1.22,0,0,0,.3-.88v-1.12a1.19,1.19,0,0,0-.3-.87,1.11,1.11,0,0,0-.84-.32,1.06,1.06,0,0,0-.82.32,1.19,1.19,0,0,0-.3.87v1.12a1.26,1.26,0,0,0,.29.88,1.08,1.08,0,0,0,.83.32A1.11,1.11,0,0,0,1573.07,423.74Z"/><path class="cls-1" d="M1577,425.25a2.05,2.05,0,0,1-.54-1.56,1.83,1.83,0,0,1,.6-1.5,2.78,2.78,0,0,1,1.8-.5h1.68l.1,1.35h-1.77a1,1,0,0,0-.61.16.6.6,0,0,0-.2.49.56.56,0,0,0,.25.49,1.56,1.56,0,0,0,.77.15,2.58,2.58,0,0,0,1.06-.16.52.52,0,0,0,.35-.5l.13,1a.87.87,0,0,1-.33.61,1.85,1.85,0,0,1-.74.38,3.24,3.24,0,0,1-.94.13A2.2,2.2,0,0,1,1577,425.25Zm3.49-3.85a.9.9,0,0,0-.31-.72,1.45,1.45,0,0,0-.89-.25,2.34,2.34,0,0,0-.74.12,2.31,2.31,0,0,0-.66.35l-1.1-1.08a2.63,2.63,0,0,1,1.06-.72,4.09,4.09,0,0,1,1.47-.26,3.4,3.4,0,0,1,1.5.3,2,2,0,0,1,1,.85,2.66,2.66,0,0,1,.33,1.36v4.32h-1.61Zm-.49-3.52a2.05,2.05,0,0,1-.41-.18l-.09-.06-.06,0-.06,0a1.21,1.21,0,0,0-.36-.18.79.79,0,0,0-.28-.06.33.33,0,0,0-.39.39v.2H1577v-.22a2.71,2.71,0,0,1,.33-1.53,1.18,1.18,0,0,1,1.06-.48,1.1,1.1,0,0,1,.38.07,2.79,2.79,0,0,1,.46.2l.07,0,.14.08a2.74,2.74,0,0,0,.36.17.74.74,0,0,0,.22.05.38.38,0,0,0,.3-.1.5.5,0,0,0,.09-.33v-.2h1.35v.22a2.89,2.89,0,0,1-.33,1.57,1.18,1.18,0,0,1-1.05.48A1.31,1.31,0,0,1,1580,417.88Z"/><path class="cls-1" d="M1585,425.42a2.23,2.23,0,0,1-1-1,3.35,3.35,0,0,1-.34-1.58v-1.1a3.27,3.27,0,0,1,.34-1.56,2.28,2.28,0,0,1,1-1,3.79,3.79,0,0,1,3.14,0,2.3,2.3,0,0,1,1,1,3.39,3.39,0,0,1,.34,1.56v1.12a3.43,3.43,0,0,1-.34,1.57,2.28,2.28,0,0,1-1,1,3.7,3.7,0,0,1-3.14,0Zm2.4-1.68a1.22,1.22,0,0,0,.3-.88v-1.12a1.19,1.19,0,0,0-.3-.87,1.24,1.24,0,0,0-1.66,0,1.19,1.19,0,0,0-.3.87v1.12a1.22,1.22,0,0,0,.3.88,1.07,1.07,0,0,0,.83.32A1.08,1.08,0,0,0,1587.37,423.74Z"/><path class="cls-1" d="M1597.05,425.77l-.64-.14a5.21,5.21,0,0,1-1.21-.4,4.37,4.37,0,0,1-1-.63l.82-1.46a4.52,4.52,0,0,0,1.26.69,4.62,4.62,0,0,0,1.47.24,2.55,2.55,0,0,0,1.35-.3.91.91,0,0,0,.48-.83h0a.82.82,0,0,0-.22-.59,1.25,1.25,0,0,0-.56-.33,7,7,0,0,0-.88-.18h-.07l-.14,0a8.69,8.69,0,0,1-1.57-.37,2.32,2.32,0,0,1-1.06-.78,2.58,2.58,0,0,1-.43-1.6h0a2.79,2.79,0,0,1,.41-1.56,2.46,2.46,0,0,1,1.18-1,5.22,5.22,0,0,1,2.92-.23,5.88,5.88,0,0,1,2,.87l-.75,1.51a4.42,4.42,0,0,0-1.14-.59,3.36,3.36,0,0,0-1.14-.21,2.46,2.46,0,0,0-1.26.27.84.84,0,0,0-.45.76h0a.86.86,0,0,0,.24.64,1.37,1.37,0,0,0,.57.35,9.53,9.53,0,0,0,1,.23h.1l.08,0h.07a7.83,7.83,0,0,1,1.5.43,2.27,2.27,0,0,1,1,.8,2.54,2.54,0,0,1,.4,1.52h0a2.75,2.75,0,0,1-.42,1.54,2.59,2.59,0,0,1-1.23,1,5,5,0,0,1-1.94.34Z"/><path class="cls-1" d="M1604,425.42a2.18,2.18,0,0,1-1-1,3.35,3.35,0,0,1-.34-1.58v-1.1a3.27,3.27,0,0,1,.34-1.56,2.23,2.23,0,0,1,1-1,3.79,3.79,0,0,1,3.14,0,2.3,2.3,0,0,1,1,1,3.39,3.39,0,0,1,.34,1.56v1.12a3.43,3.43,0,0,1-.34,1.57,2.28,2.28,0,0,1-1,1,3.7,3.7,0,0,1-3.14,0Zm2.4-1.68a1.22,1.22,0,0,0,.3-.88v-1.12a1.19,1.19,0,0,0-.3-.87,1.11,1.11,0,0,0-.84-.32,1.06,1.06,0,0,0-.82.32,1.19,1.19,0,0,0-.3.87v1.12a1.26,1.26,0,0,0,.29.88,1.25,1.25,0,0,0,1.67,0Z"/><path class="cls-1" d="M1610.26,425.25a2.05,2.05,0,0,1-.54-1.56,1.83,1.83,0,0,1,.6-1.5,2.78,2.78,0,0,1,1.8-.5h1.69l.09,1.35h-1.77a1,1,0,0,0-.61.16.6.6,0,0,0-.2.49.55.55,0,0,0,.26.49,1.52,1.52,0,0,0,.76.15,2.58,2.58,0,0,0,1.06-.16.52.52,0,0,0,.35-.5l.14,1a.92.92,0,0,1-.34.61,1.85,1.85,0,0,1-.74.38,3.17,3.17,0,0,1-.93.13A2.21,2.21,0,0,1,1610.26,425.25Zm3.49-3.85a.87.87,0,0,0-.31-.72,1.42,1.42,0,0,0-.88-.25,2.45,2.45,0,0,0-.75.12,2.25,2.25,0,0,0-.65.35l-1.11-1.08a2.66,2.66,0,0,1,1.07-.72,4,4,0,0,1,1.46-.26,3.48,3.48,0,0,1,1.51.3,2.13,2.13,0,0,1,1,.85,2.76,2.76,0,0,1,.32,1.36v4.32h-1.61Z"/><path class="cls-1" d="M1617.11,418.94H1619v6.73h-1.91Zm3.47,1.68a1.38,1.38,0,0,0-.43-.07,1,1,0,0,0-.83.35,1.43,1.43,0,0,0-.3,1l-.14-1.76a2.39,2.39,0,0,1,.73-.93,1.59,1.59,0,0,1,1-.34,2.11,2.11,0,0,1,.77.14,1.64,1.64,0,0,1,.59.39l-1,1.44A.85.85,0,0,0,1620.58,420.62Z"/><path class="cls-1" d="M1624.56,425.77l-.69-.35a2.4,2.4,0,0,1-1-1,3.41,3.41,0,0,1-.36-1.63V422a3.85,3.85,0,0,1,.34-1.7,2.46,2.46,0,0,1,1-1.08,3.36,3.36,0,0,1,1.61-.37,2.59,2.59,0,0,1,1.51.44,2.76,2.76,0,0,1,1,1.28,5.84,5.84,0,0,1,.32,2V423h-4.6v-1.2h3l0-.15a1.55,1.55,0,0,0-.36-.9,1,1,0,0,0-.79-.32,1.28,1.28,0,0,0-1,.38,1.58,1.58,0,0,0-.35,1.08v.86a1.4,1.4,0,0,0,.39,1.06,1.46,1.46,0,0,0,1.08.38,2.21,2.21,0,0,0,1.34-.49l1.16,1a4,4,0,0,1-1.18.75,3.65,3.65,0,0,1-1.32.26Z"/><path class="cls-1" d="M1631.74,425.77l-.57-.11a5.11,5.11,0,0,1-1.07-.31,4.13,4.13,0,0,1-.88-.5l1.09-1.37a4.3,4.3,0,0,0,1,.48,3.45,3.45,0,0,0,1,.17,2.73,2.73,0,0,0,1-.14c.23-.09.34-.22.34-.39a.43.43,0,0,0-.14-.34,1,1,0,0,0-.39-.17,5.43,5.43,0,0,0-.65-.08l-.24,0-.24,0h-.11a6.42,6.42,0,0,1-1.21-.24,1.54,1.54,0,0,1-.77-.55,1.87,1.87,0,0,1-.31-1.17,2.08,2.08,0,0,1,.32-1.16,2.05,2.05,0,0,1,.94-.73,4.11,4.11,0,0,1,1.49-.25,5.07,5.07,0,0,1,1,.11,5.2,5.2,0,0,1,1,.3,4.7,4.7,0,0,1,.86.46l-1,1.29a4.58,4.58,0,0,0-.92-.38,3.43,3.43,0,0,0-.92-.14,2.11,2.11,0,0,0-.84.13c-.2.08-.3.19-.3.34a.28.28,0,0,0,.16.26,1.11,1.11,0,0,0,.4.14q.23,0,.69.09l.11,0h.24a7.21,7.21,0,0,1,1.27.24,1.59,1.59,0,0,1,.84.57,1.94,1.94,0,0,1,.35,1.25,2,2,0,0,1-.34,1.2,2.07,2.07,0,0,1-1,.77,4.3,4.3,0,0,1-1.57.26Z"/><path class="cls-1" d="M1389.93,492.3l-.76-.41a2.82,2.82,0,0,1-1.17-1.2,4.15,4.15,0,0,1-.4-1.91V486.2a4.15,4.15,0,0,1,.4-1.91,2.82,2.82,0,0,1,1.17-1.2,3.76,3.76,0,0,1,1.84-.41,3.22,3.22,0,0,1,1.59.38,3.08,3.08,0,0,1,1.16,1.11,5,5,0,0,1,.63,1.76h-1.84a2.53,2.53,0,0,0-.32-.8,1.57,1.57,0,0,0-.53-.5,1.31,1.31,0,0,0-.69-.18,1.65,1.65,0,0,0-.85.21,1.27,1.27,0,0,0-.53.59,2.15,2.15,0,0,0-.19.95v2.58a2.07,2.07,0,0,0,.19.94,1.35,1.35,0,0,0,.53.6,1.75,1.75,0,0,0,.85.2,1.41,1.41,0,0,0,1.23-.67,2.49,2.49,0,0,0,.31-.81h1.84a4.7,4.7,0,0,1-.64,1.76,3.16,3.16,0,0,1-1.15,1.12,3.34,3.34,0,0,1-1.59.38Z"/><path class="cls-1" d="M1397.19,491.87a3.09,3.09,0,0,1-1.21-1.22,3.86,3.86,0,0,1-.42-1.83v-2.67a3.79,3.79,0,0,1,.42-1.82,3,3,0,0,1,1.21-1.22,4,4,0,0,1,3.61,0,2.91,2.91,0,0,1,1.21,1.22,3.68,3.68,0,0,1,.43,1.82v2.67a3.75,3.75,0,0,1-.43,1.83,3,3,0,0,1-1.21,1.22,4,4,0,0,1-3.61,0Zm2.65-1.55a1.42,1.42,0,0,0,.56-.58,1.86,1.86,0,0,0,.2-.87v-2.76a1.86,1.86,0,0,0-.2-.87,1.36,1.36,0,0,0-.56-.58,1.79,1.79,0,0,0-1.68,0,1.39,1.39,0,0,0-.57.58,1.86,1.86,0,0,0-.19.87v2.76a1.86,1.86,0,0,0,.19.87,1.45,1.45,0,0,0,.57.58,1.86,1.86,0,0,0,1.68,0Z"/><path class="cls-1" d="M1405.51,491.89a2.79,2.79,0,0,1-1.18-1.2,4.26,4.26,0,0,1-.4-1.9v-6h1.78v6.07a1.7,1.7,0,0,0,.43,1.25,1.91,1.91,0,0,0,2.46,0,1.66,1.66,0,0,0,.44-1.25v-6.07h1.78v6a4.13,4.13,0,0,1-.41,1.9,2.79,2.79,0,0,1-1.18,1.2,4.42,4.42,0,0,1-3.72,0Z"/><path class="cls-1" d="M1412.63,482.77h1.78v9.43h-1.78Zm.71,3.93h3.28a.87.87,0,0,0,.48-.14.83.83,0,0,0,.32-.39,1.34,1.34,0,0,0,.12-.58,1.55,1.55,0,0,0-.11-.59.86.86,0,0,0-.32-.38.81.81,0,0,0-.49-.14h-3.28v-1.71h3.42a2.56,2.56,0,0,1,1.37.35,2.38,2.38,0,0,1,.92,1,3.58,3.58,0,0,1,0,3,2.45,2.45,0,0,1-.92,1,2.68,2.68,0,0,1-1.37.35h-3.42Zm2,1.42,1.9-.3,2.55,4.38h-2.16Z"/><path class="cls-1" d="M1423.32,492.3l-.65-.14a5.37,5.37,0,0,1-1.21-.4,4.11,4.11,0,0,1-1-.63l.82-1.46a4.25,4.25,0,0,0,1.26.69,4.51,4.51,0,0,0,1.46.24,2.55,2.55,0,0,0,1.35-.3.91.91,0,0,0,.48-.83h0a.82.82,0,0,0-.21-.59,1.25,1.25,0,0,0-.56-.33,7.43,7.43,0,0,0-.88-.18h-.07l-.15,0a8.56,8.56,0,0,1-1.56-.37,2.32,2.32,0,0,1-1.06-.78,2.58,2.58,0,0,1-.44-1.6h0a2.88,2.88,0,0,1,.41-1.56,2.49,2.49,0,0,1,1.19-1,5.19,5.19,0,0,1,2.91-.23,5.5,5.5,0,0,1,1,.34,6.46,6.46,0,0,1,1,.53l-.75,1.51a5.16,5.16,0,0,0-1.14-.59,3.43,3.43,0,0,0-1.14-.2,2.48,2.48,0,0,0-1.27.26.86.86,0,0,0-.44.76h0a.9.9,0,0,0,.23.64,1.48,1.48,0,0,0,.58.35c.23.07.55.15,1,.23h.11l.07,0h.08a7.93,7.93,0,0,1,1.49.43,2.22,2.22,0,0,1,1,.8,2.54,2.54,0,0,1,.41,1.52h0a2.76,2.76,0,0,1-.43,1.54,2.61,2.61,0,0,1-1.22,1,5,5,0,0,1-2,.34Z"/><path class="cls-1" d="M1429.08,482.77h1.77v9.43h-1.77Zm.64,0h5.67v1.72h-5.67Zm0,3.89h5v1.72h-5Zm0,3.83h5.67v1.71h-5.67Z"/><path class="cls-1" d="M1485.73,482.77h2.34v9.43h-1.61v-7.32l.06.42-1.8,5.85h-1.57l-1.8-5.72.06-.55v7.32h-1.61v-9.43h2.34l1.79,6.36Z"/><path class="cls-1" d="M1490.15,482.77h1.77v9.43h-1.77Zm.64,0h5.67v1.72h-5.67Zm0,3.89h5v1.72h-5Zm0,3.83h5.67v1.71h-5.67Z"/><path class="cls-1" d="M1499.79,492.2H1498v-9.43h1.84Z"/><path class="cls-1" d="M1506.75,491.89a2.82,2.82,0,0,1-1.17-1.2,4.13,4.13,0,0,1-.4-1.9v-6H1507v6.07a1.7,1.7,0,0,0,.44,1.25,1.61,1.61,0,0,0,1.22.45,1.66,1.66,0,0,0,1.24-.45,1.7,1.7,0,0,0,.43-1.25v-6.07h1.78v6a4.13,4.13,0,0,1-.4,1.9,2.85,2.85,0,0,1-1.18,1.2,4.45,4.45,0,0,1-3.73,0Z"/><path class="cls-1" d="M1513.88,485.47h1.77v6.73h-1.77Zm3.89,2.65a1,1,0,0,0-.29-.76,1.09,1.09,0,0,0-.8-.28,1,1,0,0,0-.76.28,1.06,1.06,0,0,0-.27.78l-.13-1.5a2.43,2.43,0,0,1,.73-.95,1.73,1.73,0,0,1,1.06-.32,2,2,0,0,1,1.65.72,3.13,3.13,0,0,1,.58,2v4.08h-1.77Z"/><path class="cls-1" d="M1521.2,482.77H1523v1.78h-1.77Zm0,2.7H1523v6.73h-1.77Z"/><path class="cls-1" d="M1528.46,485.47h1.77l-2.53,6.73h-1.26l-2.53-6.73h1.78l1.38,4.22Z"/><path class="cls-1" d="M1533.05,492.3l-.69-.35a2.4,2.4,0,0,1-1-1,3.3,3.3,0,0,1-.37-1.63v-.76a3.85,3.85,0,0,1,.35-1.7,2.46,2.46,0,0,1,1-1.08,3.33,3.33,0,0,1,1.61-.37,2.61,2.61,0,0,1,1.51.44,2.79,2.79,0,0,1,.95,1.28,5.61,5.61,0,0,1,.33,2v.44h-4.6v-1.2h3l0-.15a1.55,1.55,0,0,0-.37-.9,1,1,0,0,0-.78-.32,1.32,1.32,0,0,0-1,.38,1.58,1.58,0,0,0-.35,1.08v.86a1.43,1.43,0,0,0,.38,1.06,1.5,1.5,0,0,0,1.08.38,1.94,1.94,0,0,0,.71-.13,2,2,0,0,0,.64-.36l1.16,1a4.08,4.08,0,0,1-1.18.75,3.66,3.66,0,0,1-1.33.26Z"/><path class="cls-1" d="M1538.26,485.47h1.9v6.73h-1.9Zm3.47,1.68a1.45,1.45,0,0,0-.44-.07,1,1,0,0,0-.83.35,1.43,1.43,0,0,0-.3,1l-.13-1.76a2.28,2.28,0,0,1,.72-.93,1.62,1.62,0,0,1,1-.34,2.06,2.06,0,0,1,.76.14,1.64,1.64,0,0,1,.59.39l-1,1.44A.81.81,0,0,0,1541.73,487.15Z"/><path class="cls-1" d="M1545.9,492.3l-.58-.11a5.29,5.29,0,0,1-1.07-.31,4.39,4.39,0,0,1-.88-.5l1.1-1.37a4,4,0,0,0,1,.48,3.39,3.39,0,0,0,1,.17,2.71,2.71,0,0,0,1-.14c.23-.09.35-.22.35-.39a.41.41,0,0,0-.15-.34,1,1,0,0,0-.38-.17,5.94,5.94,0,0,0-.66-.08l-.24,0-.24,0H1546a6.59,6.59,0,0,1-1.21-.24,1.51,1.51,0,0,1-.76-.55,1.87,1.87,0,0,1-.32-1.17,1.92,1.92,0,0,1,1.27-1.89,4.07,4.07,0,0,1,1.49-.25,5.05,5.05,0,0,1,1,.11,5.2,5.2,0,0,1,1,.3,4.79,4.79,0,0,1,.87.46l-1.06,1.29a4.35,4.35,0,0,0-.92-.38,3.43,3.43,0,0,0-.92-.14,2.11,2.11,0,0,0-.84.13c-.2.08-.3.19-.3.34a.3.3,0,0,0,.16.26,1.11,1.11,0,0,0,.4.14l.69.09.12,0h.23a7.54,7.54,0,0,1,1.28.24,1.63,1.63,0,0,1,.84.57,1.94,1.94,0,0,1,.34,1.25,2.11,2.11,0,0,1-.33,1.2,2.15,2.15,0,0,1-1,.77,4.24,4.24,0,0,1-1.56.26Z"/><path class="cls-1" d="M1550.71,482.77h1.78v1.78h-1.78Zm0,2.7h1.78v6.73h-1.78Z"/><path class="cls-1" d="M1555,492a2.2,2.2,0,0,1-.78-1,4.3,4.3,0,0,1-.26-1.57v-1.08a4.41,4.41,0,0,1,.26-1.59,2.05,2.05,0,0,1,2-1.35,1.64,1.64,0,0,1,1,.32,2.25,2.25,0,0,1,.72.92l-.14,1.49a1.48,1.48,0,0,0-.11-.59.79.79,0,0,0-.34-.36,1,1,0,0,0-.55-.13.92.92,0,0,0-.77.34,1.52,1.52,0,0,0-.27,1v1.07a1.43,1.43,0,0,0,.27.93.94.94,0,0,0,.77.33,1.15,1.15,0,0,0,.55-.12.79.79,0,0,0,.34-.36,1.33,1.33,0,0,0,.11-.56l.09,1.53a1.66,1.66,0,0,1-1.65,1.16A2.21,2.21,0,0,1,1555,492Zm2.78-9.19h1.78v9.43h-1.78Z"/><path class="cls-1" d="M1561.51,491.78a2,2,0,0,1-.53-1.56,1.83,1.83,0,0,1,.6-1.5,2.78,2.78,0,0,1,1.8-.5h1.68l.09,1.36h-1.77a1,1,0,0,0-.6.15.6.6,0,0,0-.2.49.54.54,0,0,0,.25.49,1.52,1.52,0,0,0,.77.16,2.59,2.59,0,0,0,1.06-.17.51.51,0,0,0,.34-.5l.14,1a1,1,0,0,1-.33.61,1.92,1.92,0,0,1-.74.38,3.24,3.24,0,0,1-.94.13A2.24,2.24,0,0,1,1561.51,491.78Zm3.49-3.85a.87.87,0,0,0-.31-.72,1.42,1.42,0,0,0-.88-.25,2.45,2.45,0,0,0-.75.12,2.39,2.39,0,0,0-.65.35l-1.1-1.08a2.63,2.63,0,0,1,1.06-.72,4,4,0,0,1,1.47-.26,3.43,3.43,0,0,1,1.5.3,2.13,2.13,0,0,1,1,.85,2.66,2.66,0,0,1,.33,1.36v4.32H1565Z"/><path class="cls-1" d="M1569.21,492a2.18,2.18,0,0,1-.77-1,4.09,4.09,0,0,1-.27-1.57v-1.08a4.2,4.2,0,0,1,.27-1.59,2,2,0,0,1,2-1.35,1.66,1.66,0,0,1,1,.32,2.33,2.33,0,0,1,.72.92l-.14,1.49a1.32,1.32,0,0,0-.12-.59.79.79,0,0,0-.34-.36,1,1,0,0,0-.54-.13.92.92,0,0,0-.77.34,1.46,1.46,0,0,0-.28,1v1.07a1.38,1.38,0,0,0,.28.93.94.94,0,0,0,.77.33,1.13,1.13,0,0,0,.54-.12.79.79,0,0,0,.34-.36,1.19,1.19,0,0,0,.12-.56l.09,1.53a1.77,1.77,0,0,1-.64.86,1.7,1.7,0,0,1-1,.3A2.22,2.22,0,0,1,1569.21,492Zm2.79-9.19h1.78v9.43H1572Z"/><path class="cls-1" d="M1577.44,492.3l-.69-.35a2.47,2.47,0,0,1-1.06-1,3.41,3.41,0,0,1-.36-1.63v-.76a3.85,3.85,0,0,1,.35-1.7,2.46,2.46,0,0,1,1-1.08,3.33,3.33,0,0,1,1.61-.37,2.61,2.61,0,0,1,1.51.44,2.79,2.79,0,0,1,1,1.28,5.61,5.61,0,0,1,.33,2v.44h-4.6v-1.2h3l0-.15a1.55,1.55,0,0,0-.37-.9,1,1,0,0,0-.78-.32,1.32,1.32,0,0,0-1,.38,1.53,1.53,0,0,0-.35,1.08v.86a1.39,1.39,0,0,0,.38,1.06,1.5,1.5,0,0,0,1.08.38,1.94,1.94,0,0,0,.71-.13,2,2,0,0,0,.63-.36l1.16,1a4,4,0,0,1-1.18.75,3.57,3.57,0,0,1-1.32.26Z"/><path class="cls-1" d="M1587.06,492a2.2,2.2,0,0,1-.78-1,4.3,4.3,0,0,1-.26-1.57v-1.08a4.41,4.41,0,0,1,.26-1.59,2.05,2.05,0,0,1,2-1.35,1.64,1.64,0,0,1,1,.32,2.25,2.25,0,0,1,.72.92l-.14,1.49a1.48,1.48,0,0,0-.11-.59.85.85,0,0,0-.34-.36,1,1,0,0,0-.55-.13.92.92,0,0,0-.77.34,1.52,1.52,0,0,0-.28,1v1.07a1.43,1.43,0,0,0,.28.93.94.94,0,0,0,.77.33,1.15,1.15,0,0,0,.55-.12.85.85,0,0,0,.34-.36,1.33,1.33,0,0,0,.11-.56l.09,1.53a1.66,1.66,0,0,1-1.65,1.16A2.21,2.21,0,0,1,1587.06,492Zm2.78-9.19h1.78v9.43h-1.78Z"/><path class="cls-1" d="M1595.28,492.3l-.69-.35a2.4,2.4,0,0,1-1-1,3.41,3.41,0,0,1-.36-1.63v-.76a3.85,3.85,0,0,1,.34-1.7,2.46,2.46,0,0,1,1-1.08,3.36,3.36,0,0,1,1.61-.37,2.59,2.59,0,0,1,1.51.44,2.81,2.81,0,0,1,1,1.28,5.84,5.84,0,0,1,.32,2v.44h-4.6v-1.2h3l0-.15a1.55,1.55,0,0,0-.36-.9,1,1,0,0,0-.79-.32,1.32,1.32,0,0,0-1,.38,1.58,1.58,0,0,0-.35,1.08v.86a1.4,1.4,0,0,0,.39,1.06,1.46,1.46,0,0,0,1.08.38,2.21,2.21,0,0,0,1.34-.49l1.16,1a4,4,0,0,1-1.18.75,3.65,3.65,0,0,1-1.32.26Z"/><path class="cls-1" d="M1606.88,482.77H1608l3.61,9.43h-1.92l-2.25-6.44-2.26,6.44h-1.91ZM1605,489h5v1.71h-5Z"/><path class="cls-1" d="M1616.29,485.47h1.77l-2.53,6.73h-1.26l-2.52-6.73h1.77l1.38,4.22Z"/><path class="cls-1" d="M1620.88,492.3l-.69-.35a2.4,2.4,0,0,1-1-1,3.41,3.41,0,0,1-.37-1.63v-.76a3.85,3.85,0,0,1,.35-1.7,2.46,2.46,0,0,1,1-1.08,3.36,3.36,0,0,1,1.61-.37,2.59,2.59,0,0,1,1.51.44,2.72,2.72,0,0,1,1,1.28,5.61,5.61,0,0,1,.33,2v.44h-4.6v-1.2h3l0-.15a1.55,1.55,0,0,0-.37-.9,1,1,0,0,0-.78-.32,1.32,1.32,0,0,0-1,.38,1.58,1.58,0,0,0-.35,1.08v.86a1.43,1.43,0,0,0,.38,1.06,1.5,1.5,0,0,0,1.08.38,1.94,1.94,0,0,0,.71-.13,2,2,0,0,0,.64-.36l1.16,1a4.08,4.08,0,0,1-1.18.75,3.66,3.66,0,0,1-1.33.26Z"/><path class="cls-1" d="M1626,482.77h1.78v1.78H1626Zm0,2.7h1.78v6.73H1626Z"/><path class="cls-1" d="M1629.42,485.47h1.91v6.73h-1.91Zm3.47,1.68a1.43,1.43,0,0,0-.43-.07,1.06,1.06,0,0,0-.84.35,1.48,1.48,0,0,0-.29,1l-.14-1.76a2.47,2.47,0,0,1,.72-.93,1.64,1.64,0,0,1,1-.34,2.06,2.06,0,0,1,.76.14,1.49,1.49,0,0,1,.59.39l-1,1.44A.85.85,0,0,0,1632.89,487.15Z"/><path class="cls-1" d="M1636.1,492a2.32,2.32,0,0,1-1-1,3.48,3.48,0,0,1-.34-1.58v-1.1a3.39,3.39,0,0,1,.34-1.56,2.3,2.3,0,0,1,1-1,3.79,3.79,0,0,1,3.14,0,2.23,2.23,0,0,1,1,1,3.27,3.27,0,0,1,.34,1.56v1.12a3.31,3.31,0,0,1-.34,1.57,2.28,2.28,0,0,1-1,1,3.79,3.79,0,0,1-3.14,0Zm2.4-1.69a1.22,1.22,0,0,0,.3-.88v-1.12a1.19,1.19,0,0,0-.3-.87,1.11,1.11,0,0,0-.84-.32,1.06,1.06,0,0,0-.82.32,1.19,1.19,0,0,0-.3.87v1.12a1.26,1.26,0,0,0,.29.88,1.08,1.08,0,0,0,.83.32A1.11,1.11,0,0,0,1638.5,490.27Z"/></g></g></svg>