<svg xmlns="http://www.w3.org/2000/svg" xmlns:xlink="http://www.w3.org/1999/xlink" viewBox="0 0 1397.62 533.07"><defs><style>.cls-1{fill:#fff;}.cls-2{fill:url(#radial-gradient);}.cls-3{fill:url(#radial-gradient-2);}.cls-4{fill:url(#radial-gradient-3);}.cls-5{fill:url(#radial-gradient-4);}.cls-6{fill:none;stroke:#000;stroke-miterlimit:10;stroke-width:3px;}.cls-7{fill:url(#linear-gradient);}.cls-8{fill:url(#linear-gradient-2);}.cls-9{fill:url(#linear-gradient-3);}.cls-10{fill:url(#linear-gradient-4);}.cls-11{fill:url(#linear-gradient-5);}.cls-12{fill:url(#linear-gradient-6);}.cls-13{fill:url(#linear-gradient-7);}.cls-14{fill:url(#linear-gradient-8);}.cls-15{fill:url(#linear-gradient-9);}.cls-16{fill:url(#linear-gradient-10);}.cls-17{fill:#1a1a1a;}.cls-18{fill:#ccc;}</style><radialGradient id="radial-gradient" cx="4.18" cy="254.58" r="188.84" gradientTransform="translate(232.09 -82.05) scale(1.5 1.2)" gradientUnits="userSpaceOnUse"><stop offset="0" stop-color="#efb8a4"/><stop offset="0.18" stop-color="#dca693"/><stop offset="0.55" stop-color="#ab7867"/><stop offset="1" stop-color="#673729"/></radialGradient><radialGradient id="radial-gradient-2" cx="311.58" cy="254.58" r="194.84" xlink:href="#radial-gradient"/><radialGradient id="radial-gradient-3" cx="620.15" cy="254.27" r="194.84" xlink:href="#radial-gradient"/><radialGradient id="radial-gradient-4" cx="775.61" cy="254.28" r="116.9" xlink:href="#radial-gradient"/><linearGradient id="linear-gradient" x1="2169.31" y1="-561.22" x2="2096.32" y2="-208.34" gradientTransform="matrix(0.84, 0.01, 0.01, -0.84, -726.93, 37.78)" gradientUnits="userSpaceOnUse"><stop offset="0" stop-color="#1f1f1f"/><stop offset="0.6" stop-color="#090909"/><stop offset="1"/></linearGradient><linearGradient id="linear-gradient-2" x1="1633.09" y1="-981.99" x2="1652.34" y2="-957.38" gradientTransform="matrix(0.76, -0.34, -0.34, -0.76, -600.07, 114.85)" gradientUnits="userSpaceOnUse"><stop offset="0" stop-color="#ececec"/><stop offset="1" stop-color="#fff"/></linearGradient><linearGradient id="linear-gradient-3" x1="1687.05" y1="-1048.22" x2="1702.02" y2="-1019.6" gradientTransform="matrix(0.76, -0.34, -0.34, -0.76, -600.07, 114.85)" gradientUnits="userSpaceOnUse"><stop offset="0" stop-color="#b3b3b3"/><stop offset="1" stop-color="#fff"/></linearGradient><linearGradient id="linear-gradient-4" x1="1761.79" y1="-1064.88" x2="1786.04" y2="-1045.36" xlink:href="#linear-gradient-3"/><linearGradient id="linear-gradient-5" x1="1835.58" y1="-1098.87" x2="1859.59" y2="-1076.57" xlink:href="#linear-gradient-3"/><linearGradient id="linear-gradient-6" x1="1755.85" y1="-808.96" x2="1763.44" y2="-904.38" gradientTransform="matrix(0.8, -0.25, -0.25, -0.8, -630.68, 40.46)" gradientUnits="userSpaceOnUse"><stop offset="0" stop-color="#ccc"/><stop offset="1" stop-color="#fff"/></linearGradient><linearGradient id="linear-gradient-7" x1="1832.25" y1="-802.88" x2="1839.84" y2="-898.3" xlink:href="#linear-gradient-6"/><linearGradient id="linear-gradient-8" x1="1908.63" y1="-796.81" x2="1916.22" y2="-892.23" xlink:href="#linear-gradient-6"/><linearGradient id="linear-gradient-9" x1="1985.02" y1="-790.73" x2="1992.61" y2="-886.15" xlink:href="#linear-gradient-6"/><linearGradient id="linear-gradient-10" x1="2063.08" y1="-318.15" x2="1989.84" y2="-234.93" gradientTransform="matrix(0.84, 0.01, 0.01, -0.84, -726.93, 37.75)" gradientUnits="userSpaceOnUse"><stop offset="0" stop-color="#292929"/><stop offset="0.1" stop-color="#212121"/><stop offset="0.47" stop-color="#090909"/><stop offset="0.69"/></linearGradient></defs><title>Asset 3</title><g id="Layer_2" data-name="Layer 2"><g id="Layer_1-2" data-name="Layer 1"><line class="cls-1" x1="1381.9" y1="19.38" x2="1381.9" y2="80.38"/><line class="cls-1" x1="1381.9" y1="366.38" x2="1381.9" y2="427.38"/><rect class="cls-2" x="17.06" y="90.85" width="442.62" height="265.01"/><rect class="cls-3" x="471.98" y="86.64" width="456.67" height="273.42"/><rect class="cls-4" x="935.68" y="86.27" width="456.67" height="273.42"/><line class="cls-5" x1="1397.62" y1="359.71" x2="1397.62" y2="86.29"/><path d="M0,0H1393.9V445H0V0M39.51,32a11.16,11.16,0,0,0-3.41,8.87c.18,9.81-.52,19.65.68,29.43C46,72.84,56,71.73,65.54,71.64c4,.06,5.24-3.48,5.26-6.12.25-7.82-.09-15.65.11-23.48-.11-3.28.38-7.52-3.51-9.57-9.27-1-18.63-.25-27.9-.43m92.28.43c-2.76,1.6-2.17,4.81-2.75,7.22-.19,10.18-.58,20.42.71,30.58,7.67,2.61,16.14,1.3,24.2,1.57,3.63.35,6.83-1,9.6-2.8-.25-11.67-.08-23.33-.1-35-6-2.91-13.1-1.84-19.72-2-4,.05-8-.19-11.89.42m280.4-.12c-4.83.71-4.59,5.46-4.52,8.51.42,9.56-.56,19.18.47,28.7,4.19,2.79,9.94,2.18,15,2.31,5.88-.15,12.07.56,17.66-1.34,1.35-9.44.16-19,.61-28.47-.3-3.25,1.18-7.9-3.37-9.61a160.41,160.41,0,0,0-25.84-.1M501.12,36c-1.57,5.45-.83,11.1-1,16.64.14,6.17-1.16,12.75,2.75,18.39a166.09,166.09,0,0,0,24.54.67c3,0,6.27-1.47,6.79-4,1.51-6.52.06-13.17.11-19.74-.09-3.84.49-7.72-.33-11.52a5.46,5.46,0,0,0-5.51-4.24,177.8,177.8,0,0,0-22.5.07A5,5,0,0,0,501.06,36m92.28,1.62c-.53,8.15,0,16.32-.29,24.47.11,3-.5,6.81,3.09,8.72,3.75,1.57,8.21.81,12.27,1,5.89-.26,12.16.74,17.75-1.2,2.44-8.2.56-16.7.91-25-.25-4.58,1.4-9.83-2.72-13.59-8.12.12-16.24-.44-24.34.19-3.5,0-6.69,2.6-6.64,5.43m279.06-3.74C872.49,41,870.9,48,871.94,55c.71,5.17-.17,10.42,1,15.54,10.24,2.43,21.34,1.34,31.83.46,1.55-8,.82-16.14,1-24.21-.13-5,.75-10.69-3.59-14.81-9.88.93-20.59-1.92-29.75,1.92m375-1.55a4.24,4.24,0,0,0-3.71,3.89c-.67,4.68-.11,9.41-.32,14.12-.11,5.43-1.39,10.83-.71,16.26a5.58,5.58,0,0,0,5.47,5c7.24.39,14.52.25,21.78.1,2.91.06,6.72-1.25,6.63-4,.49-10.09.32-20.2.14-30.29.33-2.7-2.24-5.38-5.7-5.26-7.82-.2-15.75-.51-23.57.19m93.93-.07c-2.57.17-4.88,1.85-5.11,4-.87,5.84-.09,11.74-.29,17.61.06,5.61-.79,11.42,1.48,16.85,4.19,1.6,9,1,13.49,1.17,5.93-.17,12.12.53,17.86-1.14,2-6.3.61-12.84.73-19.24-.15-4.69.69-9.39.21-14.08a5.84,5.84,0,0,0-6.08-5.2,195,195,0,0,0-22.29.08M223.9,33c-2.84,3.76-2.08,8.44-2.15,12.66.84,8.48-1.13,17.12,1.8,25.43a162.84,162.84,0,0,0,25.85.61c3.2-.15,7.07-1.77,6.47-4.85.07-9.18-.43-18.38.23-27.57.4-2.91-.65-6.95-5.21-6.91-9,0-18.17-.92-27,.63m94-.14c-3,1.35-2.25,4.58-2.56,6.9.23,9.4-.31,18.8.24,28.19-.29,3.4,4.4,4.08,7.61,3.93,8-.18,16.25.65,24.17-.77,2.55-4.26,1.37-9.17,1.47-13.72-.42-7.25,1-14.55-.43-21.74-.9-3.33-5.76-3.56-9.15-3.45-7.15.21-14.46-.62-21.41.66m369,0c-.79,9.35.57,18.72-.39,28.07.22,3.29-.79,7.37,2.24,10,9.58,1.8,19.7,1,29.43.23a19.77,19.77,0,0,0,1.94-12.57c-1.51-7.37,1.72-14.8-.12-22.14-.67-1.77-1.72-4.1-4.49-4a199.48,199.48,0,0,0-28.61.44m94.18.06c-1.86,2.36-1.65,5.29-1.78,8,0,6.67.17,13.35-.22,20,.11,2.79-.52,5.85,1.2,8.42,2.61,3.14,8,2.35,12,2.57,6.4-.21,13.12.65,19.24-1.29,2.1-2.49,1.4-5.68,1.61-8.53-.28-8.61.24-17.21-.2-25.81-.05-3.12-4.36-4.27-7.55-4.06-8.08.16-16.31-.7-24.24.7m183.33,8c.84,8.62-.49,17.27.43,25.87,0,2.93,3.31,5.13,6.81,5,7.22.15,14.54.47,21.74-.32,4.86-.35,4.84-5.13,4.94-8.11-.34-10.17.73-20.39-.82-30.52-9-.92-18.21-.69-27.28-.5-5.67-.37-5.72,5.34-5.77,8.59m93,0c.36,9.34-.72,18.77,1.06,28,.17,2.4,3.61,2.4,5.81,2.76a180.13,180.13,0,0,0,25.66-.42,105,105,0,0,0,.17-38.36,165.23,165.23,0,0,0-28.57-.33c-4.74.73-4,5.44-4.17,8.32m93,.06c.58,10.09-.49,20.25,1.07,30.28,10.73.93,21.68,1.17,32.35-.38.68-10.37.25-20.75.39-31.13,0-2.64,0-6.55-4.17-7.13-8.11-.73-16.33-.4-24.46-.25-5.72-.33-5.2,5.49-5.25,8.61M16.55,90.56c-.12,88.21-.24,176.46.19,264.67q218.22-.17,436.45,0c.85-9.25.34-18.53.47-27.8,1.36-31.31.46-62.66.69-94-1.9-30.51.43-61,0-91.54.13-17.11,0-34.22-1.19-51.3-29.82-.28-59.65-.2-89.47-.21-86.38.09-172.75-.24-259.11.23-29.39-.6-58.74,0-88.08-.06m464.26,0c-.8,21.4-.13,42.81-.35,64.22V274.59c.2,26.76-.42,53.53.33,80.29,77.74.43,155.48.06,233.22.19,66.59,0,133.19.07,199.77-.05,5,.71,4.73-3.63,4.81-6.42-.31-74.37.21-148.76-.09-223.15-.44-11.62.59-23.27-.78-34.87-28.83.23-57.64-.4-86.46-.19-74.31.2-148.62.43-222.93,0-42.46-.21-85,.38-127.48.21m464.44,0c-.75,33.93.2,67.89-.56,101.83,0,54.33,0,108.64.54,163q36.36-.08,72.75,0c21.21,1,42.46.36,63.69.54,21.72-.18,43.46.47,65.14-.55q39.09,0,78.17,0c32.82.2,65.65-.5,98.43.57,19.28.34,38.52-.77,57.8-.64,1.34-11.2.36-22.47.65-33.71-.27-77,.62-154-.58-230.95-90.7,0-181.4-.38-272.1-.22-54.66-.18-109.32.51-164,.18m-905.16,288c-3.42,1.34-3.57,4.86-3.8,7.52-.39,7.46-.23,14.93-.21,22.4.24,3,0,7.3,4.24,8.6,4.85,1.3,10.06,1,15.08,1,4.56-.13,9.6.06,13.52-2.18,1.25-2.76,1-5.77,1.1-8.66,0-8.87,1-17.83-.78-26.63-.45-2.51-4.23-2.29-6.56-2.41-7.52.06-15.13-.54-22.59.32m92.48-.22-2.78,2.35c-.37,10.06.31,20.13-.71,30.18,0,2.57.58,6.51,4.66,6.72,7.13.78,14.39.55,21.57.37,3.45-.05,8.55-1.34,8-4.86.08-9.39,0-18.8,0-28.19.27-2.81-1.32-6.64-5.47-6.56-8.39-.46-16.89-.12-25.33,0m90,2.38c-.65,3.73-.29,7.51-.46,11.27-.21,7.91-1.4,16,.95,23.8,4.16,2.6,9.79,2.09,14.74,2.33,5.63-.21,11.94.6,16.92-2.05,1.7-3.12,1.43-6.63,1.35-9.95-.56-8.65,0-17.3,0-25.94-5.8-3.29-13.18-1.61-19.77-2-4.63.22-10.55-.84-13.79,2.57m95.42-2.2-1.16.18c-2.91,5.61-1,12.05-1.49,18,.54,6.44-1.31,13.25,1.07,19.43,6.27,3.21,14.3,1.65,21.34,1.83,3.75-.44,10.08,0,10.72-4.08,1.07-8.83-.26-17.75.38-26.62-.22-3,.73-8.16-4.21-8.81a201,201,0,0,0-26.66.07m89.76,5.31c-.21,10.54.13,21.09-.1,31.62,6.54,4,15.12,2.3,22.73,2.63,3.64-.28,9.3.48,10.76-3.13,3.35-8.67-.73-17.66.21-26.51-.34-3.27,1.21-7.82-3-9.86-8.39-.79-16.93-.47-25.38-.27a4.88,4.88,0,0,0-5.31,5.52m97-5.27a3.83,3.83,0,0,0-3.43,3c-2,6.87-1,14-1.24,21,.11,4-.55,8.21.84,12.15,1.39,3.54,6.75,3.13,10.4,3.35,6.92-.2,14.17.8,20.87-1,3.09-2.57,2.42-6.49,2.63-9.77-.25-7.47.26-14.93-.23-22.39-.31-2.44-.89-6.15-4.67-6.46a181.45,181.45,0,0,0-25.11.12m90.68-.22c-4.17,9.65-1.51,20.09-2.28,30.1.49,3-1.13,8.42,3.92,9.05,7.07,1,14.32.58,21.47.49,2.76-.29,7.17-.09,7.92-2.94,1.55-6.44.3-13,.51-19.52-.19-4.92.63-9.93-.55-14.78-.61-1.84-3-2.48-5.11-2.45-8.6-.37-17.25-.06-25.89.05m92.59-.08a16.48,16.48,0,0,0-1.65,11.36c1.45,8.75-1.38,17.65,1,26.31,1.92,1.74,5,1.83,7.71,2.05a151,151,0,0,0,17.41-.19c2.77-.32,6.54-1,7-3.72,1.6-5.3.63-10.82.7-16.21-.29-5.06.64-10.18-.29-15.22-.41-2.48-3.16-4.29-6.18-4.3-8.55-.44-17.14-.1-25.74-.08m93.62.68c-3.81,4.87-2.37,11.11-2.47,16.6.84,6.79-.9,13.72.9,20.43,3.4,2.16,8,2,12.07,2.12,5.25,0,10.54.24,15.74-.42,1.67-.28,4-.9,4.21-2.51,1.15-4.92.45-10,.58-14.94-.23-7.31,1-14.83-1.75-21.93-9.73.29-19.82-1.12-29.29.65m95.07-.4c-2,.26-4.29,1.3-4.32,3.15-.8,5.37.29,10.79-.27,16.18-.64,6-.94,12.05.89,17.91,5,3,11.76,2.09,17.63,2.33,4.48-.28,9.83.35,13.44-2.28,2.34-3.29,1.5-7.28,1.69-10.91-.31-7.42.39-14.85-.28-22.25-.26-3.07-4.41-4.35-7.68-4.37a160.37,160.37,0,0,0-21.16.24m91.26.06c-3.78,1.34-3.28,5.81-3.62,8.65.51,7.47.2,14.94,0,22.42.4,2.78-.21,7.6,4.69,7.79a104.56,104.56,0,0,0,25.25-.1c4.12-.83,3.8-5,4-7.69-.11-8.65.09-17.31,0-25.95.15-2.84-2.76-5.69-6.43-5.46-8-.14-16-.47-24,.34m89.91,4.23c-.84,8.15-.2,16.33-.45,24.49a19.18,19.18,0,0,0,2.58,10.16c9.74.44,19.84,1.52,29.41-.51,3-3.07,2-7.25,2.25-10.87-.32-7.76.45-15.56-.4-23.29,0-2.81-3.52-4.63-6.72-4.51a211.94,211.94,0,0,0-21.39.09c-2.84.05-5.25,2.13-5.2,4.44m95.21-4.51-2.76,2.37c.06,11.7-.87,23.48.51,35.11,2.92,1.9,6.81,2.1,10.42,2.24,7.6.18,15.34.33,22.69-1.5a317.77,317.77,0,0,0-.08-35.86c-1-.75-1.9-1.51-2.8-2.28-9.32-.34-18.63-.33-28-.08m92.18,0c-2.92,5.85-1.56,12.25-1.79,18.38.18,6.54-.6,13.14.54,19.65,2.41,1.45,5.53,1.49,8.43,1.66,8.05.17,16.29.46,24.13-1.44,1.14-10.55,0-21.12.27-31.69-.21-2.06.25-4.74-2.25-6-9.57-2.32-19.61-.4-29.34-.55m93.21.23c-4.59,3.19-3.4,9-3.75,13.48.33,8.51-1.2,17.43,3.23,25.46a198.13,198.13,0,0,0,24.61.41c2.37-.22,5.9-.53,6.51-2.87,1.71-7.21.31-14.57.56-21.84-.17-5,1.2-10.54-2.76-14.85-9.47,0-19-.64-28.41.21Z"/><path d="M1396.06,445.39V.38"/><path d="M504.79,248.71a18.71,18.71,0,0,1-7.65-1.55,17.68,17.68,0,0,1-6-4.31,20.09,20.09,0,0,1-3.94-6.65,24.8,24.8,0,0,1-1.41-8.54,24.53,24.53,0,0,1,1.41-8.5,20.15,20.15,0,0,1,3.94-6.62,17.81,17.81,0,0,1,6-4.31,18.71,18.71,0,0,1,7.65-1.54h6.87v4.22h-6.87a15.63,15.63,0,0,0-6.14,1.19,14.19,14.19,0,0,0-4.85,3.4,15.49,15.49,0,0,0-3.18,5.3,19.67,19.67,0,0,0-1.14,6.86,20,20,0,0,0,1.14,6.9,15.35,15.35,0,0,0,3.18,5.33,14.06,14.06,0,0,0,4.85,3.4,15.46,15.46,0,0,0,6.14,1.19h6.87v4.23Zm0-6.62a13.23,13.23,0,0,1-5.19-1,12,12,0,0,1-4.19-2.86,13.36,13.36,0,0,1-2.78-4.54,18.41,18.41,0,0,1,0-12,13.46,13.46,0,0,1,2.78-4.54,12.11,12.11,0,0,1,4.19-2.86,13.41,13.41,0,0,1,5.19-1h6.87v4.22h-6.87A9.34,9.34,0,0,0,498,220q-2.61,2.52-2.61,7.62t2.61,7.66a9.28,9.28,0,0,0,6.77,2.55h6.87v4.22Z"/><path d="M515.75,206.69h3.85v42h-3.85Zm9.77,42h-3.78v-42h3.78Z"/><path d="M530.5,223.63a22.64,22.64,0,0,1,1.1-7.34,15.44,15.44,0,0,1,3.15-5.51,13.86,13.86,0,0,1,4.94-3.5,17.87,17.87,0,0,1,13,0,14,14,0,0,1,5,3.5,15.75,15.75,0,0,1,3.15,5.51,22.92,22.92,0,0,1,1.1,7.34v25.08H558V223.63a16.82,16.82,0,0,0-.95-5.92,11.72,11.72,0,0,0-2.55-4.16,10.3,10.3,0,0,0-3.75-2.45,12.69,12.69,0,0,0-4.6-.82,13,13,0,0,0-4.63.82,10.25,10.25,0,0,0-3.78,2.45,11.72,11.72,0,0,0-2.55,4.16,16.83,16.83,0,0,0-.94,5.92v25.08H530.5Zm5.92,0a14.44,14.44,0,0,1,.75-4.91,9.62,9.62,0,0,1,2.08-3.44,8.07,8.07,0,0,1,3.12-2,11.45,11.45,0,0,1,3.81-.63,11.11,11.11,0,0,1,3.78.63,8,8,0,0,1,3.09,2,9.48,9.48,0,0,1,2.08,3.44,14.43,14.43,0,0,1,.76,4.91v25.08h-3.78V223.63c0-2.43-.55-4.23-1.64-5.38a5.63,5.63,0,0,0-4.29-1.74,5.7,5.7,0,0,0-4.31,1.74c-1.12,1.15-1.67,2.95-1.67,5.38v25.08h-3.78Z"/><path d="M566.78,248.71v-42h19.28v4.22H570.63v33.57H586v4.23Zm5.93-22.5V213.3h13.35v4.22h-9.51V222h9.2v4.22Zm0,15.88V228.61h13v4.22h-9.2v5H586v4.22Z"/><path d="M589.65,223.63a22.92,22.92,0,0,1,1.1-7.34,15.75,15.75,0,0,1,3.15-5.51,14,14,0,0,1,5-3.5,16.47,16.47,0,0,1,6.49-1.22,14.21,14.21,0,0,1,6.46,1.38,12.27,12.27,0,0,1,4.31,3.47,11,11,0,0,1,4.29-3.47,14.78,14.78,0,0,1,6.55-1.38,16.5,16.5,0,0,1,6.49,1.22,13.86,13.86,0,0,1,4.94,3.5,15.44,15.44,0,0,1,3.15,5.51,22.64,22.64,0,0,1,1.11,7.34v25.08h-3.85V223.63a16.83,16.83,0,0,0-.94-5.92,11.72,11.72,0,0,0-2.55-4.16,10.47,10.47,0,0,0-3.75-2.45,12.69,12.69,0,0,0-4.6-.82,10.31,10.31,0,0,0-3.37.56,11.51,11.51,0,0,0-3.09,1.61,12.66,12.66,0,0,0-2.55,2.52,11.59,11.59,0,0,0-1.76,3.24,14.94,14.94,0,0,0-3.94-5.76,10.14,10.14,0,0,0-6.9-2.17,12.93,12.93,0,0,0-4.63.82,10.25,10.25,0,0,0-3.78,2.45,11.72,11.72,0,0,0-2.55,4.16,16.82,16.82,0,0,0-1,5.92v25.08h-3.78Zm21.61,0a10.31,10.31,0,0,0-.47-3.31,6.13,6.13,0,0,0-1.29-2.2,4.83,4.83,0,0,0-1.89-1.23,6.84,6.84,0,0,0-2.27-.38,5.73,5.73,0,0,0-4.32,1.74c-1.11,1.15-1.67,2.95-1.67,5.38v25.08h-3.78V223.63a14.43,14.43,0,0,1,.76-4.91,9.48,9.48,0,0,1,2.08-3.44,8,8,0,0,1,3.12-2,11.36,11.36,0,0,1,3.81-.63,11.7,11.7,0,0,1,3.78.6,8.22,8.22,0,0,1,3.09,1.89,8.77,8.77,0,0,1,2.07,3.37,14.9,14.9,0,0,1,.76,5.1v25.08h-3.78Zm5.92,0a14.19,14.19,0,0,1,.76-4.91,9.48,9.48,0,0,1,2.08-3.44,8,8,0,0,1,3.12-2,11.36,11.36,0,0,1,3.81-.63,11.19,11.19,0,0,1,3.78.63,8.08,8.08,0,0,1,3.08,2,9.35,9.35,0,0,1,2.08,3.44,14.19,14.19,0,0,1,.76,4.91v25.08h-3.78V223.63c0-2.43-.55-4.23-1.64-5.38a5.61,5.61,0,0,0-4.28-1.74,5.13,5.13,0,0,0-4.48,2.05,8.62,8.62,0,0,0-1.44,5.07v25.08h-3.85Z"/><path d="M650.51,248.71h-3.78V223.63a22.92,22.92,0,0,1,1.1-7.34,15.75,15.75,0,0,1,3.15-5.51,14,14,0,0,1,4.95-3.5,17.87,17.87,0,0,1,13,0,13.86,13.86,0,0,1,4.94,3.5,15.44,15.44,0,0,1,3.15,5.51,22.64,22.64,0,0,1,1.1,7.34v25.08h-3.84V223.63a16.83,16.83,0,0,0-.94-5.92,11.6,11.6,0,0,0-2.56-4.16A10.34,10.34,0,0,0,667,211.1a12.73,12.73,0,0,0-4.6-.82,12.89,12.89,0,0,0-4.63.82,10.25,10.25,0,0,0-3.78,2.45,11.6,11.6,0,0,0-2.56,4.16,16.83,16.83,0,0,0-.94,5.92Zm21.61-17.77H652.65v-7.31a14.19,14.19,0,0,1,.76-4.91,9.35,9.35,0,0,1,2.08-3.44,8,8,0,0,1,3.11-2,11.47,11.47,0,0,1,3.82-.63,11.19,11.19,0,0,1,3.78.63,8.08,8.08,0,0,1,3.08,2,9.35,9.35,0,0,1,2.08,3.44,14.19,14.19,0,0,1,.76,4.91Zm-3.78,17.77V237.3H656.43v11.41h-3.78V233.33h19.47v15.38Zm0-21.61v-3.47c0-2.43-.55-4.23-1.64-5.38a5.61,5.61,0,0,0-4.28-1.74,5.71,5.71,0,0,0-4.32,1.74c-1.11,1.15-1.67,2.95-1.67,5.38v3.47Z"/><path d="M744.47,222.12v4.22H733v-4.22ZM733,232.89v-4.22h11.47v4.22Z"/><path d="M797.73,222.56v26.15H785.64a18.73,18.73,0,0,1-7.66-1.55,17.54,17.54,0,0,1-6-4.31A19.76,19.76,0,0,1,768,236.2a24.56,24.56,0,0,1-1.42-8.54,24.3,24.3,0,0,1,1.42-8.5,19.81,19.81,0,0,1,3.94-6.62,17.68,17.68,0,0,1,6-4.31,18.72,18.72,0,0,1,7.66-1.54h12.09v4.22H785.64a15.65,15.65,0,0,0-6.15,1.19,14.29,14.29,0,0,0-4.85,3.4,15.81,15.81,0,0,0-3.18,5.3,19.9,19.9,0,0,0-1.13,6.86,20.22,20.22,0,0,0,1.13,6.9,15.66,15.66,0,0,0,3.18,5.33,14.15,14.15,0,0,0,4.85,3.4,15.47,15.47,0,0,0,6.15,1.19H794v-17.7H783.24v-4.22Zm-12.09,19.53a13.24,13.24,0,0,1-5.2-1,12,12,0,0,1-4.19-2.86,13.19,13.19,0,0,1-2.77-4.54,18.24,18.24,0,0,1,0-12,13.28,13.28,0,0,1,2.77-4.54,12.11,12.11,0,0,1,4.19-2.86,13.42,13.42,0,0,1,5.2-1h12.09v4.22H785.64a9.37,9.37,0,0,0-6.78,2.52q-2.61,2.52-2.61,7.62t2.61,7.66a9.31,9.31,0,0,0,6.78,2.55H788v-5h-4.79v-4.22h8.51v13.48Z"/><path d="M820.79,248.71a18.71,18.71,0,0,1-7.65-1.55,17.58,17.58,0,0,1-6-4.31,20.09,20.09,0,0,1-3.94-6.65,24.8,24.8,0,0,1-1.42-8.54,24.53,24.53,0,0,1,1.42-8.5,20.15,20.15,0,0,1,3.94-6.62,17.72,17.72,0,0,1,6-4.31,18.71,18.71,0,0,1,7.65-1.54h1.51a18.75,18.75,0,0,1,7.66,1.54,17.77,17.77,0,0,1,6,4.31,20,20,0,0,1,3.94,6.62,24.3,24.3,0,0,1,1.42,8.5,24.56,24.56,0,0,1-1.42,8.54,19.92,19.92,0,0,1-3.94,6.65,17.64,17.64,0,0,1-6,4.31,18.76,18.76,0,0,1-7.66,1.55Zm-15.31-21.05a20.22,20.22,0,0,0,1.13,6.9,15.52,15.52,0,0,0,3.19,5.33,14.06,14.06,0,0,0,4.85,3.4,15.42,15.42,0,0,0,6.14,1.19h1.51a15.27,15.27,0,0,0,6.08-1.19,14.06,14.06,0,0,0,4.85-3.4,15.35,15.35,0,0,0,3.18-5.33,20,20,0,0,0,1.14-6.9,19.67,19.67,0,0,0-1.14-6.86,15.49,15.49,0,0,0-3.18-5.3,14.19,14.19,0,0,0-4.85-3.4,15.44,15.44,0,0,0-6.08-1.19h-1.51a15.6,15.6,0,0,0-6.14,1.19,14.19,14.19,0,0,0-4.85,3.4,15.67,15.67,0,0,0-3.19,5.3A19.9,19.9,0,0,0,805.48,227.66Zm15.31,14.49a13.46,13.46,0,0,1-5.2-1,12,12,0,0,1-4.19-2.9,13.68,13.68,0,0,1-2.77-4.57,18.24,18.24,0,0,1,0-12,13.78,13.78,0,0,1,2.77-4.57,11.88,11.88,0,0,1,4.19-2.89,13.28,13.28,0,0,1,5.2-1h1.51a13.06,13.06,0,0,1,5.17,1,12,12,0,0,1,4.16,2.89,13.78,13.78,0,0,1,2.77,4.57,18.24,18.24,0,0,1,0,12,13.68,13.68,0,0,1-2.77,4.57,12.2,12.2,0,0,1-4.16,2.9,13.23,13.23,0,0,1-5.17,1Zm1.51-4.22a9.22,9.22,0,0,0,6.77-2.58q2.63-2.58,2.62-7.69T829,220a9.25,9.25,0,0,0-6.74-2.58h-1.51A9.28,9.28,0,0,0,814,220q-2.62,2.55-2.62,7.65t2.62,7.69a9.22,9.22,0,0,0,6.77,2.58Z"/><path d="M845.42,248.71v-42H864.7v4.22H849.26v33.57h15.38v4.23Zm5.92-22.5V213.3H864.7v4.22h-9.51V222h9.2v4.22Zm0,15.88V228.61h13v4.22h-9.2v5h9.45v4.22Z"/><path d="M881.65,210.91q-9.58,0-9.58,10.52v27.28h-3.78V221.43q0-7.12,3.53-10.93t9.83-3.81h7.87v4.22Zm0,6.61a3.91,3.91,0,0,0-2.93.85,4.52,4.52,0,0,0-.79,3.06v27.28h-3.84V221.43q0-4.47,2-6.3a8,8,0,0,1,5.52-1.83h7.87v4.22Z"/><path d="M892.92,242.09v-4.22H907.6a2.52,2.52,0,0,0,1.8-.69,2.68,2.68,0,0,0,.72-2,2.38,2.38,0,0,0-.82-2,2.66,2.66,0,0,0-1.7-.66h-3.21a12.81,12.81,0,0,1-5-1,11.85,11.85,0,0,1-3.94-2.65,12.05,12.05,0,0,1-2.61-4.09,14.31,14.31,0,0,1-.94-5.29,14.88,14.88,0,0,1,.88-5.26,11.68,11.68,0,0,1,2.49-4.07,10.91,10.91,0,0,1,3.84-2.61,13.11,13.11,0,0,1,5-.91h14.3v4.22h-14.3a8.23,8.23,0,0,0-6.15,2.33,8.58,8.58,0,0,0-2.3,6.3,9.45,9.45,0,0,0,.67,3.62,7.89,7.89,0,0,0,4.6,4.5,9.29,9.29,0,0,0,3.43.63h3a5.94,5.94,0,0,1,2.46.54,7.44,7.44,0,0,1,3.69,3.62,6.38,6.38,0,0,1,.59,2.71,7,7,0,0,1-1.85,5,6.1,6.1,0,0,1-4.63,2Zm0,6.62v-4.23h14.75a9.72,9.72,0,0,0,3.55-.63,7.78,7.78,0,0,0,2.87-1.82,8.67,8.67,0,0,0,1.89-2.9,10.33,10.33,0,0,0,.69-3.91,9.86,9.86,0,0,0-.75-3.9,8.66,8.66,0,0,0-2-3,9.47,9.47,0,0,0-6.46-2.52h-3a6.25,6.25,0,0,1-4.35-1.67,5.87,5.87,0,0,1-1.82-4.57,6.52,6.52,0,0,1,1.57-4.6,5.65,5.65,0,0,1,4.35-1.7h14.3v4.22H904.26a1.87,1.87,0,0,0-1.6.63,2.32,2.32,0,0,0-.48,1.45,2.09,2.09,0,0,0,.57,1.45,1.93,1.93,0,0,0,1.51.63h3.15a12.94,12.94,0,0,1,5.07,1,12.26,12.26,0,0,1,4.13,2.77,12.8,12.8,0,0,1,2.77,4.28,14.61,14.61,0,0,1,1,5.51,15.45,15.45,0,0,1-.94,5.52A12.45,12.45,0,0,1,916.8,245a11.86,11.86,0,0,1-4,2.74,13.13,13.13,0,0,1-5.1,1Z"/><path d="M726,214.39l-.08-.08a2.42,2.42,0,0,0-3.71.18l-3.7,4.92a.46.46,0,0,1-.76,0l-6.91-6.63a2.83,2.83,0,0,0-2-.79l-8.26.42a.59.59,0,0,0-.44.2l-6.58,8.19a3.72,3.72,0,0,0,.07,4.37,2.36,2.36,0,0,0,1.94.89,2.32,2.32,0,0,0,1.85-1.08l4.61-6.39,1.75-.09L693,234.26l-7.12.36a3.35,3.35,0,0,0-3,3.55,3.73,3.73,0,0,0,1,2.63,3.09,3.09,0,0,0,2.25.95l10.61-.53a.65.65,0,0,0,.51-.29l5.11-7.14,4.83,5.39-.84,10.4a3.84,3.84,0,0,0,1.87,4.1,2.36,2.36,0,0,0,1.31.29,2.63,2.63,0,0,0,1.35-.42,3.74,3.74,0,0,0,1.47-2.49l1.6-15a1.44,1.44,0,0,0-.27-.79L707,228.2l4.7-6.13,4.77,4.77a2.35,2.35,0,0,0,3.64-.18l6.13-8A3.49,3.49,0,0,0,726,214.39Zm-.91,3.08-6.13,8a1,1,0,0,1-1.51.08l-5.33-5.37a.66.66,0,0,0-1.06.06l-5.71,7.43a.88.88,0,0,0-.19.63,1,1,0,0,0,.34.7l6.9,7.33-1.55,14.46a2.42,2.42,0,0,1-.78,1.2,1.29,1.29,0,0,1-1.28.06,2.06,2.06,0,0,1-.95-2.18l.89-10.94a1.09,1.09,0,0,0-.26-.7l-5.71-6.32a.63.63,0,0,0-.55-.24.55.55,0,0,0-.51.29l-5.4,7.5L686,240a1.39,1.39,0,0,1-1.16-.47,2.48,2.48,0,0,1-.45-1.32A1.66,1.66,0,0,1,686,236.4l7.43-.37c.22,0,.37-.11.52-.12l12-17.57a1.1,1.1,0,0,0,.1-1,.68.68,0,0,0-.71-.5l-3.79.19a.75.75,0,0,0-.51.3L696.22,224a.89.89,0,0,1-.74.48,1.1,1.1,0,0,1-.85-.4,1.54,1.54,0,0,1,0-1.87L701,214.3l8-.4a1.27,1.27,0,0,1,.93.4l6.92,6.63a1.88,1.88,0,0,0,2.87-.24l3.7-4.92a1,1,0,0,1,1.52-.07l.08.08A1.4,1.4,0,0,1,725.1,217.47Z"/><path class="cls-6" d="M747.09,242.14l15.5-14-15.5-15Z"/><path d="M721.75,213.33h7.59a.64.64,0,0,0,.64-.64v-1.92l4.16,2.24a.6.6,0,0,0,.63,0,.62.62,0,0,0,.32-.55v-9.16a.65.65,0,0,0-.32-.56.64.64,0,0,0-.63,0L730,205V203a.64.64,0,0,0-.64-.64h-1.05a5.77,5.77,0,1,0-9.23-5.84,4.35,4.35,0,1,0-6.44,5.84H712a.64.64,0,0,0-.64.64V206h-1.63a.64.64,0,0,0-.64.64v2.53a.65.65,0,0,0,.64.65h1.63v2.92a.64.64,0,0,0,.64.64h7.59m-8.23-4.85h-1v-1.24h1Zm13.27-15a4.48,4.48,0,1,1-4.48,4.48A4.49,4.49,0,0,1,724.66,193.43Zm-4.91,7.49a5.67,5.67,0,0,0,1.29,1.47h-2.25A4.4,4.4,0,0,0,719.75,200.92Zm-4-4.66a3.07,3.07,0,1,1-3.07,3.06A3.07,3.07,0,0,1,715.71,196.26Zm13,9.77v6h-16v-8.37h16Zm5.11,5.33L730,209.31v-2.9l3.82-2.06Z"/><path d="M715.71,197.37a2,2,0,1,0,1.95,1.95A2,2,0,0,0,715.71,197.37Zm0,2.75a.8.8,0,1,1,0-1.59.8.8,0,0,1,0,1.59Z"/><path d="M724.66,195.1a2.81,2.81,0,1,0,2.81,2.81A2.8,2.8,0,0,0,724.66,195.1Zm0,4.33a1.52,1.52,0,1,1,1.52-1.52A1.53,1.53,0,0,1,724.66,199.43Z"/><path d="M722.59,205.54h-7a.61.61,0,0,0-.61.62v3.4a.61.61,0,0,0,.61.61h7a.61.61,0,0,0,.61-.61v-3.4A.62.62,0,0,0,722.59,205.54ZM722,209H716.2v-2.18H722V209Z"/><circle cx="725.96" cy="206.8" r="0.64"/><circle cx="725.96" cy="208.92" r="0.64"/><path id="path7494" class="cls-7" d="M1187,322.37l-227.46-3.24.4-28.22-37.91-.54-3.15,221.29a17.62,17.62,0,0,0,17.38,17.88l247.75,3.53a17.63,17.63,0,0,0,17.88-17.38l2.5-175.45a17.63,17.63,0,0,0-17.38-17.88Z"/><rect id="rect7498" class="cls-1" x="1064.32" y="237.82" width="2.16" height="269.63" transform="translate(677.64 1432.63) rotate(-89.18)"/><rect id="rect7500" class="cls-1" x="1062.55" y="362.58" width="2.16" height="269.63" transform="translate(551.14 1553.84) rotate(-89.18)"/><g id="g7516"><g id="g7518"><g id="g7520"><polygon id="polygon7522" points="917.82 338.38 1208.77 342.52 1209.42 296.53 950.22 292.84 918.12 317.61 918.12 317.61 917.82 338.38"/><g id="g7524"><polygon id="polygon7526" points="918.73 336.9 918.98 318.56 950.39 294.32 1208.52 298.01 1207.9 341.02 1207.9 341.02 918.73 336.9"/><polygon id="polygon7528" class="cls-8" points="971.35 294.62 1003.96 295.09 991.89 337.94 991.89 337.94 959.28 337.48 971.35 294.62"/><polygon id="polygon7530" class="cls-9" points="1038.36 295.58 1070.98 296.04 1058.89 338.9 1058.89 338.9 1026.29 338.43 1038.36 295.58"/><polygon id="polygon7532" class="cls-10" points="1105.36 296.53 1137.99 296.99 1125.91 339.85 1125.91 339.85 1093.29 339.39 1105.36 296.53"/><polygon id="polygon7534" class="cls-11" points="1172.37 297.49 1204.99 297.95 1192.92 340.8 1192.92 340.8 1160.29 340.34 1172.37 297.49"/></g></g><g id="g7536"><polygon id="polygon7538" points="916.26 247.41 1206.06 221.38 1210.18 267.18 951.99 290.39 918.11 268.1 918.11 268.1 916.26 247.41"/><g id="g7540"><polygon id="polygon7542" points="917.26 248.81 918.91 267.1 952.05 288.89 1209.16 265.78 1205.32 222.93 1205.32 222.93 917.26 248.81"/><polygon id="polygon7544" class="cls-12" points="972.92 287.02 1005.42 284.09 990.15 242.28 990.15 242.28 957.66 245.19 972.92 287.02"/><polygon id="polygon7546" class="cls-13" points="1039.67 281.02 1072.16 278.09 1056.9 236.27 1056.9 236.27 1024.4 239.2 1039.67 281.02"/><polygon id="polygon7548" class="cls-14" points="1106.41 275.01 1138.91 272.1 1123.64 230.27 1123.64 230.27 1091.15 233.2 1106.41 275.01"/><polygon id="polygon7550" class="cls-15" points="1173.16 269.02 1205.65 266.1 1190.38 224.28 1190.38 224.28 1157.89 227.19 1173.16 269.02"/></g></g></g><g id="g7552"><g id="g7554"><path id="path7565" class="cls-16" d="M1007.3,258.85c.07-4.76-4-8.71-9.11-8.78l-64.87-.93c-5.07-.07-9.29,3.76-9.35,8.52l-1,68c-.07,4.76,4,8.71,9.11,8.78l64.86.93c5.09.07,9.29-3.76,9.36-8.52Z"/></g><g id="g7567"><circle id="circle7569" class="cls-17" cx="941.55" cy="265.98" r="3.86"/><polygon id="polygon7571" points="940.33 264.82 941.96 264.34 943.18 265.5 942.79 267.15 941.16 267.63 941.16 267.63 939.93 266.46 940.33 264.82"/><path id="path7573" class="cls-18" d="M942.94,269.12a3,3,0,0,1-3-.34,4.38,4.38,0,0,0,3.28-.19c.92-.59.23-3.21.87-3.27,1.65-.15.76,3.08-1.2,3.8Z"/><path id="path7575" class="cls-1" d="M941.11,262.51c.22-.06,1,.65.63,1.12s-2.69.6-2.93,1S938.64,263.24,941.11,262.51Z"/></g><g id="g7577"><circle id="circle7579" class="cls-17" cx="944.72" cy="323.1" r="3.86"/><polygon id="polygon7581" points="943.87 321.63 945.57 321.63 946.42 323.09 945.6 324.55 943.9 324.57 943.9 324.57 943.03 323.12 943.87 321.63"/><path id="path7583" class="cls-18" d="M945.21,326.48a3,3,0,0,1-2.75-1.13,4.41,4.41,0,0,0,3.21.71c1-.32,1.1-3,1.73-2.91C949,323.46,947.3,326.33,945.21,326.48Z"/><path id="path7585" class="cls-1" d="M945.26,319.64c.23,0,.81.91.3,1.25s-2.75-.16-3.08.14S942.68,319.67,945.26,319.64Z"/></g><g id="g7587"><circle id="circle7589" class="cls-17" cx="992.46" cy="323.56" r="3.86"/><polygon id="polygon7591" points="991.58 322.1 993.28 322.09 994.16 323.55 993.32 325.02 991.62 325.04 991.62 325.04 990.76 323.58 991.58 322.1"/><path id="path7593" class="cls-18" d="M992.92,327a3,3,0,0,1-2.74-1.14,4.37,4.37,0,0,0,3.21.72c1-.32,1.1-3,1.74-2.91,1.62.31-.11,3.17-2.21,3.33Z"/><path id="path7595" class="cls-1" d="M993,320.11c.24,0,.82.91.31,1.25s-2.76-.16-3.09.14.21-1.36,2.78-1.39Z"/></g></g></g><rect id="rect3986" class="cls-1" x="1063.49" y="296.05" width="2.16" height="269.63" transform="translate(618.59 1489.2) rotate(-89.18)"/><path class="cls-1" d="M930.79,357.25h1.78v9.43h-1.78Zm.81,4.06h3a1.13,1.13,0,0,0,.56-.14,1,1,0,0,0,.38-.42,1.31,1.31,0,0,0,.14-.61,1.34,1.34,0,0,0-.14-.61,1,1,0,0,0-.37-.42,1.05,1.05,0,0,0-.57-.15h-3v-1.71h3a3.27,3.27,0,0,1,1.56.36,2.62,2.62,0,0,1,1,1,3.07,3.07,0,0,1,.37,1.51,3.11,3.11,0,0,1-.37,1.52,2.66,2.66,0,0,1-1,1,3.26,3.26,0,0,1-1.56.35h-3Z"/><path class="cls-1" d="M938.93,357.25h1.78v9.43h-1.78Zm.71,3.93h3.28a.87.87,0,0,0,.48-.14.89.89,0,0,0,.32-.39,1.34,1.34,0,0,0,.12-.58,1.55,1.55,0,0,0-.11-.59,1,1,0,0,0-.32-.39.9.9,0,0,0-.49-.13h-3.28v-1.71h3.42a2.56,2.56,0,0,1,1.37.35,2.3,2.3,0,0,1,.91,1,3.48,3.48,0,0,1,0,3,2.42,2.42,0,0,1-.91,1,2.68,2.68,0,0,1-1.37.35h-3.42Zm2,1.42,1.9-.3,2.54,4.38h-2.15Z"/><path class="cls-1" d="M948.77,366.35a3.09,3.09,0,0,1-1.21-1.22,3.86,3.86,0,0,1-.43-1.83v-2.67a3.79,3.79,0,0,1,.43-1.82,3,3,0,0,1,1.21-1.22,4,4,0,0,1,3.61,0,2.91,2.91,0,0,1,1.21,1.22,3.68,3.68,0,0,1,.43,1.82v2.67a3.75,3.75,0,0,1-.43,1.83,3,3,0,0,1-1.21,1.22,4,4,0,0,1-3.61,0Zm2.65-1.55a1.42,1.42,0,0,0,.56-.58,1.86,1.86,0,0,0,.2-.87v-2.76a1.86,1.86,0,0,0-.2-.87,1.36,1.36,0,0,0-.56-.58,1.64,1.64,0,0,0-.84-.21,1.7,1.7,0,0,0-.85.21,1.42,1.42,0,0,0-.56.58,1.86,1.86,0,0,0-.19.87v2.76a1.86,1.86,0,0,0,.19.87,1.49,1.49,0,0,0,.56.58,1.81,1.81,0,0,0,.85.2A1.74,1.74,0,0,0,951.42,364.8Z"/><path class="cls-1" d="M955.77,357.25h1.78v9.43h-1.78Zm.9,7.72h2.26a2,2,0,0,0,1.35-.42,1.51,1.51,0,0,0,.48-1.2v-2.77a1.5,1.5,0,0,0-.48-1.19,2,2,0,0,0-1.35-.43h-2.26v-1.71h2.22a4.53,4.53,0,0,1,2,.4,2.79,2.79,0,0,1,1.27,1.15,3.64,3.64,0,0,1,.43,1.83v2.67a3.63,3.63,0,0,1-.41,1.78,2.83,2.83,0,0,1-1.26,1.18,4.54,4.54,0,0,1-2,.42h-2.21Z"/><path class="cls-1" d="M965.67,366.37a2.82,2.82,0,0,1-1.17-1.2,4.13,4.13,0,0,1-.4-1.9v-6h1.77v6.07a1.7,1.7,0,0,0,.44,1.25,1.61,1.61,0,0,0,1.22.45,1.66,1.66,0,0,0,1.24-.45,1.7,1.7,0,0,0,.43-1.25v-6.07H971v6a4.13,4.13,0,0,1-.4,1.9,2.85,2.85,0,0,1-1.18,1.2,4.45,4.45,0,0,1-3.73,0Z"/><path class="cls-1" d="M974.81,366.78l-.77-.41a2.74,2.74,0,0,1-1.16-1.2,4.14,4.14,0,0,1-.41-1.91v-2.58a4.14,4.14,0,0,1,.41-1.91,2.74,2.74,0,0,1,1.16-1.2,3.79,3.79,0,0,1,1.84-.41,3.17,3.17,0,0,1,1.59.38,3.08,3.08,0,0,1,1.16,1.11,4.76,4.76,0,0,1,.63,1.76h-1.84a2.53,2.53,0,0,0-.32-.8,1.48,1.48,0,0,0-.53-.5,1.31,1.31,0,0,0-.69-.18,1.65,1.65,0,0,0-.85.21,1.27,1.27,0,0,0-.53.59,2.3,2.3,0,0,0-.19.95v2.58a2.22,2.22,0,0,0,.19.94,1.35,1.35,0,0,0,.53.6,1.75,1.75,0,0,0,.85.2,1.45,1.45,0,0,0,.7-.17,1.49,1.49,0,0,0,.53-.5,2.28,2.28,0,0,0,.31-.81h1.84a4.7,4.7,0,0,1-.64,1.76,3.16,3.16,0,0,1-1.15,1.12,3.31,3.31,0,0,1-1.59.38Z"/><path class="cls-1" d="M979.59,357.25h6.91V359h-6.91Zm2.56.77h1.78v8.66h-1.78Z"/><path class="cls-1" d="M989.25,366.68h-1.84v-9.43h1.84Z"/><path class="cls-1" d="M992.64,366.35a3,3,0,0,1-1.21-1.22,3.75,3.75,0,0,1-.43-1.83v-2.67a3.68,3.68,0,0,1,.43-1.82,2.85,2.85,0,0,1,1.21-1.22,3.63,3.63,0,0,1,1.8-.43,3.67,3.67,0,0,1,1.81.43,3,3,0,0,1,1.21,1.22,3.79,3.79,0,0,1,.42,1.82v2.67a3.86,3.86,0,0,1-.42,1.83,3.09,3.09,0,0,1-1.21,1.22,3.78,3.78,0,0,1-1.81.43A3.74,3.74,0,0,1,992.64,366.35Zm2.64-1.55a1.36,1.36,0,0,0,.56-.58,1.75,1.75,0,0,0,.2-.87v-2.76a1.75,1.75,0,0,0-.2-.87,1.31,1.31,0,0,0-.56-.58,1.78,1.78,0,0,0-1.68,0,1.36,1.36,0,0,0-.56.58,1.75,1.75,0,0,0-.2.87v2.76a1.75,1.75,0,0,0,.2.87,1.42,1.42,0,0,0,.56.58,1.86,1.86,0,0,0,1.68,0Z"/><path class="cls-1" d="M999.63,357.25h2.18l3.5,7.23-.15.16v-7.39h1.7v9.42h-2.19l-3.49-7.11.15-.17v7.28h-1.7Z"/><path class="cls-1" d="M1021.82,357.25h1.83l2,6.29,2-6.29h1.83l-3.14,9.43H1025Z"/><path class="cls-1" d="M1030.36,357.25h1.78V359h-1.78Zm0,2.7h1.78v6.73h-1.78Z"/><path class="cls-1" d="M1035.77,366.78l-.58-.11a5.29,5.29,0,0,1-1.07-.31,4.39,4.39,0,0,1-.88-.5l1.1-1.37a4,4,0,0,0,1,.48,3.39,3.39,0,0,0,1,.17,2.71,2.71,0,0,0,1-.14c.23-.09.35-.22.35-.39a.41.41,0,0,0-.15-.34,1,1,0,0,0-.38-.17,5.94,5.94,0,0,0-.66-.08l-.24,0-.24,0h-.11a6.59,6.59,0,0,1-1.21-.24,1.51,1.51,0,0,1-.76-.55,1.87,1.87,0,0,1-.32-1.17,1.92,1.92,0,0,1,1.27-1.89,4.07,4.07,0,0,1,1.49-.25,5.05,5.05,0,0,1,1,.11,5.2,5.2,0,0,1,1,.3,4.24,4.24,0,0,1,.87.46l-1.06,1.29a4.35,4.35,0,0,0-.92-.38,3.43,3.43,0,0,0-.92-.14,2.11,2.11,0,0,0-.84.13c-.2.08-.3.19-.3.34a.3.3,0,0,0,.16.26,1.11,1.11,0,0,0,.4.14l.69.09.12,0h.23a7.54,7.54,0,0,1,1.28.24,1.59,1.59,0,0,1,.84.57,1.94,1.94,0,0,1,.34,1.25,2.11,2.11,0,0,1-.33,1.2,2.15,2.15,0,0,1-1,.77,4.24,4.24,0,0,1-1.56.26Z"/><path class="cls-1" d="M1042.46,364a1,1,0,0,0,.27.76,1.07,1.07,0,0,0,.78.27,1,1,0,0,0,.76-.28,1.08,1.08,0,0,0,.27-.79l.1,1.47a2.14,2.14,0,0,1-.63.93,1.59,1.59,0,0,1-1.07.38,2,2,0,0,1-1.67-.7,3,3,0,0,1-.59-2V360h1.78Zm2.08-4.09h1.77v6.73h-1.77Z"/><path class="cls-1" d="M1048.27,366.26a2.09,2.09,0,0,1-.53-1.56,1.83,1.83,0,0,1,.6-1.5,2.78,2.78,0,0,1,1.8-.5h1.68l.1,1.35h-1.77a1,1,0,0,0-.61.16.6.6,0,0,0-.2.49.56.56,0,0,0,.25.49,1.56,1.56,0,0,0,.77.15,2.58,2.58,0,0,0,1.06-.16.52.52,0,0,0,.35-.5l.13,1a.87.87,0,0,1-.33.61,1.85,1.85,0,0,1-.74.38,3.24,3.24,0,0,1-.94.13A2.24,2.24,0,0,1,1048.27,366.26Zm3.5-3.85a.9.9,0,0,0-.31-.72,1.45,1.45,0,0,0-.89-.25,2.34,2.34,0,0,0-.74.12,2.31,2.31,0,0,0-.66.35l-1.1-1.08a2.63,2.63,0,0,1,1.06-.72,4.09,4.09,0,0,1,1.47-.26,3.4,3.4,0,0,1,1.5.3,2,2,0,0,1,1,.85,2.66,2.66,0,0,1,.33,1.36v4.32h-1.61Z"/><path class="cls-1" d="M1056.91,364.46a.48.48,0,0,0,.14.38.58.58,0,0,0,.4.13h.29v1.71h-.9a1.64,1.64,0,0,1-1.26-.47,1.81,1.81,0,0,1-.45-1.31v-7.65h1.78Z"/><path class="cls-1" d="M1058.88,357.25h1.78V359h-1.78Zm0,2.7h1.78v6.73h-1.78Z"/><path class="cls-1" d="M1067.21,361.46l-3,3.61h3.16v1.61h-5.28v-1.53l3.07-3.59h-3V360h5Z"/><path class="cls-1" d="M1069.09,366.26a2.05,2.05,0,0,1-.54-1.56,1.83,1.83,0,0,1,.6-1.5,2.78,2.78,0,0,1,1.8-.5h1.69l.09,1.35H1071a1,1,0,0,0-.6.16.58.58,0,0,0-.2.49.54.54,0,0,0,.25.49,1.52,1.52,0,0,0,.76.15,2.58,2.58,0,0,0,1.06-.16.52.52,0,0,0,.35-.5l.14,1a.92.92,0,0,1-.34.61,1.79,1.79,0,0,1-.74.38,3.17,3.17,0,0,1-.93.13A2.21,2.21,0,0,1,1069.09,366.26Zm3.49-3.85a.87.87,0,0,0-.31-.72,1.42,1.42,0,0,0-.88-.25,2.45,2.45,0,0,0-.75.12,2.39,2.39,0,0,0-.65.35l-1.11-1.08a2.66,2.66,0,0,1,1.07-.72,4,4,0,0,1,1.46-.26,3.48,3.48,0,0,1,1.51.3,2.13,2.13,0,0,1,.95.85,2.66,2.66,0,0,1,.32,1.36v4.32h-1.61Z"/><path class="cls-1" d="M1075.43,360h3.29v1.52h-3.29Zm1.1,6.31a1.92,1.92,0,0,1-.41-1.33V358h1.78v6.5a.69.69,0,0,0,.09.38.34.34,0,0,0,.29.13h.44v1.71h-.89A1.69,1.69,0,0,1,1076.53,366.26Z"/><path class="cls-1" d="M1080.18,357.25H1082V359h-1.78Zm0,2.7H1082v6.73h-1.78Z"/><path class="cls-1" d="M1084.75,366.43a2.18,2.18,0,0,1-1-1,3.35,3.35,0,0,1-.35-1.58v-1.1a3.27,3.27,0,0,1,.35-1.56,2.23,2.23,0,0,1,1-1,3.79,3.79,0,0,1,3.14,0,2.23,2.23,0,0,1,1,1,3.27,3.27,0,0,1,.34,1.56v1.12a3.31,3.31,0,0,1-.34,1.57,2.21,2.21,0,0,1-1,1,3.7,3.7,0,0,1-3.14,0Zm2.4-1.68a1.22,1.22,0,0,0,.3-.88v-1.12a1.19,1.19,0,0,0-.3-.87,1.11,1.11,0,0,0-.84-.32,1.06,1.06,0,0,0-.82.32,1.19,1.19,0,0,0-.3.87v1.12a1.26,1.26,0,0,0,.29.88,1.08,1.08,0,0,0,.83.32A1.11,1.11,0,0,0,1087.15,364.75Z"/><path class="cls-1" d="M1090.85,360h1.77v6.73h-1.77Zm3.89,2.65a1,1,0,0,0-.29-.76,1.09,1.09,0,0,0-.8-.28,1,1,0,0,0-.76.28,1.06,1.06,0,0,0-.27.78l-.13-1.5a2.43,2.43,0,0,1,.73-.95,1.71,1.71,0,0,1,1.06-.32,2,2,0,0,1,1.65.72,3.13,3.13,0,0,1,.58,2v4.08h-1.77Z"/><path class="cls-1" d="M1104.66,357.25h1.13l3.6,9.43h-1.91l-2.26-6.44-2.26,6.44h-1.91Zm-1.88,6.21h5v1.71h-5Z"/><path class="cls-1" d="M1112.4,366.78l-.57-.11a5.11,5.11,0,0,1-1.07-.31,4.13,4.13,0,0,1-.88-.5l1.09-1.37a4.3,4.3,0,0,0,1,.48,3.45,3.45,0,0,0,1,.17,2.73,2.73,0,0,0,1-.14c.23-.09.34-.22.34-.39a.41.41,0,0,0-.15-.34,1,1,0,0,0-.38-.17,5.71,5.71,0,0,0-.65-.08l-.24,0-.24,0h-.12a6.29,6.29,0,0,1-1.2-.24,1.54,1.54,0,0,1-.77-.55,1.87,1.87,0,0,1-.31-1.17,2,2,0,0,1,.32-1.16,2.05,2.05,0,0,1,.94-.73,4.11,4.11,0,0,1,1.49-.25,5.05,5.05,0,0,1,1,.11,5.3,5.3,0,0,1,1,.3,4.16,4.16,0,0,1,.86.46L1114.8,362a4.35,4.35,0,0,0-.92-.38,3.37,3.37,0,0,0-.92-.14,2.06,2.06,0,0,0-.83.13c-.2.08-.3.19-.3.34a.28.28,0,0,0,.16.26,1.06,1.06,0,0,0,.39.14l.69.09.12,0h.23a7.35,7.35,0,0,1,1.28.24,1.59,1.59,0,0,1,.84.57,1.94,1.94,0,0,1,.35,1.25,2.12,2.12,0,0,1-.34,1.2,2.05,2.05,0,0,1-1,.77,4.24,4.24,0,0,1-1.56.26Z"/><path class="cls-1" d="M1119.28,366.78l-.57-.11a5.29,5.29,0,0,1-1.07-.31,4.39,4.39,0,0,1-.88-.5l1.1-1.37a4,4,0,0,0,1,.48,3.39,3.39,0,0,0,1,.17,2.71,2.71,0,0,0,1-.14c.23-.09.35-.22.35-.39a.41.41,0,0,0-.15-.34,1,1,0,0,0-.38-.17,5.94,5.94,0,0,0-.66-.08l-.24,0-.24,0h-.11a6.59,6.59,0,0,1-1.21-.24,1.51,1.51,0,0,1-.76-.55,1.87,1.87,0,0,1-.32-1.17,1.92,1.92,0,0,1,1.27-1.89,4.07,4.07,0,0,1,1.49-.25,5.05,5.05,0,0,1,1,.11,5.2,5.2,0,0,1,1,.3,4.24,4.24,0,0,1,.87.46l-1.06,1.29a4.35,4.35,0,0,0-.92-.38,3.43,3.43,0,0,0-.92-.14,2.11,2.11,0,0,0-.84.13c-.2.08-.3.19-.3.34a.3.3,0,0,0,.16.26,1.11,1.11,0,0,0,.4.14l.69.09.12,0h.23a7.54,7.54,0,0,1,1.28.24,1.67,1.67,0,0,1,.84.57,1.94,1.94,0,0,1,.34,1.25,2.11,2.11,0,0,1-.33,1.2,2.15,2.15,0,0,1-1,.77,4.24,4.24,0,0,1-1.56.26Z"/><path class="cls-1" d="M1124.1,357.25h1.78V359h-1.78Zm0,2.7h1.78v6.73h-1.78Z"/><path class="cls-1" d="M1128.38,366.43a2.12,2.12,0,0,1-.78-1,4.3,4.3,0,0,1-.26-1.57v-1.08a4.41,4.41,0,0,1,.26-1.59,2.05,2.05,0,0,1,2-1.35,1.64,1.64,0,0,1,1,.32,2.25,2.25,0,0,1,.72.92l-.14,1.49a1.48,1.48,0,0,0-.11-.59.85.85,0,0,0-.34-.36,1,1,0,0,0-.55-.13.92.92,0,0,0-.77.34,1.52,1.52,0,0,0-.28,1v1.07a1.43,1.43,0,0,0,.28.93.94.94,0,0,0,.77.33,1.15,1.15,0,0,0,.55-.12.85.85,0,0,0,.34-.36,1.33,1.33,0,0,0,.11-.56l.09,1.53a1.66,1.66,0,0,1-1.65,1.16A2.14,2.14,0,0,1,1128.38,366.43Zm.73,3-.63-.29a2.21,2.21,0,0,1-1-.79l1.19-1.09a1.49,1.49,0,0,0,.55.37,1.66,1.66,0,0,0,.66.14,1.32,1.32,0,0,0,.91-.31,1,1,0,0,0,.35-.84V360h1.78v6.53a3.39,3.39,0,0,1-.35,1.59,2.37,2.37,0,0,1-1,1,3.61,3.61,0,0,1-1.64.35Z"/><path class="cls-1" d="M1134.69,360h1.78v6.73h-1.78Zm3.89,2.65a1,1,0,0,0-.28-.76,1.13,1.13,0,0,0-.8-.28,1,1,0,0,0-.76.28,1.06,1.06,0,0,0-.27.78l-.14-1.5a2.52,2.52,0,0,1,.73-.95,1.74,1.74,0,0,1,1.07-.32,2,2,0,0,1,1.64.72,3.13,3.13,0,0,1,.59,2v4.08h-1.78Z"/><path class="cls-1" d="M1142.11,360h1.78v6.73h-1.78Zm3.92,2.85a1.31,1.31,0,0,0-.29-.91,1.19,1.19,0,0,0-1.59-.05,1.1,1.1,0,0,0-.26.78l-.14-1.5a2.48,2.48,0,0,1,.74-.94,1.73,1.73,0,0,1,1-.33,2,2,0,0,1,2,1.35,4.2,4.2,0,0,1,.27,1.59v3.89H1146Zm3.92,0a1.31,1.31,0,0,0-.28-.91,1,1,0,0,0-.8-.33,1,1,0,0,0-.79.31,1.3,1.3,0,0,0-.27.88l-.33-1.56a2.46,2.46,0,0,1,.82-1,2,2,0,0,1,1.14-.35,2.2,2.2,0,0,1,1.24.35,2.14,2.14,0,0,1,.78,1,4.2,4.2,0,0,1,.27,1.59v3.89H1150Z"/><path class="cls-1" d="M1155.39,366.78l-.69-.36a2.33,2.33,0,0,1-1-1,3.41,3.41,0,0,1-.36-1.63V363a3.85,3.85,0,0,1,.34-1.7,2.42,2.42,0,0,1,1-1.08,3.29,3.29,0,0,1,1.6-.37,2.59,2.59,0,0,1,1.51.44,2.76,2.76,0,0,1,1,1.28,5.58,5.58,0,0,1,.32,2V364h-4.6v-1.2h3l0-.15a1.55,1.55,0,0,0-.36-.9,1,1,0,0,0-.79-.32,1.28,1.28,0,0,0-1,.38,1.58,1.58,0,0,0-.35,1.08v.86a1.4,1.4,0,0,0,.39,1.06,1.46,1.46,0,0,0,1.08.38,2.21,2.21,0,0,0,1.34-.49l1.16,1a4,4,0,0,1-1.18.75,3.65,3.65,0,0,1-1.32.26Z"/><path class="cls-1" d="M1160.6,360h1.78v6.73h-1.78Zm3.89,2.65a1,1,0,0,0-.28-.76,1.13,1.13,0,0,0-.8-.28,1,1,0,0,0-.76.28,1.06,1.06,0,0,0-.27.78l-.14-1.5a2.52,2.52,0,0,1,.73-.95,1.74,1.74,0,0,1,1.07-.32,2,2,0,0,1,1.64.72,3.13,3.13,0,0,1,.59,2v4.08h-1.78Z"/><path class="cls-1" d="M1167.5,360h3.29v1.52h-3.29Zm1.1,6.31a1.92,1.92,0,0,1-.41-1.33V358H1170v6.5a.61.61,0,0,0,.1.38.32.32,0,0,0,.28.13h.44v1.71h-.89A1.69,1.69,0,0,1,1168.6,366.26Z"/><path class="cls-1" d="M932.93,426.15l-.76-.41a2.72,2.72,0,0,1-1.17-1.2,4.1,4.1,0,0,1-.4-1.9v-2.59a4.1,4.1,0,0,1,.4-1.9,2.79,2.79,0,0,1,1.17-1.21,3.88,3.88,0,0,1,1.84-.41,3.34,3.34,0,0,1,1.59.38,3.24,3.24,0,0,1,1.16,1.11,5,5,0,0,1,.63,1.77h-1.84a2.43,2.43,0,0,0-.32-.8,1.61,1.61,0,0,0-.53-.51,1.41,1.41,0,0,0-.69-.17,1.65,1.65,0,0,0-.85.2,1.35,1.35,0,0,0-.53.6,2.07,2.07,0,0,0-.19.94v2.59a2.07,2.07,0,0,0,.19.94,1.27,1.27,0,0,0,.53.59,1.65,1.65,0,0,0,.85.21,1.38,1.38,0,0,0,.7-.18,1.48,1.48,0,0,0,.53-.5,2.52,2.52,0,0,0,.31-.8h1.84a4.84,4.84,0,0,1-.64,1.76,3.21,3.21,0,0,1-1.15,1.11,3.34,3.34,0,0,1-1.59.38Z"/><path class="cls-1" d="M941.32,416.63h1.13l3.6,9.42h-1.91l-2.26-6.43-2.25,6.43h-1.92Zm-1.88,6.2h5v1.71h-5Z"/><path class="cls-1" d="M949,426.15l-.65-.13a6.6,6.6,0,0,1-1.21-.4,4.46,4.46,0,0,1-1-.64l.82-1.46a3.84,3.84,0,0,0,1.26.69,4.51,4.51,0,0,0,1.46.24,2.65,2.65,0,0,0,1.35-.29.94.94,0,0,0,.48-.83h0a.84.84,0,0,0-.21-.6,1.4,1.4,0,0,0-.56-.32,7.19,7.19,0,0,0-.88-.19h-.07l-.15,0a8.82,8.82,0,0,1-1.57-.38,2.27,2.27,0,0,1-1-.78,2.53,2.53,0,0,1-.44-1.59h0a2.88,2.88,0,0,1,.41-1.56,2.6,2.6,0,0,1,1.19-1,5,5,0,0,1,2.91-.22,5.7,5.7,0,0,1,1,.33,6.52,6.52,0,0,1,1,.54l-.76,1.5a4.49,4.49,0,0,0-1.13-.58,3.45,3.45,0,0,0-1.14-.21,2.47,2.47,0,0,0-1.27.27.85.85,0,0,0-.44.75h0a.84.84,0,0,0,.23.64,1.37,1.37,0,0,0,.58.35,9.45,9.45,0,0,0,1,.24h.18l.08,0a8,8,0,0,1,1.49.42,2.37,2.37,0,0,1,1,.81,2.49,2.49,0,0,1,.4,1.51h0a2.79,2.79,0,0,1-.42,1.55,2.63,2.63,0,0,1-1.23,1,4.88,4.88,0,0,1-1.94.34Z"/><path class="cls-1" d="M953.58,416.63h6.91v1.71h-6.91Zm2.57.77h1.77v8.65h-1.77Z"/><path class="cls-1" d="M1022.8,416.63h1.77v9.42h-1.77Zm.81,4.06h3a1,1,0,0,0,.56-.15.94.94,0,0,0,.38-.41,1.34,1.34,0,0,0,.14-.61,1.52,1.52,0,0,0-.13-.62,1,1,0,0,0-.38-.42,1.15,1.15,0,0,0-.57-.14h-3v-1.71h3a3.25,3.25,0,0,1,1.55.36,2.59,2.59,0,0,1,1,1,3,3,0,0,1,.37,1.52,3,3,0,0,1-.37,1.51,2.53,2.53,0,0,1-1,1,3.25,3.25,0,0,1-1.55.36h-3Z"/><path class="cls-1" d="M1032.26,426.15l-.69-.35a2.43,2.43,0,0,1-1-1,3.44,3.44,0,0,1-.37-1.63v-.76a3.86,3.86,0,0,1,.35-1.71,2.38,2.38,0,0,1,1-1.07,3.25,3.25,0,0,1,1.61-.37,2.52,2.52,0,0,1,1.51.44,2.71,2.71,0,0,1,1,1.28,5.75,5.75,0,0,1,.32,2v.45h-4.6v-1.2h3l0-.16a1.55,1.55,0,0,0-.36-.9,1,1,0,0,0-.79-.32,1.32,1.32,0,0,0-1,.38,1.59,1.59,0,0,0-.35,1.09v.85a1.42,1.42,0,0,0,.39,1.07,1.45,1.45,0,0,0,1.07.37,2.16,2.16,0,0,0,.71-.12,2.35,2.35,0,0,0,.64-.36l1.16,1a4,4,0,0,1-1.18.74,3.66,3.66,0,0,1-1.33.26Z"/><path class="cls-1" d="M1038.31,425.81a2.19,2.19,0,0,1-.77-1,4.09,4.09,0,0,1-.27-1.57v-1.08a4.18,4.18,0,0,1,.27-1.58,2.17,2.17,0,0,1,.77-1,2.14,2.14,0,0,1,1.23-.34,1.6,1.6,0,0,1,1,.32,2.3,2.3,0,0,1,.72.91l-.14,1.49a1.28,1.28,0,0,0-.12-.58.87.87,0,0,0-.34-.37,1.13,1.13,0,0,0-.54-.13,1,1,0,0,0-.77.34,1.46,1.46,0,0,0-.28,1v1.07a1.38,1.38,0,0,0,.28.93,1,1,0,0,0,.77.34,1.13,1.13,0,0,0,.54-.13.82.82,0,0,0,.34-.35,1.26,1.26,0,0,0,.12-.57l.09,1.54a1.78,1.78,0,0,1-.63.85,1.75,1.75,0,0,1-1,.3A2.14,2.14,0,0,1,1038.31,425.81Zm2.79-9.18h1.78v9.42h-1.78Z"/><path class="cls-1" d="M1044.63,419.32h1.9v6.73h-1.9Zm3.47,1.68a1.46,1.46,0,0,0-.44-.06,1,1,0,0,0-.83.35,1.42,1.42,0,0,0-.3,1l-.13-1.75a2.32,2.32,0,0,1,.72-.94,1.61,1.61,0,0,1,1-.33,2.06,2.06,0,0,1,.76.13,1.79,1.79,0,0,1,.59.39l-1,1.45A.83.83,0,0,0,1048.1,421Z"/><path class="cls-1" d="M1051.3,425.81a2.33,2.33,0,0,1-1-1,3.39,3.39,0,0,1-.34-1.59v-1.09a3.31,3.31,0,0,1,.34-1.57,2.36,2.36,0,0,1,1-1,3.82,3.82,0,0,1,3.15,0,2.36,2.36,0,0,1,1,1,3.31,3.31,0,0,1,.34,1.57v1.11a3.31,3.31,0,0,1-.34,1.57,2.33,2.33,0,0,1-1,1,3.82,3.82,0,0,1-3.15,0Zm2.41-1.68a1.29,1.29,0,0,0,.29-.89v-1.11a1.26,1.26,0,0,0-.29-.88,1.1,1.1,0,0,0-.84-.31,1.08,1.08,0,0,0-.83.31,1.26,1.26,0,0,0-.29.88v1.11a1.24,1.24,0,0,0,.29.89,1.06,1.06,0,0,0,.83.31A1.1,1.1,0,0,0,1053.71,424.13Z"/><path class="cls-1" d="M1063.39,426.15l-.65-.13a6.6,6.6,0,0,1-1.21-.4,4.76,4.76,0,0,1-1-.64l.83-1.46a3.84,3.84,0,0,0,1.26.69,4.51,4.51,0,0,0,1.46.24,2.65,2.65,0,0,0,1.35-.29.94.94,0,0,0,.48-.83h0a.84.84,0,0,0-.21-.6,1.4,1.4,0,0,0-.56-.32,7.63,7.63,0,0,0-.88-.19h-.08l-.14,0a8.82,8.82,0,0,1-1.57-.38,2.27,2.27,0,0,1-1-.78,2.53,2.53,0,0,1-.44-1.59h0a2.88,2.88,0,0,1,.41-1.56,2.6,2.6,0,0,1,1.19-1,4.58,4.58,0,0,1,1.88-.34,4.66,4.66,0,0,1,1,.12,5.7,5.7,0,0,1,1,.33,6,6,0,0,1,1,.54l-.75,1.5a4.38,4.38,0,0,0-1.14-.58,3.35,3.35,0,0,0-1.13-.21,2.47,2.47,0,0,0-1.27.27.83.83,0,0,0-.44.75h0a.84.84,0,0,0,.23.64,1.31,1.31,0,0,0,.58.35,8.8,8.8,0,0,0,1,.24h.18l.07,0a7.88,7.88,0,0,1,1.5.42,2.37,2.37,0,0,1,1,.81,2.49,2.49,0,0,1,.4,1.51h0a2.79,2.79,0,0,1-.42,1.55,2.63,2.63,0,0,1-1.23,1,4.92,4.92,0,0,1-1.94.34Z"/><path class="cls-1" d="M1069.05,416.63h1.77v1.77h-1.77Zm0,2.69h1.77v6.73h-1.77Z"/><path class="cls-1" d="M1074.25,423.83a.51.51,0,0,0,.14.38.57.57,0,0,0,.4.13h.3v1.71h-.91a1.67,1.67,0,0,1-1.26-.46,1.86,1.86,0,0,1-.44-1.32v-7.64h1.77Z"/><path class="cls-1" d="M1080.15,419.32h1.77l-2.52,6.73h-1.26l-2.53-6.73h1.77l1.39,4.23Z"/><path class="cls-1" d="M1083.17,425.64a2.09,2.09,0,0,1-.53-1.57,1.86,1.86,0,0,1,.6-1.5,2.78,2.78,0,0,1,1.8-.5h1.68l.09,1.36H1085a.92.92,0,0,0-.6.16.57.57,0,0,0-.2.48.54.54,0,0,0,.25.49,1.43,1.43,0,0,0,.77.16,2.61,2.61,0,0,0,1.06-.16.53.53,0,0,0,.34-.51l.14,1a1,1,0,0,1-.33.62,2.25,2.25,0,0,1-.74.38,3.61,3.61,0,0,1-.94.12A2.28,2.28,0,0,1,1083.17,425.64Zm3.49-3.85a.87.87,0,0,0-.31-.72,1.34,1.34,0,0,0-.88-.25,2.45,2.45,0,0,0-.75.12,2.36,2.36,0,0,0-.65.34l-1.1-1.08a2.63,2.63,0,0,1,1.06-.72,4,4,0,0,1,1.47-.25,3.58,3.58,0,0,1,1.5.29,2.09,2.09,0,0,1,1,.86,2.6,2.6,0,0,1,.33,1.35v4.32h-1.62Z"/><path class="cls-1" d="M1095.45,422.31a1.62,1.62,0,0,0-.38,1.14,1,1,0,0,0,.41.83,2.09,2.09,0,0,0,2.34-.12,2.53,2.53,0,0,0,.77-1.2,5.47,5.47,0,0,0,.27-1.81h1.71a6.6,6.6,0,0,1-.49,2.67,3.76,3.76,0,0,1-1.45,1.73,4.22,4.22,0,0,1-2.31.6,3.48,3.48,0,0,1-1.58-.32,2.29,2.29,0,0,1-1-.92,3,3,0,0,1-.34-1.46,2.53,2.53,0,0,1,.67-1.85,2.89,2.89,0,0,1,1.89-.8l.55,1.11A1.39,1.39,0,0,0,1095.45,422.31Zm.3,0a6.33,6.33,0,0,1-.79-1,4.49,4.49,0,0,1-.48-1.05,3.77,3.77,0,0,1-.16-1.11,2.52,2.52,0,0,1,.7-1.91,2.68,2.68,0,0,1,2-.68,2.75,2.75,0,0,1,2,.65,2.39,2.39,0,0,1,.69,1.85v.25h-1.77v-.25a1.52,1.52,0,0,0-.23-.89.74.74,0,0,0-.64-.32.9.9,0,0,0-.75.34,1.59,1.59,0,0,0-.26,1,2,2,0,0,0,.17.77,4.26,4.26,0,0,0,.49.9,8.91,8.91,0,0,0,.76,1l3.89,4.27h-2Z"/><path class="cls-1" d="M1106,425.81a2.57,2.57,0,0,1-1.06-.95l1.46-1.06a1.46,1.46,0,0,0,.56.46,1.49,1.49,0,0,0,.68.17.93.93,0,0,0,.79-.36,1.61,1.61,0,0,0,.28-1v-6.42h1.84v6.43a3.58,3.58,0,0,1-.35,1.67,2.45,2.45,0,0,1-1,1.06,3.41,3.41,0,0,1-1.63.36A3.35,3.35,0,0,1,1106,425.81Z"/><path class="cls-1" d="M1113.67,425.81a2.3,2.3,0,0,1-1-1,3.52,3.52,0,0,1-.34-1.59v-1.09a3.43,3.43,0,0,1,.34-1.57,2.33,2.33,0,0,1,1-1,3.79,3.79,0,0,1,3.14,0,2.26,2.26,0,0,1,1,1,3.31,3.31,0,0,1,.34,1.57v1.11a3.31,3.31,0,0,1-.34,1.57,2.23,2.23,0,0,1-1,1,3.79,3.79,0,0,1-3.14,0Zm2.4-1.68a1.24,1.24,0,0,0,.3-.89v-1.11a1.22,1.22,0,0,0-.3-.88,1.1,1.1,0,0,0-.84-.31,1.06,1.06,0,0,0-.82.31,1.22,1.22,0,0,0-.3.88v1.11a1.29,1.29,0,0,0,.29.89,1.08,1.08,0,0,0,.83.31A1.1,1.1,0,0,0,1116.07,424.13Z"/><path class="cls-1" d="M1120,425.64a2.09,2.09,0,0,1-.54-1.57,1.86,1.86,0,0,1,.6-1.5,2.78,2.78,0,0,1,1.8-.5h1.68l.1,1.36h-1.77a1,1,0,0,0-.61.16.57.57,0,0,0-.2.48.56.56,0,0,0,.25.49,1.45,1.45,0,0,0,.77.16,2.58,2.58,0,0,0,1.06-.16.54.54,0,0,0,.35-.51l.13,1a.89.89,0,0,1-.33.62,2.15,2.15,0,0,1-.74.38,3.61,3.61,0,0,1-.94.12A2.24,2.24,0,0,1,1120,425.64Zm3.49-3.85a.9.9,0,0,0-.31-.72,1.39,1.39,0,0,0-.89-.25,2.34,2.34,0,0,0-.74.12,2.29,2.29,0,0,0-.66.34l-1.1-1.08a2.63,2.63,0,0,1,1.06-.72,4.09,4.09,0,0,1,1.47-.25,3.55,3.55,0,0,1,1.5.29,2,2,0,0,1,1,.86,2.6,2.6,0,0,1,.33,1.35v4.32h-1.61Zm-.49-3.52a1.66,1.66,0,0,1-.41-.19l-.09-.06-.06,0-.06,0a2,2,0,0,0-.36-.18.76.76,0,0,0-.28,0,.33.33,0,0,0-.39.39v.2H1120v-.23a2.76,2.76,0,0,1,.33-1.53,1.17,1.17,0,0,1,1.06-.47,1.36,1.36,0,0,1,.38.06,2.23,2.23,0,0,1,.46.21l.07,0,.14.07a1.86,1.86,0,0,0,.36.17.56.56,0,0,0,.22.06.38.38,0,0,0,.3-.11.5.5,0,0,0,.09-.33v-.19h1.35v.22a2.85,2.85,0,0,1-.33,1.56,1.19,1.19,0,0,1-1.05.49A1.31,1.31,0,0,1,1123,418.27Z"/><path class="cls-1" d="M1128,425.81a2.28,2.28,0,0,1-1-1,3.39,3.39,0,0,1-.34-1.59v-1.09a3.31,3.31,0,0,1,.34-1.57,2.31,2.31,0,0,1,1-1,3.79,3.79,0,0,1,3.14,0,2.33,2.33,0,0,1,1,1,3.43,3.43,0,0,1,.34,1.57v1.11a3.43,3.43,0,0,1-.34,1.57,2.3,2.3,0,0,1-1,1,3.79,3.79,0,0,1-3.14,0Zm2.4-1.68a1.24,1.24,0,0,0,.3-.89v-1.11a1.22,1.22,0,0,0-.3-.88,1.27,1.27,0,0,0-1.66,0,1.22,1.22,0,0,0-.3.88v1.11a1.24,1.24,0,0,0,.3.89,1.06,1.06,0,0,0,.83.31A1.08,1.08,0,0,0,1130.37,424.13Z"/><path class="cls-1" d="M1140.05,426.15l-.64-.13a6.36,6.36,0,0,1-1.21-.4,4.76,4.76,0,0,1-1-.64l.82-1.46a4.06,4.06,0,0,0,1.26.69,4.62,4.62,0,0,0,1.47.24,2.65,2.65,0,0,0,1.35-.29.94.94,0,0,0,.48-.83h0a.85.85,0,0,0-.22-.6,1.33,1.33,0,0,0-.56-.32,6.79,6.79,0,0,0-.88-.19h-.07l-.14,0a8.61,8.61,0,0,1-1.57-.38,2.25,2.25,0,0,1-1.06-.78,2.53,2.53,0,0,1-.43-1.59h0a2.79,2.79,0,0,1,.41-1.56,2.58,2.58,0,0,1,1.18-1,5.06,5.06,0,0,1,2.92-.22,5.4,5.4,0,0,1,2,.87l-.75,1.5a4.38,4.38,0,0,0-1.14-.58,3.36,3.36,0,0,0-1.14-.21,2.46,2.46,0,0,0-1.26.27.84.84,0,0,0-.45.75h0a.84.84,0,0,0,.24.64,1.28,1.28,0,0,0,.57.35,9.09,9.09,0,0,0,1,.24h.18l.07,0a7.88,7.88,0,0,1,1.5.42,2.37,2.37,0,0,1,1,.81,2.49,2.49,0,0,1,.4,1.51h0a2.79,2.79,0,0,1-.42,1.55,2.63,2.63,0,0,1-1.23,1,5,5,0,0,1-1.94.34Z"/><path class="cls-1" d="M1147,425.81a2.23,2.23,0,0,1-1-1,3.39,3.39,0,0,1-.34-1.59v-1.09a3.31,3.31,0,0,1,.34-1.57,2.26,2.26,0,0,1,1-1,3.79,3.79,0,0,1,3.14,0,2.33,2.33,0,0,1,1,1,3.43,3.43,0,0,1,.34,1.57v1.11a3.43,3.43,0,0,1-.34,1.57,2.3,2.3,0,0,1-1,1,3.79,3.79,0,0,1-3.14,0Zm2.4-1.68a1.24,1.24,0,0,0,.3-.89v-1.11a1.22,1.22,0,0,0-.3-.88,1.1,1.1,0,0,0-.84-.31,1.06,1.06,0,0,0-.82.31,1.22,1.22,0,0,0-.3.88v1.11a1.29,1.29,0,0,0,.29.89,1.28,1.28,0,0,0,1.67,0Z"/><path class="cls-1" d="M1153.26,425.64a2.09,2.09,0,0,1-.54-1.57,1.86,1.86,0,0,1,.6-1.5,2.78,2.78,0,0,1,1.8-.5h1.69l.09,1.36h-1.77a1,1,0,0,0-.61.16.57.57,0,0,0-.2.48.55.55,0,0,0,.26.49,1.41,1.41,0,0,0,.76.16,2.58,2.58,0,0,0,1.06-.16.54.54,0,0,0,.35-.51l.14,1a1,1,0,0,1-.34.62,2.15,2.15,0,0,1-.74.38,3.54,3.54,0,0,1-.93.12A2.25,2.25,0,0,1,1153.26,425.64Zm3.49-3.85a.87.87,0,0,0-.31-.72,1.36,1.36,0,0,0-.88-.25,2.45,2.45,0,0,0-.75.12,2.23,2.23,0,0,0-.65.34l-1.11-1.08a2.66,2.66,0,0,1,1.07-.72,4,4,0,0,1,1.46-.25,3.63,3.63,0,0,1,1.51.29,2.15,2.15,0,0,1,1,.86,2.7,2.7,0,0,1,.32,1.35v4.32h-1.61Z"/><path class="cls-1" d="M1160.11,419.32H1162v6.73h-1.91Zm3.47,1.68a1.4,1.4,0,0,0-.43-.06,1,1,0,0,0-.83.35,1.42,1.42,0,0,0-.3,1l-.14-1.75a2.43,2.43,0,0,1,.73-.94,1.58,1.58,0,0,1,1-.33,2.11,2.11,0,0,1,.77.13,1.79,1.79,0,0,1,.59.39l-1,1.45A.87.87,0,0,0,1163.58,421Z"/><path class="cls-1" d="M1167.56,426.15l-.69-.35a2.43,2.43,0,0,1-1-1,3.44,3.44,0,0,1-.36-1.63v-.76a3.86,3.86,0,0,1,.34-1.71,2.38,2.38,0,0,1,1-1.07,3.25,3.25,0,0,1,1.61-.37,2.52,2.52,0,0,1,1.51.44,2.71,2.71,0,0,1,1,1.28,5.75,5.75,0,0,1,.32,2v.45h-4.6v-1.2h3l0-.16a1.55,1.55,0,0,0-.36-.9,1,1,0,0,0-.79-.32,1.32,1.32,0,0,0-1,.38,1.59,1.59,0,0,0-.35,1.09v.85a1.42,1.42,0,0,0,.39,1.07,1.46,1.46,0,0,0,1.08.37,2.15,2.15,0,0,0,.7-.12,2.35,2.35,0,0,0,.64-.36l1.16,1a3.92,3.92,0,0,1-1.18.74,3.65,3.65,0,0,1-1.32.26Z"/><path class="cls-1" d="M1174.74,426.15l-.57-.1a5.8,5.8,0,0,1-1.07-.32,3.74,3.74,0,0,1-.88-.5l1.09-1.37a4.3,4.3,0,0,0,1,.48,3.15,3.15,0,0,0,1,.17,2.73,2.73,0,0,0,1-.14c.23-.09.34-.22.34-.38a.45.45,0,0,0-.14-.35.87.87,0,0,0-.39-.16l-.65-.09-.24,0-.24,0h-.11a8.56,8.56,0,0,1-1.21-.24,1.6,1.6,0,0,1-.77-.55,1.89,1.89,0,0,1-.31-1.18,2,2,0,0,1,.32-1.15,2,2,0,0,1,.94-.73,3.9,3.9,0,0,1,1.49-.25,5.07,5.07,0,0,1,1,.1,5.2,5.2,0,0,1,1,.3,4.19,4.19,0,0,1,.86.47l-1,1.29a4.1,4.1,0,0,0-.92-.39,3.4,3.4,0,0,0-.92-.13,2.34,2.34,0,0,0-.84.12c-.2.08-.3.2-.3.34a.3.3,0,0,0,.16.27,1.11,1.11,0,0,0,.4.13l.69.1h.35a8.43,8.43,0,0,1,1.27.23,1.59,1.59,0,0,1,.84.57,2,2,0,0,1,.35,1.26,2.07,2.07,0,0,1-.34,1.2,2.12,2.12,0,0,1-1,.76,4.3,4.3,0,0,1-1.57.26Z"/><path class="cls-1" d="M932.93,492.68l-.76-.41a2.72,2.72,0,0,1-1.17-1.2,4.1,4.1,0,0,1-.4-1.9v-2.59a4.1,4.1,0,0,1,.4-1.9,2.79,2.79,0,0,1,1.17-1.21,3.88,3.88,0,0,1,1.84-.41,3.34,3.34,0,0,1,1.59.38,3.24,3.24,0,0,1,1.16,1.11,5,5,0,0,1,.63,1.77h-1.84a2.43,2.43,0,0,0-.32-.8,1.61,1.61,0,0,0-.53-.51,1.41,1.41,0,0,0-.69-.17,1.65,1.65,0,0,0-.85.2,1.35,1.35,0,0,0-.53.6,2.07,2.07,0,0,0-.19.94v2.59a2.07,2.07,0,0,0,.19.94,1.27,1.27,0,0,0,.53.59,1.65,1.65,0,0,0,.85.21,1.38,1.38,0,0,0,.7-.18,1.48,1.48,0,0,0,.53-.5,2.52,2.52,0,0,0,.31-.8h1.84a4.84,4.84,0,0,1-.64,1.76,3.13,3.13,0,0,1-1.15,1.11,3.34,3.34,0,0,1-1.59.38Z"/><path class="cls-1" d="M940.19,492.25A3,3,0,0,1,939,491a3.79,3.79,0,0,1-.42-1.82v-2.67a3.83,3.83,0,0,1,.42-1.83,3,3,0,0,1,1.21-1.22,4,4,0,0,1,3.61,0,3,3,0,0,1,1.21,1.22,3.72,3.72,0,0,1,.43,1.83v2.67A3.68,3.68,0,0,1,945,491a3,3,0,0,1-1.21,1.22,4,4,0,0,1-3.61,0Zm2.65-1.55a1.36,1.36,0,0,0,.56-.58,1.86,1.86,0,0,0,.2-.87v-2.76a1.86,1.86,0,0,0-.2-.87,1.42,1.42,0,0,0-.56-.58,1.86,1.86,0,0,0-1.68,0,1.45,1.45,0,0,0-.57.58,1.86,1.86,0,0,0-.19.87v2.76a1.86,1.86,0,0,0,.19.87,1.39,1.39,0,0,0,.57.58,1.78,1.78,0,0,0,1.68,0Z"/><path class="cls-1" d="M948.51,492.27a2.69,2.69,0,0,1-1.18-1.2,4.23,4.23,0,0,1-.4-1.9v-6h1.78v6.06a1.74,1.74,0,0,0,.43,1.26,1.94,1.94,0,0,0,2.46,0,1.7,1.7,0,0,0,.44-1.26v-6.06h1.78v6a4.1,4.1,0,0,1-.41,1.9,2.69,2.69,0,0,1-1.18,1.2,4.42,4.42,0,0,1-3.72,0Z"/><path class="cls-1" d="M955.63,483.15h1.78v9.44h-1.78Zm.71,3.93h3.28a.8.8,0,0,0,.48-.14.83.83,0,0,0,.32-.39,1.31,1.31,0,0,0,.12-.58,1.5,1.5,0,0,0-.11-.58.89.89,0,0,0-.32-.39.88.88,0,0,0-.49-.14h-3.28v-1.71h3.42a2.66,2.66,0,0,1,1.37.35,2.38,2.38,0,0,1,.92,1,3.58,3.58,0,0,1,0,3,2.38,2.38,0,0,1-.92,1,2.68,2.68,0,0,1-1.37.35h-3.42Zm2,1.42,1.9-.3,2.55,4.39h-2.16Z"/><path class="cls-1" d="M966.32,492.68l-.65-.13a5.92,5.92,0,0,1-1.21-.4,4.46,4.46,0,0,1-1-.64l.82-1.46a3.84,3.84,0,0,0,1.26.69A4.51,4.51,0,0,0,967,491a2.65,2.65,0,0,0,1.35-.29.94.94,0,0,0,.48-.83h0a.84.84,0,0,0-.21-.6,1.33,1.33,0,0,0-.56-.32,7.19,7.19,0,0,0-.88-.19h-.07l-.15,0a9.48,9.48,0,0,1-1.56-.37,2.34,2.34,0,0,1-1.06-.79,2.53,2.53,0,0,1-.44-1.59h0a2.88,2.88,0,0,1,.41-1.56,2.6,2.6,0,0,1,1.19-1,5,5,0,0,1,2.91-.22,6.29,6.29,0,0,1,1,.33,6.52,6.52,0,0,1,1,.54l-.75,1.5a4.72,4.72,0,0,0-1.14-.58,3.45,3.45,0,0,0-1.14-.21,2.47,2.47,0,0,0-1.27.27.85.85,0,0,0-.44.75h0a.88.88,0,0,0,.23.64,1.37,1.37,0,0,0,.58.35,9.45,9.45,0,0,0,1,.24h.18l.08,0a8,8,0,0,1,1.49.42,2.31,2.31,0,0,1,1,.81,2.51,2.51,0,0,1,.41,1.51h0a2.79,2.79,0,0,1-.43,1.55,2.65,2.65,0,0,1-1.22,1,5,5,0,0,1-2,.34Z"/><path class="cls-1" d="M972.08,483.16h1.77v9.43h-1.77Zm.64,0h5.67v1.71h-5.67Zm0,3.89h5v1.71h-5Zm0,3.82h5.67v1.72h-5.67Z"/><path class="cls-1" d="M1028.73,483.16h2.34v9.43h-1.61v-7.33l.06.42-1.8,5.85h-1.57l-1.8-5.72.06-.55v7.33h-1.61v-9.43h2.34l1.79,6.35Z"/><path class="cls-1" d="M1033.15,483.16h1.77v9.43h-1.77Zm.64,0h5.67v1.71h-5.67Zm0,3.89h5v1.71h-5Zm0,3.82h5.67v1.72h-5.67Z"/><path class="cls-1" d="M1042.79,492.59H1041v-9.43h1.84Z"/><path class="cls-1" d="M1049.75,492.27a2.72,2.72,0,0,1-1.17-1.2,4.1,4.1,0,0,1-.4-1.9v-6H1050v6.06a1.74,1.74,0,0,0,.44,1.26,1.6,1.6,0,0,0,1.22.44,1.65,1.65,0,0,0,1.24-.44,1.74,1.74,0,0,0,.43-1.26v-6.06h1.78v6a4.1,4.1,0,0,1-.4,1.9,2.74,2.74,0,0,1-1.18,1.2,4.45,4.45,0,0,1-3.73,0Z"/><path class="cls-1" d="M1056.88,485.85h1.77v6.74h-1.77Zm3.89,2.66a1,1,0,0,0-.29-.77,1.09,1.09,0,0,0-.8-.27,1,1,0,0,0-.76.28,1,1,0,0,0-.27.77l-.13-1.49a2.36,2.36,0,0,1,.73-.95,1.67,1.67,0,0,1,1.06-.32,2,2,0,0,1,1.65.71,3.15,3.15,0,0,1,.58,2v4.09h-1.77Z"/><path class="cls-1" d="M1064.2,483.16H1066v1.77h-1.77Zm0,2.69H1066v6.74h-1.77Z"/><path class="cls-1" d="M1071.46,485.85h1.77l-2.53,6.74h-1.26l-2.53-6.74h1.78l1.38,4.23Z"/><path class="cls-1" d="M1076.05,492.68l-.69-.35a2.43,2.43,0,0,1-1-1,3.33,3.33,0,0,1-.37-1.63v-.76a3.86,3.86,0,0,1,.35-1.71,2.38,2.38,0,0,1,1-1.07,3.22,3.22,0,0,1,1.61-.37,2.54,2.54,0,0,1,1.51.44,2.69,2.69,0,0,1,.95,1.28,5.53,5.53,0,0,1,.33,2V490h-4.6v-1.2h3l0-.16a1.55,1.55,0,0,0-.37-.9,1,1,0,0,0-.78-.32,1.29,1.29,0,0,0-1,.39,1.54,1.54,0,0,0-.35,1.08v.85a1.46,1.46,0,0,0,.38,1.07,1.49,1.49,0,0,0,1.08.37,2.16,2.16,0,0,0,.71-.12,2.51,2.51,0,0,0,.64-.36l1.16,1a4,4,0,0,1-1.18.74,3.66,3.66,0,0,1-1.33.26Z"/><path class="cls-1" d="M1081.26,485.85h1.9v6.74h-1.9Zm3.47,1.68a1.46,1.46,0,0,0-.44-.06,1,1,0,0,0-.83.35,1.42,1.42,0,0,0-.3,1L1083,487a2.32,2.32,0,0,1,.72-.94,1.61,1.61,0,0,1,1-.33,2.06,2.06,0,0,1,.76.13,1.79,1.79,0,0,1,.59.39l-1,1.45A.83.83,0,0,0,1084.73,487.53Z"/><path class="cls-1" d="M1088.9,492.68l-.58-.1a6,6,0,0,1-1.07-.32,4,4,0,0,1-.88-.5l1.1-1.37a4,4,0,0,0,1,.48,3.1,3.1,0,0,0,1,.17,2.5,2.5,0,0,0,1-.14c.23-.09.35-.22.35-.38a.43.43,0,0,0-.15-.35.88.88,0,0,0-.38-.16l-.66-.09-.24,0-.24,0H1089a8.86,8.86,0,0,1-1.21-.24,1.58,1.58,0,0,1-.76-.55,1.89,1.89,0,0,1-.32-1.18,2,2,0,0,1,.33-1.15,1.94,1.94,0,0,1,.94-.73,3.87,3.87,0,0,1,1.49-.25,5,5,0,0,1,1,.1,5.2,5.2,0,0,1,1,.3,4.27,4.27,0,0,1,.87.47l-1.06,1.29a4.38,4.38,0,0,0-.92-.39,3.4,3.4,0,0,0-.92-.13,2.34,2.34,0,0,0-.84.12c-.2.08-.3.2-.3.34a.32.32,0,0,0,.16.27,1.11,1.11,0,0,0,.4.13l.69.1h.35a8.84,8.84,0,0,1,1.28.23,1.69,1.69,0,0,1,.84.57,2,2,0,0,1,.34,1.26,2.14,2.14,0,0,1-.33,1.2,2.2,2.2,0,0,1-1,.76,4.24,4.24,0,0,1-1.56.26Z"/><path class="cls-1" d="M1093.71,483.16h1.78v1.77h-1.78Zm0,2.69h1.78v6.74h-1.78Z"/><path class="cls-1" d="M1098,492.34a2.14,2.14,0,0,1-.78-1,4.3,4.3,0,0,1-.26-1.57v-1.08a4.39,4.39,0,0,1,.26-1.58,2.17,2.17,0,0,1,.78-1,2.13,2.13,0,0,1,1.22-.34,1.58,1.58,0,0,1,1,.32,2.22,2.22,0,0,1,.72.91l-.14,1.49a1.43,1.43,0,0,0-.11-.58.87.87,0,0,0-.34-.37,1.15,1.15,0,0,0-.55-.13.93.93,0,0,0-.77.35,1.47,1.47,0,0,0-.27.95v1.07a1.48,1.48,0,0,0,.27.94,1,1,0,0,0,.77.33,1.15,1.15,0,0,0,.55-.13.82.82,0,0,0,.34-.35,1.41,1.41,0,0,0,.11-.57l.09,1.54a1.72,1.72,0,0,1-.63.85,1.75,1.75,0,0,1-1,.3A2.13,2.13,0,0,1,1098,492.34Zm2.78-9.18h1.78v9.43h-1.78Z"/><path class="cls-1" d="M1104.51,492.17a2.09,2.09,0,0,1-.53-1.57,1.86,1.86,0,0,1,.6-1.5,2.78,2.78,0,0,1,1.8-.5h1.68l.09,1.36h-1.77a.92.92,0,0,0-.6.16.57.57,0,0,0-.2.48.54.54,0,0,0,.25.49,1.43,1.43,0,0,0,.77.16,2.61,2.61,0,0,0,1.06-.16.53.53,0,0,0,.34-.51l.14,1a1,1,0,0,1-.33.62,2.25,2.25,0,0,1-.74.38,3.61,3.61,0,0,1-.94.12A2.28,2.28,0,0,1,1104.51,492.17Zm3.49-3.85a.87.87,0,0,0-.31-.72,1.36,1.36,0,0,0-.88-.25,2.45,2.45,0,0,0-.75.12,2.36,2.36,0,0,0-.65.34l-1.1-1.08a2.63,2.63,0,0,1,1.06-.72,4,4,0,0,1,1.47-.25,3.58,3.58,0,0,1,1.5.29,2.09,2.09,0,0,1,1,.86,2.6,2.6,0,0,1,.33,1.35v4.33H1108Z"/><path class="cls-1" d="M1112.21,492.34a2.13,2.13,0,0,1-.77-1,4.09,4.09,0,0,1-.27-1.57v-1.08a4.18,4.18,0,0,1,.27-1.58,2,2,0,0,1,2-1.35,1.6,1.6,0,0,1,1,.32,2.3,2.3,0,0,1,.72.91l-.14,1.49a1.28,1.28,0,0,0-.12-.58.87.87,0,0,0-.34-.37,1.13,1.13,0,0,0-.54-.13.93.93,0,0,0-.77.35,1.42,1.42,0,0,0-.28.95v1.07a1.42,1.42,0,0,0,.28.94,1,1,0,0,0,.77.33,1.13,1.13,0,0,0,.54-.13.82.82,0,0,0,.34-.35,1.26,1.26,0,0,0,.12-.57l.09,1.54a1.74,1.74,0,0,1-.64.85,1.7,1.7,0,0,1-1,.3A2.14,2.14,0,0,1,1112.21,492.34Zm2.79-9.18h1.78v9.43H1115Z"/><path class="cls-1" d="M1120.44,492.68l-.69-.35a2.51,2.51,0,0,1-1.06-1,3.44,3.44,0,0,1-.36-1.63v-.76a3.86,3.86,0,0,1,.35-1.71,2.38,2.38,0,0,1,1-1.07,3.22,3.22,0,0,1,1.61-.37,2.54,2.54,0,0,1,1.51.44,2.69,2.69,0,0,1,1,1.28,5.53,5.53,0,0,1,.33,2V490h-4.6v-1.2h3l0-.16a1.55,1.55,0,0,0-.37-.9,1,1,0,0,0-.78-.32,1.29,1.29,0,0,0-1,.39,1.5,1.5,0,0,0-.35,1.08v.85a1.42,1.42,0,0,0,.38,1.07,1.49,1.49,0,0,0,1.08.37,2.16,2.16,0,0,0,.71-.12,2.45,2.45,0,0,0,.63-.36l1.16,1a3.92,3.92,0,0,1-1.18.74,3.57,3.57,0,0,1-1.32.26Z"/><path class="cls-1" d="M1130.06,492.34a2.14,2.14,0,0,1-.78-1,4.3,4.3,0,0,1-.26-1.57v-1.08a4.39,4.39,0,0,1,.26-1.58,2.17,2.17,0,0,1,.78-1,2.13,2.13,0,0,1,1.22-.34,1.58,1.58,0,0,1,1,.32,2.22,2.22,0,0,1,.72.91l-.14,1.49a1.43,1.43,0,0,0-.11-.58.94.94,0,0,0-.34-.37,1.15,1.15,0,0,0-.55-.13.93.93,0,0,0-.77.35,1.47,1.47,0,0,0-.28.95v1.07a1.48,1.48,0,0,0,.28.94,1,1,0,0,0,.77.33,1.15,1.15,0,0,0,.55-.13.88.88,0,0,0,.34-.35,1.41,1.41,0,0,0,.11-.57l.09,1.54a1.72,1.72,0,0,1-.63.85,1.75,1.75,0,0,1-1,.3A2.13,2.13,0,0,1,1130.06,492.34Zm2.78-9.18h1.78v9.43h-1.78Z"/><path class="cls-1" d="M1138.28,492.68l-.69-.35a2.43,2.43,0,0,1-1-1,3.44,3.44,0,0,1-.36-1.63v-.76a3.86,3.86,0,0,1,.34-1.71,2.38,2.38,0,0,1,1-1.07,3.25,3.25,0,0,1,1.61-.37,2.52,2.52,0,0,1,1.51.44,2.71,2.71,0,0,1,1,1.28,5.76,5.76,0,0,1,.32,2V490h-4.6v-1.2h3l0-.16a1.55,1.55,0,0,0-.36-.9,1,1,0,0,0-.79-.32,1.29,1.29,0,0,0-1,.39,1.54,1.54,0,0,0-.35,1.08v.85a1.42,1.42,0,0,0,.39,1.07,1.46,1.46,0,0,0,1.08.37,2.15,2.15,0,0,0,.7-.12,2.35,2.35,0,0,0,.64-.36l1.16,1a3.92,3.92,0,0,1-1.18.74,3.65,3.65,0,0,1-1.32.26Z"/><path class="cls-1" d="M1149.88,483.16H1151l3.61,9.43h-1.92l-2.25-6.44-2.26,6.44h-1.91Zm-1.87,6.2h5v1.71h-5Z"/><path class="cls-1" d="M1159.29,485.85h1.77l-2.53,6.74h-1.26l-2.52-6.74h1.77l1.38,4.23Z"/><path class="cls-1" d="M1163.88,492.68l-.69-.35a2.43,2.43,0,0,1-1-1,3.44,3.44,0,0,1-.37-1.63v-.76a3.86,3.86,0,0,1,.35-1.71,2.38,2.38,0,0,1,1-1.07,3.25,3.25,0,0,1,1.61-.37,2.52,2.52,0,0,1,1.51.44,2.63,2.63,0,0,1,1,1.28,5.53,5.53,0,0,1,.33,2V490h-4.6v-1.2h3l0-.16a1.55,1.55,0,0,0-.37-.9,1,1,0,0,0-.78-.32,1.29,1.29,0,0,0-1,.39,1.54,1.54,0,0,0-.35,1.08v.85a1.46,1.46,0,0,0,.38,1.07,1.49,1.49,0,0,0,1.08.37,2.16,2.16,0,0,0,.71-.12,2.51,2.51,0,0,0,.64-.36l1.16,1a4,4,0,0,1-1.18.74,3.66,3.66,0,0,1-1.33.26Z"/><path class="cls-1" d="M1169,483.16h1.78v1.77H1169Zm0,2.69h1.78v6.74H1169Z"/><path class="cls-1" d="M1172.42,485.85h1.91v6.74h-1.91Zm3.47,1.68a1.44,1.44,0,0,0-.43-.06,1.06,1.06,0,0,0-.84.35,1.47,1.47,0,0,0-.29,1l-.14-1.75a2.5,2.5,0,0,1,.72-.94,1.63,1.63,0,0,1,1-.33,2.06,2.06,0,0,1,.76.13,1.6,1.6,0,0,1,.59.39l-1,1.45A.87.87,0,0,0,1175.89,487.53Z"/><path class="cls-1" d="M1179.1,492.34a2.3,2.3,0,0,1-1-1,3.52,3.52,0,0,1-.34-1.59v-1.09a3.43,3.43,0,0,1,.34-1.57,2.33,2.33,0,0,1,1-1,3.79,3.79,0,0,1,3.14,0,2.26,2.26,0,0,1,1,1,3.31,3.31,0,0,1,.34,1.57v1.11a3.31,3.31,0,0,1-.34,1.57,2.23,2.23,0,0,1-1,1,3.79,3.79,0,0,1-3.14,0Zm2.4-1.68a1.24,1.24,0,0,0,.3-.89v-1.11a1.22,1.22,0,0,0-.3-.88,1.1,1.1,0,0,0-.84-.31,1.06,1.06,0,0,0-.82.31,1.22,1.22,0,0,0-.3.88v1.11a1.29,1.29,0,0,0,.29.89,1.08,1.08,0,0,0,.83.31A1.1,1.1,0,0,0,1181.5,490.66Z"/></g></g></svg>